<svg xmlns="http://www.w3.org/2000/svg" width="106.316" height="101" viewBox="0 0 106.316 101">
  <g id="Group_305" data-name="Group 305" transform="translate(-1230.438 -826)">
    <g id="Rectangle_10" data-name="Rectangle 10" transform="translate(1230.438 826)" fill="#c12328" stroke="#707070" stroke-width="1" opacity="0.06">
      <rect width="106.316" height="101" rx="16" stroke="none"/>
      <rect x="0.5" y="0.5" width="105.316" height="100" rx="15.5" fill="none"/>
    </g>
    <g id="Group_12" data-name="Group 12" transform="translate(1250.15 845.753)">
      <path id="Path_22" data-name="Path 22" d="M388.434-350.257a1.068,1.068,0,0,1-1.542,0c-.738-.718-1.462-1.449-2.186-2.186a1.024,1.024,0,0,1-.219-1.2,1.029,1.029,0,0,1,.957-.645,1.125,1.125,0,0,1,.824.332c.718.718,1.442,1.435,2.153,2.153a1.087,1.087,0,0,1,.013,1.548" transform="translate(-356.081 378.246)" fill="#c12328"/>
      <path id="Path_23" data-name="Path 23" d="M394.993-350.677a1.078,1.078,0,0,1-.033,1.555c-.558.571-1.123,1.13-1.694,1.694a.412.412,0,0,0-.133.319q.01,2.94,0,5.881a1.081,1.081,0,0,1-1.615.97,1.038,1.038,0,0,1-.558-.963v-3.243c0-1.063.007-2.133,0-3.2a1.209,1.209,0,0,1,.372-.9c.7-.691,1.4-1.4,2.093-2.093a1.071,1.071,0,0,1,1.568-.02" transform="translate(-358.288 377.145)" fill="#c12328"/>
      <path id="Path_24" data-name="Path 24" d="M382.009-378.467c-.352.186-.691.4-1.03.6a1.093,1.093,0,0,1-1.562-.319,1.1,1.1,0,0,1,.4-1.528,15.135,15.135,0,0,1,6.518-2.352,14.973,14.973,0,0,1,2.04-.1,15.763,15.763,0,0,1,2.505.253,1.09,1.09,0,0,1,.89,1.2,1.059,1.059,0,0,1-1.156.937c-.525-.047-1.043-.153-1.575-.186a13.05,13.05,0,0,0-7.03,1.488" transform="translate(-354.36 387.599)" fill="#c12328"/>
      <path id="Path_25" data-name="Path 25" d="M399.571-376.188a5.435,5.435,0,0,0-5.449,5.429,5.448,5.448,0,0,0,5.415,5.462,5.468,5.468,0,0,0,5.469-5.442,5.458,5.458,0,0,0-5.435-5.449m-.02,8.711a3.258,3.258,0,0,1-3.256-3.263,3.26,3.26,0,0,1,3.256-3.269,3.274,3.274,0,0,1,3.276,3.276,3.283,3.283,0,0,1-3.276,3.256m.02-8.711a5.435,5.435,0,0,0-5.449,5.429,5.448,5.448,0,0,0,5.415,5.462,5.468,5.468,0,0,0,5.469-5.442,5.458,5.458,0,0,0-5.435-5.449m-.02,8.711a3.258,3.258,0,0,1-3.256-3.263,3.26,3.26,0,0,1,3.256-3.269,3.274,3.274,0,0,1,3.276,3.276,3.283,3.283,0,0,1-3.276,3.256m.02-8.711a5.435,5.435,0,0,0-5.449,5.429,5.448,5.448,0,0,0,5.415,5.462,5.468,5.468,0,0,0,5.469-5.442,5.458,5.458,0,0,0-5.435-5.449m-.02,8.711a3.258,3.258,0,0,1-3.256-3.263,3.26,3.26,0,0,1,3.256-3.269,3.274,3.274,0,0,1,3.276,3.276,3.283,3.283,0,0,1-3.276,3.256m.02-8.711a5.435,5.435,0,0,0-5.449,5.429,5.448,5.448,0,0,0,5.415,5.462,5.468,5.468,0,0,0,5.469-5.442,5.458,5.458,0,0,0-5.435-5.449m-.02,8.711a3.258,3.258,0,0,1-3.256-3.263,3.26,3.26,0,0,1,3.256-3.269,3.274,3.274,0,0,1,3.276,3.276,3.283,3.283,0,0,1-3.276,3.256m15.456-6.439c-1.176-.292-2.339-.6-3.522-.87-.4-.086-.678-.233-.751-.651a.776.776,0,0,0-.093-.219.3.3,0,0,1,.02-.339c.678-1.116,1.342-2.233,2.013-3.349a1.11,1.11,0,0,0-.186-1.562l-2.771-2.771a1.094,1.094,0,0,0-1.542-.193c-1.043.625-2.093,1.243-3.123,1.887a.672.672,0,0,1-.824.06.973.973,0,0,0-.3-.12.291.291,0,0,1-.226-.253c-.312-1.289-.638-2.572-.957-3.854a1.094,1.094,0,0,0-1.169-.917h-4.053a1.084,1.084,0,0,0-1.136.877c-.106.405-.206.811-.312,1.229-.027-.007-.033-.007-.04-.013a1.148,1.148,0,0,1-.1-.086,20.5,20.5,0,0,0-12.054-5.2,19.838,19.838,0,0,0-7.156.645,20.472,20.472,0,0,0-12.014,8.837,20.3,20.3,0,0,0-3.236,10.06,15.09,15.09,0,0,0,.817,5.927,24.128,24.128,0,0,0,3.037,5.668c1.2,1.721,2.505,3.362,3.708,5.077a21.15,21.15,0,0,1,2.658,4.718,8.336,8.336,0,0,1,.638,2.891c.007,2.412.007,4.817,0,7.229a6.939,6.939,0,0,0,.272,2.06,7.526,7.526,0,0,0,6.073,5.489c.133.027.193.06.193.213-.013.372-.013.738,0,1.11a2.172,2.172,0,0,0,2.08,2.06c.784.02,1.568.013,2.352,0a2.181,2.181,0,0,0,2.06-1.794,9.394,9.394,0,0,0,.033-1.369c0-.14.033-.2.179-.226a6.48,6.48,0,0,0,1.98-.618,7.4,7.4,0,0,0,4.359-6.7c.08-2.233.02-4.472.013-6.7a10.351,10.351,0,0,1,.06-1.11,11.47,11.47,0,0,1,1.156-3.754,31.512,31.512,0,0,1,3.136-4.871c.007-.007.027-.007.04-.007a.588.588,0,0,1,.033.1,1.1,1.1,0,0,0,1.223.937h3.96a1.108,1.108,0,0,0,1.183-.91c.292-1.176.6-2.346.87-3.522.086-.365.2-.651.611-.718a.933.933,0,0,0,.279-.12.241.241,0,0,1,.279.02c1.156.7,2.312,1.382,3.462,2.08a1.069,1.069,0,0,0,1.409-.159c.964-.957,1.92-1.914,2.884-2.877a1.1,1.1,0,0,0,.179-1.482c-.618-1.023-1.216-2.053-1.854-3.07a.812.812,0,0,1-.073-1,.686.686,0,0,0,.086-.219.29.29,0,0,1,.253-.226c1.3-.319,2.585-.638,3.88-.964a1.1,1.1,0,0,0,.9-1.15v-4.073a1.065,1.065,0,0,0-.877-1.13m-31.941,43.47c-.312-.007-.625,0-.937,0s-.611-.007-.917,0c-.12,0-.166-.02-.159-.153a7.741,7.741,0,0,0,0-.784c-.007-.12.02-.159.153-.159q.937.01,1.874,0c.12,0,.166.02.159.153a7.741,7.741,0,0,0,0,.784c.007.146-.053.159-.173.159m6.565-8.578-2.352.3c-1.083.14-2.173.272-3.256.405-1.236.153-2.478.306-3.714.465-.545.066-1.1.133-1.641.213a1.074,1.074,0,0,0-.917,1.2,1.067,1.067,0,0,0,1.176.944c1.143-.126,2.292-.272,3.435-.419,1.362-.166,2.718-.339,4.08-.512.857-.106,1.714-.219,2.565-.326a.193.193,0,0,1,.159.007,5.219,5.219,0,0,1-1.13,1.528,5.377,5.377,0,0,1-3.847,1.5c-1.4-.007-2.8,0-4.206,0a5.458,5.458,0,0,1-5.409-4.658c-.033-.213-.027-.439-.06-.651s.066-.286.272-.312q4.954-.608,9.907-1.229c1.681-.213,3.362-.425,5.07-.638v2.06c.007.113-.053.12-.133.126m.14-5.369c-.02.292-.007.578,0,.87,0,.1-.027.126-.126.14-1.262.153-2.532.312-3.794.472l-4.312.538c-1.455.179-2.91.365-4.359.545-.877.113-1.754.219-2.645.332V-343c0-.472.007-.944-.007-1.415-.007-.166.04-.2.2-.2,1.993.007,3.993.007,5.987.007q4.415,0,8.844-.007c.166.007.226.04.213.226m5.761-13.675c-.93,1.256-1.88,2.505-2.738,3.814a20.089,20.089,0,0,0-2.432,4.811,11.554,11.554,0,0,0-.525,2.372c-.02.166-.066.226-.246.219-1.023-.013-2.047-.007-3.07-.007s-2.06-.007-3.1.007c-.166,0-.2-.047-.2-.206.007-1,.007-2,0-3a1.087,1.087,0,0,0-.924-1.076,1.1,1.1,0,0,0-1.183.7,1.277,1.277,0,0,0-.073.445c0,.983-.007,1.96.007,2.937,0,.166-.04.2-.206.2q-3.05-.01-6.1,0c-.173,0-.226-.047-.246-.226a13.152,13.152,0,0,0-1.282-4.266,32.265,32.265,0,0,0-3.289-5.19c-1.256-1.694-2.552-3.362-3.675-5.15a17.739,17.739,0,0,1-2.266-5.023,12.536,12.536,0,0,1-.372-3.515,18.151,18.151,0,0,1,2.306-8.379,18.367,18.367,0,0,1,10.18-8.565,17.775,17.775,0,0,1,7.455-.95,18.224,18.224,0,0,1,11.728,5.482.328.328,0,0,1-.12.571.45.45,0,0,0-.1.04,1.023,1.023,0,0,1-1.249-.1c-.95-.618-1.94-1.183-2.917-1.767a1.088,1.088,0,0,0-1.508.179l-2.817,2.817a1.088,1.088,0,0,0-.179,1.508q1.017,1.694,2.04,3.389a.271.271,0,0,1,.02.312.866.866,0,0,0-.12.279c-.066.385-.326.512-.678.591-1.183.272-2.359.585-3.542.877a1.084,1.084,0,0,0-.917,1.169v4.027a1.078,1.078,0,0,0,.924,1.163c1.282.319,2.571.645,3.854.957a.293.293,0,0,1,.239.213,2,2,0,0,0,.186.458.46.46,0,0,1-.04.545c-.664,1.083-1.309,2.173-1.96,3.256a1.093,1.093,0,0,0,.193,1.542q1.415,1.415,2.837,2.831a1.06,1.06,0,0,0,1.422.173q1.724-1.027,3.449-2.066c.113-.066.206-.1.312-.013a.236.236,0,0,0,.06.027c.219.106.558.113.651.3a4.651,4.651,0,0,1,.292,1.063c.04.12-.04.173-.086.233m18.193-11.642c.007.166-.04.233-.206.272-1.216.3-2.432.6-3.648.9a1.066,1.066,0,0,0-.8.744,11.411,11.411,0,0,1-.684,1.641,1.121,1.121,0,0,0,.06,1.176c.638,1.05,1.263,2.113,1.907,3.163a.226.226,0,0,1-.04.339c-.485.472-.964.944-1.429,1.435-.146.159-.253.153-.425.047-1.023-.631-2.06-1.243-3.083-1.874a1.158,1.158,0,0,0-1.229-.06,10.162,10.162,0,0,1-1.621.671,1.1,1.1,0,0,0-.758.851c-.292,1.183-.591,2.359-.877,3.542-.047.206-.133.266-.339.259-.671-.013-1.349-.007-2.027,0-.153,0-.219-.033-.259-.193-.292-1.2-.6-2.385-.9-3.582a1.141,1.141,0,0,0-.817-.9,9.962,9.962,0,0,1-1.581-.664,1.156,1.156,0,0,0-1.2.06c-1.063.645-2.133,1.282-3.2,1.934a.169.169,0,0,1-.253-.033c-.505-.512-1.01-1.023-1.528-1.522a.2.2,0,0,1-.04-.306c.625-1.037,1.236-2.08,1.874-3.1a1.261,1.261,0,0,0,.053-1.375,7.588,7.588,0,0,1-.6-1.442,1.176,1.176,0,0,0-.924-.851c-1.189-.286-2.372-.585-3.562-.877-.133-.033-.2-.073-.2-.239q.02-1.066,0-2.133c0-.14.033-.2.173-.233,1.189-.292,2.372-.591,3.562-.877a1.182,1.182,0,0,0,.944-.851,8.236,8.236,0,0,1,.625-1.5,1.2,1.2,0,0,0-.053-1.276c-.638-1.043-1.256-2.1-1.894-3.143a.2.2,0,0,1,.033-.306c.518-.5,1.017-1.01,1.528-1.522.04-.04.073-.093.133-.106.04.02.073.047.113.066,1.057.638,2.113,1.262,3.163,1.907a1.205,1.205,0,0,0,1.3.06,10.476,10.476,0,0,1,1.542-.645,1.135,1.135,0,0,0,.8-.864c.3-1.2.6-2.4.9-3.6.04-.159.106-.2.259-.193q1.047.01,2.093,0c.153,0,.219.033.259.193.286,1.189.591,2.372.877,3.562a1.178,1.178,0,0,0,.844.924,8.9,8.9,0,0,1,1.542.645,1.169,1.169,0,0,0,1.236-.06c1.05-.638,2.106-1.269,3.156-1.914a.191.191,0,0,1,.286.033c.5.518,1.01,1.023,1.522,1.528.1.1.093.159.027.272-.638,1.05-1.262,2.113-1.907,3.163a1.164,1.164,0,0,0-.053,1.249,9.214,9.214,0,0,1,.645,1.542,1.177,1.177,0,0,0,.937.837c1.183.286,2.359.585,3.542.87.166.04.206.106.206.272-.013.7-.013,1.389,0,2.08m-14.153-6.479a5.435,5.435,0,0,0-5.449,5.429,5.448,5.448,0,0,0,5.415,5.462,5.468,5.468,0,0,0,5.469-5.442,5.458,5.458,0,0,0-5.435-5.449m-.02,8.711a3.258,3.258,0,0,1-3.256-3.263,3.26,3.26,0,0,1,3.256-3.269,3.274,3.274,0,0,1,3.276,3.276,3.283,3.283,0,0,1-3.276,3.256m.02-8.711a5.435,5.435,0,0,0-5.449,5.429,5.448,5.448,0,0,0,5.415,5.462,5.468,5.468,0,0,0,5.469-5.442,5.458,5.458,0,0,0-5.435-5.449m-.02,8.711a3.258,3.258,0,0,1-3.256-3.263,3.26,3.26,0,0,1,3.256-3.269,3.274,3.274,0,0,1,3.276,3.276,3.283,3.283,0,0,1-3.276,3.256m.02-8.711a5.435,5.435,0,0,0-5.449,5.429,5.448,5.448,0,0,0,5.415,5.462,5.468,5.468,0,0,0,5.469-5.442,5.458,5.458,0,0,0-5.435-5.449m-.02,8.711a3.258,3.258,0,0,1-3.256-3.263,3.26,3.26,0,0,1,3.256-3.269,3.274,3.274,0,0,1,3.276,3.276,3.283,3.283,0,0,1-3.276,3.256m.02-8.711a5.435,5.435,0,0,0-5.449,5.429,5.448,5.448,0,0,0,5.415,5.462,5.468,5.468,0,0,0,5.469-5.442,5.458,5.458,0,0,0-5.435-5.449m-.02,8.711a3.258,3.258,0,0,1-3.256-3.263,3.26,3.26,0,0,1,3.256-3.269,3.274,3.274,0,0,1,3.276,3.276,3.283,3.283,0,0,1-3.276,3.256m.02-8.711a5.435,5.435,0,0,0-5.449,5.429,5.448,5.448,0,0,0,5.415,5.462,5.468,5.468,0,0,0,5.469-5.442,5.458,5.458,0,0,0-5.435-5.449m-.02,8.711a3.258,3.258,0,0,1-3.256-3.263,3.26,3.26,0,0,1,3.256-3.269,3.274,3.274,0,0,1,3.276,3.276,3.283,3.283,0,0,1-3.276,3.256" transform="translate(-348.387 390.343)" fill="#c12328"/>
      <path id="Path_26" data-name="Path 26" d="M346.136-358.667h-3.2a1.09,1.09,0,0,1-1.143-1.083,1.085,1.085,0,0,1,1.136-1.09h6.445a1.089,1.089,0,0,1,1.136,1.09,1.09,1.09,0,0,1-1.143,1.083h-3.229" transform="translate(-341.79 380.444)" fill="#c12328"/>
      <path id="Path_27" data-name="Path 27" d="M353.511-374.231a.883.883,0,0,1-.385-.073c-1.349-.545-2.7-1.083-4.04-1.635a1.079,1.079,0,0,1-.678-1.11,1.092,1.092,0,0,1,.851-.957,1.046,1.046,0,0,1,.638.047c1.349.545,2.7,1.083,4.04,1.635a1.066,1.066,0,0,1,.651,1.236,1.071,1.071,0,0,1-1.076.857" transform="translate(-344.009 386.213)" fill="#c12328"/>
      <path id="Path_28" data-name="Path 28" d="M353.512-346.1a1.094,1.094,0,0,1,1.1.857,1.073,1.073,0,0,1-.658,1.236c-.864.352-1.728.7-2.591,1.05-.485.193-.964.4-1.449.585a1.078,1.078,0,0,1-1.482-1.083,1.044,1.044,0,0,1,.7-.944l3-1.216c.332-.133.671-.266,1-.405a.747.747,0,0,1,.385-.08" transform="translate(-344.016 375.5)" fill="#c12328"/>
      <path id="Path_29" data-name="Path 29" d="M388.434-350.257a1.068,1.068,0,0,1-1.542,0c-.738-.718-1.462-1.449-2.186-2.186a1.024,1.024,0,0,1-.219-1.2,1.029,1.029,0,0,1,.957-.645,1.125,1.125,0,0,1,.824.332c.718.718,1.442,1.435,2.153,2.153a1.087,1.087,0,0,1,.013,1.548" transform="translate(-356.081 378.246)" fill="#c12328"/>
      <path id="Path_30" data-name="Path 30" d="M394.993-350.677a1.078,1.078,0,0,1-.033,1.555c-.558.571-1.123,1.13-1.694,1.694a.412.412,0,0,0-.133.319q.01,2.94,0,5.881a1.081,1.081,0,0,1-1.615.97,1.038,1.038,0,0,1-.558-.963v-3.243c0-1.063.007-2.133,0-3.2a1.209,1.209,0,0,1,.372-.9c.7-.691,1.4-1.4,2.093-2.093a1.071,1.071,0,0,1,1.568-.02" transform="translate(-358.288 377.145)" fill="#c12328"/>
      <path id="Path_31" data-name="Path 31" d="M391.776-380.7a1.079,1.079,0,0,1-1.163.944c-.525-.047-1.043-.153-1.575-.186a12.921,12.921,0,0,0-7.03,1.475c-.352.186-.691.4-1.03.6a1.093,1.093,0,0,1-1.562-.319,1.1,1.1,0,0,1,.4-1.528,15.137,15.137,0,0,1,6.518-2.352,14.983,14.983,0,0,1,2.04-.1,15.041,15.041,0,0,1,2.505.259,1.084,1.084,0,0,1,.9,1.2" transform="translate(-354.36 387.599)" fill="#c12328"/>
      <path id="Path_32" data-name="Path 32" d="M416.069-369.04a5.435,5.435,0,0,0-5.449,5.429,5.448,5.448,0,0,0,5.415,5.462,5.468,5.468,0,0,0,5.469-5.442,5.458,5.458,0,0,0-5.435-5.449m-.02,8.711a3.258,3.258,0,0,1-3.256-3.263,3.26,3.26,0,0,1,3.256-3.269,3.274,3.274,0,0,1,3.276,3.276,3.283,3.283,0,0,1-3.276,3.256" transform="translate(-364.884 383.195)" fill="#c12328"/>
      <path id="Path_33" data-name="Path 33" d="M391.776-380.7a1.079,1.079,0,0,1-1.163.944c-.525-.047-1.043-.153-1.575-.186a12.921,12.921,0,0,0-7.03,1.475c-.352.186-.691.4-1.03.6a1.093,1.093,0,0,1-1.562-.319,1.1,1.1,0,0,1,.4-1.528,15.137,15.137,0,0,1,6.518-2.352,14.983,14.983,0,0,1,2.04-.1,15.041,15.041,0,0,1,2.505.259,1.084,1.084,0,0,1,.9,1.2" transform="translate(-354.36 387.599)" fill="#c12328"/>
      <path id="Path_34" data-name="Path 34" d="M394.96-349.125c-.558.571-1.123,1.13-1.694,1.694a.412.412,0,0,0-.133.319q.01,2.94,0,5.874a1.081,1.081,0,0,1-1.615.97,1.038,1.038,0,0,1-.558-.964v-3.243c0-1.063.007-2.133,0-3.2a1.229,1.229,0,0,1,.365-.9c.7-.691,1.4-1.4,2.1-2.093a1.084,1.084,0,0,1,1.575-.02,1.092,1.092,0,0,1-.04,1.562" transform="translate(-358.288 377.147)" fill="#c12328"/>
      <path id="Path_35" data-name="Path 35" d="M388.434-350.257a1.068,1.068,0,0,1-1.542,0c-.738-.718-1.462-1.449-2.186-2.186a1.024,1.024,0,0,1-.219-1.2,1.029,1.029,0,0,1,.957-.645,1.125,1.125,0,0,1,.824.332c.718.718,1.442,1.435,2.153,2.153a1.087,1.087,0,0,1,.013,1.548" transform="translate(-356.081 378.246)" fill="#c12328"/>
      <path id="Path_36" data-name="Path 36" d="M416.069-369.04a5.435,5.435,0,0,0-5.449,5.429,5.448,5.448,0,0,0,5.415,5.462,5.468,5.468,0,0,0,5.469-5.442,5.458,5.458,0,0,0-5.435-5.449m-.02,8.711a3.258,3.258,0,0,1-3.256-3.263,3.26,3.26,0,0,1,3.256-3.269,3.274,3.274,0,0,1,3.276,3.276,3.283,3.283,0,0,1-3.276,3.256" transform="translate(-364.884 383.195)" fill="#c12328"/>
    </g>
  </g>
</svg>
