<svg xmlns="http://www.w3.org/2000/svg" width="106.316" height="101" viewBox="0 0 106.316 101">
  <g id="Group_310" data-name="Group 310" transform="translate(-1231 -1123)">
    <g id="Rectangle_200" data-name="Rectangle 200" transform="translate(1231 1123)" fill="#c12328" stroke="#707070" stroke-width="1" opacity="0.06">
      <rect width="106.316" height="101" rx="16" stroke="none"/>
      <rect x="0.5" y="0.5" width="105.316" height="100" rx="15.5" fill="none"/>
    </g>
    <g id="Group_14" data-name="Group 14" transform="translate(1255.886 1143.17)">
      <path id="Path_54" data-name="Path 54" d="M425.039,293.63v-5.689h-.006v.928h-.019c-.032-.337-.076-.674-.1-1.011-.013-.235-.121-.331-.35-.388-.915-.21-1.831-.439-2.739-.674a7.835,7.835,0,0,1-.814-.3,4.929,4.929,0,0,1,.426-.388c.814-.572,1.621-1.144,2.447-1.691a.573.573,0,0,0,.292-.756c-.515-1.475-1.017-2.956-1.545-4.43-.165-.458-.4-.89-.585-1.347-.083-.216-.191-.248-.413-.222-1.106.146-2.212.273-3.318.4-.127.013-.261,0-.458,0a3,3,0,0,1,.2-.407c.6-.864,1.195-1.735,1.831-2.568a.571.571,0,0,0,.006-.807c-.928-1.17-1.85-2.339-2.8-3.5-.35-.426-.769-.788-1.131-1.2a.374.374,0,0,0-.534-.089c-.972.483-1.958.947-2.943,1.417-.121.057-.248.089-.458.165.07-.318.114-.566.178-.8.229-.839.464-1.672.693-2.511.172-.617.165-.718-.394-1.055-1.424-.858-2.86-1.691-4.3-2.517-.343-.2-.756-.5-1.081-.445s-.559.5-.833.782c-.547.559-1.093,1.125-1.646,1.678a4.5,4.5,0,0,1-.477.362c-.044-.407-.089-.731-.114-1.049-.057-.826-.114-1.659-.165-2.492a.647.647,0,0,0-.559-.686c-1.538-.337-3.07-.706-4.614-1.036-.439-.1-.528-.013-.559.432-.025.4-.165.89.013,1.182.14.229.68.21,1.049.3.807.191,1.614.394,2.428.566a.527.527,0,0,1,.464.553c.076,1.036.165,2.072.222,3.114a.444.444,0,0,0,.343.47c.6.21,1.195.432,1.786.667a.444.444,0,0,0,.553-.121c.769-.788,1.557-1.557,2.32-2.352a.357.357,0,0,1,.528-.076q1.363.829,2.733,1.646a.5.5,0,0,1,.229.674c-.305.979-.572,1.97-.877,2.956a.435.435,0,0,0,.172.559c.5.388.985.807,1.456,1.239a.445.445,0,0,0,.6.07c1.055-.547,2.117-1.068,3.248-1.64.788.979,1.576,1.951,2.352,2.943.057.076.006.305-.07.413-.566.8-1.131,1.6-1.722,2.377a.733.733,0,0,0-.076.928c.292.508.566,1.03.839,1.544a.416.416,0,0,0,.47.248c1.023-.114,2.047-.2,3.064-.343a.548.548,0,0,1,.68.375c.2.47.394.947.578,1.43.172.445.3.909.5,1.341.178.394.057.6-.286.826-.858.547-1.684,1.138-2.536,1.691a.428.428,0,0,0-.235.508c.127.623.235,1.246.35,1.875a.594.594,0,0,0,.515.527c1.017.229,2.021.5,3.032.731.267.064.343.178.343.445-.013,1.087-.013,2.18,0,3.267a.352.352,0,0,1-.331.419c-1.036.242-2.066.508-3.1.75a.506.506,0,0,0-.439.426c-.127.686-.267,1.367-.369,2.053a.483.483,0,0,0,.191.369q1.354.944,2.733,1.856a.371.371,0,0,1,.184.508c-.4,1.036-.788,2.078-1.176,3.127-.076.2-.178.261-.413.229-1.081-.14-2.167-.248-3.242-.375a.435.435,0,0,0-.508.248c-.305.585-.617,1.17-.934,1.742a.461.461,0,0,0,.057.566c.617.852,1.227,1.71,1.843,2.561.121.165.178.305.032.489-.775.947-1.538,1.9-2.32,2.86-1.017-.508-1.977-.979-2.93-1.468-.636-.324-.629-.331-1.169.133-.388.337-.769.686-1.182.992a.469.469,0,0,0-.184.617c.3.972.566,1.951.864,2.917a.472.472,0,0,1-.216.642q-1.354.81-2.695,1.634c-.267.165-.445.019-.616-.146-.642-.623-1.3-1.227-1.894-1.894a1.032,1.032,0,0,0-1.449-.305,7.127,7.127,0,0,1-1.3.489.411.411,0,0,0-.331.439c-.051,1-.14,2-.2,3a.7.7,0,0,1-.648.737c-1.1.229-2.193.483-3.375.75.019.439.019.947.076,1.456.032.28.28.273.5.235.7-.121,1.4-.229,2.091-.394.883-.2,1.748-.458,2.625-.686a.5.5,0,0,0,.445-.489c.076-1.023.178-2.047.273-3.07.019-.191.051-.381.089-.648.229.2.426.343.591.515.712.725,1.411,1.456,2.117,2.186.121.127.216.242.432.133a45.721,45.721,0,0,0,5.282-3.025.705.705,0,0,0,.311-.9c-.267-.928-.515-1.862-.763-2.8-.044-.172-.07-.35-.127-.629.445.191.82.324,1.176.5.763.369,1.513.75,2.263,1.131a.316.316,0,0,0,.445-.051,35.12,35.12,0,0,0,3.934-4.691c.324-.483.311-.47-.032-.947-.6-.82-1.176-1.659-1.754-2.492a3.887,3.887,0,0,1-.216-.4c.254,0,.426-.013.6,0,1.023.114,2.04.222,3.064.356a.506.506,0,0,0,.623-.343,38.844,38.844,0,0,0,2.059-5.72.48.48,0,0,0-.242-.61c-.826-.547-1.633-1.119-2.447-1.691a5.9,5.9,0,0,1-.508-.439,7.166,7.166,0,0,1,.775-.286c.909-.235,1.824-.464,2.739-.674.242-.057.394-.146.4-.419a9.317,9.317,0,0,1,.108-1.023v.483h.006Z" transform="translate(-365.643 -261.251)" fill="#c12328"/>
      <path id="Path_55" data-name="Path 55" d="M425.039,293.63v-5.689h-.006v.928h-.019c-.032-.337-.076-.674-.1-1.011-.013-.235-.121-.331-.35-.388-.915-.21-1.831-.439-2.739-.674a7.835,7.835,0,0,1-.814-.3,4.929,4.929,0,0,1,.426-.388c.814-.572,1.621-1.144,2.447-1.691a.573.573,0,0,0,.292-.756c-.515-1.475-1.017-2.956-1.545-4.43-.165-.458-.4-.89-.585-1.347-.083-.216-.191-.248-.413-.222-1.106.146-2.212.273-3.318.4-.127.013-.261,0-.458,0a3,3,0,0,1,.2-.407c.6-.864,1.195-1.735,1.831-2.568a.571.571,0,0,0,.006-.807c-.928-1.17-1.85-2.339-2.8-3.5-.35-.426-.769-.788-1.131-1.2a.374.374,0,0,0-.534-.089c-.972.483-1.958.947-2.943,1.417-.121.057-.248.089-.458.165.07-.318.114-.566.178-.8.229-.839.464-1.672.693-2.511.172-.617.165-.718-.394-1.055-1.424-.858-2.86-1.691-4.3-2.517-.343-.2-.756-.5-1.081-.445s-.559.5-.833.782c-.547.559-1.093,1.125-1.646,1.678a4.5,4.5,0,0,1-.477.362c-.044-.407-.089-.731-.114-1.049-.057-.826-.114-1.659-.165-2.492a.647.647,0,0,0-.559-.686c-1.538-.337-3.07-.706-4.614-1.036-.439-.1-.528-.013-.559.432-.025.4-.165.89.013,1.182.14.229.68.21,1.049.3.807.191,1.614.394,2.428.566a.527.527,0,0,1,.464.553c.076,1.036.165,2.072.222,3.114a.444.444,0,0,0,.343.47c.6.21,1.195.432,1.786.667a.444.444,0,0,0,.553-.121c.769-.788,1.557-1.557,2.32-2.352a.357.357,0,0,1,.528-.076q1.363.829,2.733,1.646a.5.5,0,0,1,.229.674c-.305.979-.572,1.97-.877,2.956a.435.435,0,0,0,.172.559c.5.388.985.807,1.456,1.239a.445.445,0,0,0,.6.07c1.055-.547,2.117-1.068,3.248-1.64.788.979,1.576,1.951,2.352,2.943.057.076.006.305-.07.413-.566.8-1.131,1.6-1.722,2.377a.733.733,0,0,0-.076.928c.292.508.566,1.03.839,1.544a.416.416,0,0,0,.47.248c1.023-.114,2.047-.2,3.064-.343a.548.548,0,0,1,.68.375c.2.47.394.947.578,1.43.172.445.3.909.5,1.341.178.394.057.6-.286.826-.858.547-1.684,1.138-2.536,1.691a.428.428,0,0,0-.235.508c.127.623.235,1.246.35,1.875a.594.594,0,0,0,.515.527c1.017.229,2.021.5,3.032.731.267.064.343.178.343.445-.013,1.087-.013,2.18,0,3.267a.352.352,0,0,1-.331.419c-1.036.242-2.066.508-3.1.75a.506.506,0,0,0-.439.426c-.127.686-.267,1.367-.369,2.053a.483.483,0,0,0,.191.369q1.354.944,2.733,1.856a.371.371,0,0,1,.184.508c-.4,1.036-.788,2.078-1.176,3.127-.076.2-.178.261-.413.229-1.081-.14-2.167-.248-3.242-.375a.435.435,0,0,0-.508.248c-.305.585-.617,1.17-.934,1.742a.461.461,0,0,0,.057.566c.617.852,1.227,1.71,1.843,2.561.121.165.178.305.032.489-.775.947-1.538,1.9-2.32,2.86-1.017-.508-1.977-.979-2.93-1.468-.636-.324-.629-.331-1.169.133-.388.337-.769.686-1.182.992a.469.469,0,0,0-.184.617c.3.972.566,1.951.864,2.917a.472.472,0,0,1-.216.642q-1.354.81-2.695,1.634c-.267.165-.445.019-.616-.146-.642-.623-1.3-1.227-1.894-1.894a1.032,1.032,0,0,0-1.449-.305,7.127,7.127,0,0,1-1.3.489.411.411,0,0,0-.331.439c-.051,1-.14,2-.2,3a.7.7,0,0,1-.648.737c-1.1.229-2.193.483-3.375.75.019.439.019.947.076,1.456.032.28.28.273.5.235.7-.121,1.4-.229,2.091-.394.883-.2,1.748-.458,2.625-.686a.5.5,0,0,0,.445-.489c.076-1.023.178-2.047.273-3.07.019-.191.051-.381.089-.648.229.2.426.343.591.515.712.725,1.411,1.456,2.117,2.186.121.127.216.242.432.133a45.721,45.721,0,0,0,5.282-3.025.705.705,0,0,0,.311-.9c-.267-.928-.515-1.862-.763-2.8-.044-.172-.07-.35-.127-.629.445.191.82.324,1.176.5.763.369,1.513.75,2.263,1.131a.316.316,0,0,0,.445-.051,35.12,35.12,0,0,0,3.934-4.691c.324-.483.311-.47-.032-.947-.6-.82-1.176-1.659-1.754-2.492a3.887,3.887,0,0,1-.216-.4c.254,0,.426-.013.6,0,1.023.114,2.04.222,3.064.356a.506.506,0,0,0,.623-.343,38.844,38.844,0,0,0,2.059-5.72.48.48,0,0,0-.242-.61c-.826-.547-1.633-1.119-2.447-1.691a5.9,5.9,0,0,1-.508-.439,7.166,7.166,0,0,1,.775-.286c.909-.235,1.824-.464,2.739-.674.242-.057.394-.146.4-.419a9.317,9.317,0,0,1,.108-1.023v.483h.006Z" transform="translate(-365.643 -261.251)" fill="none"/>
      <path id="Path_56" data-name="Path 56" d="M385.665,272.667a18.665,18.665,0,0,0-6.61-1.964c-.458-.044-.915-.133-1.386-.2v-9.216c-13.163-.833-29.333,9.566-30.629,27.966v3.756a30.1,30.1,0,0,0,30.6,27.795v-9.311c.763-.1,1.494-.178,2.212-.3a20.368,20.368,0,0,0,13.189-8,20.081,20.081,0,0,0,1.97-21.172,20.648,20.648,0,0,0-9.35-9.35m-20.117,19.3a86.311,86.311,0,0,0,1.157,12.051c-.121.006-.222.025-.324.025-2.225-.013-4.456-.038-6.68-.044a.386.386,0,0,1-.432-.324,37.91,37.91,0,0,1-1.722-7.494c-.165-1.233-.229-2.479-.331-3.725-.013-.153,0-.311,0-.489Zm-8.339-2.542a35.514,35.514,0,0,1,1.017-7.36c.3-1.284.712-2.536,1.068-3.807a.346.346,0,0,1,.394-.28c2.066.013,4.131.013,6.2.019.254,0,.5.038.782.057a101.89,101.89,0,0,0-1.125,11.987H357.21c0-.21,0-.413,0-.617m2.968-13.386c2.53-5.466,6.032-9.839,11.752-12.1a26.579,26.579,0,0,0-2.987,5.848c-.706,2.066-1.309,4.163-1.964,6.248Zm5.943-10.856c-.464.426-.947.839-1.4,1.271a28.668,28.668,0,0,0-6.076,8.784c-.394.858-.388.864-1.316.858-1.246-.006-2.5-.013-3.744-.025-.127,0-.261-.019-.508-.038a27.85,27.85,0,0,1,13.042-10.85m-16.92,21.28a27.855,27.855,0,0,1,2.612-8.174c.064-.127.222-.292.337-.292,1.773-.019,3.547-.013,5.384-.013a43.267,43.267,0,0,0-2.212,12.07h-6.566c.152-1.22.267-2.409.445-3.591m2.631,17.339a28.705,28.705,0,0,1-2.67-8.466c-.159-1.112-.261-2.231-.388-3.337a.681.681,0,0,1,.165-.051c1.97.013,3.941.038,5.911.038.4,0,.508.159.534.534.076,1.144.165,2.294.292,3.439a41.313,41.313,0,0,0,1.71,7.684c.038.114.064.229.114.407h-1.087c-1.386,0-2.765-.006-4.15.006a.411.411,0,0,1-.432-.254m14,12.992a27.918,27.918,0,0,1-12.725-10.812c.362-.019.648-.051.934-.051,1.309-.013,2.619-.006,3.928-.025.229-.006.311.1.4.28a39.325,39.325,0,0,0,2.848,5.206,32.455,32.455,0,0,0,4.195,4.85c.165.165.35.305.521.451a.512.512,0,0,0-.1.1M360.171,306c2.339-.159,4.608-.064,6.788-.1.667,2.148,1.278,4.259,1.983,6.337a26.08,26.08,0,0,0,2.975,5.822c-5.727-2.218-9.2-6.61-11.746-12.057m15.572,12.731c-.032.032-.064.057-.1.089a11.864,11.864,0,0,1-1.112-.718,11.123,11.123,0,0,1-2.981-3.947,35.537,35.537,0,0,1-2.485-7.309c-.07-.273-.14-.54-.235-.89h5.091v-1.907h-.407c-1.557,0-3.108-.006-4.665.006-.261,0-.4-.051-.432-.343-.273-2.479-.585-4.958-.826-7.436-.121-1.278-.114-2.568-.165-3.852-.006-.146,0-.286,0-.464h6.483v-1.881h-6.489a77.517,77.517,0,0,1,1.049-12.083h5.472c0-.591.013-1.15-.013-1.7-.006-.07-.2-.178-.311-.178-1.259-.025-2.517-.032-3.782-.038h-1c.083-.337.153-.617.222-.89a36.8,36.8,0,0,1,1.824-5.841,15.9,15.9,0,0,1,2.193-3.966,6.987,6.987,0,0,1,2.377-2.034c.076-.032.153-.057.28-.1v55.488Zm1.919-9.108v-.426c0-3.464.006-6.928-.006-10.392,0-.318.1-.432.407-.5a7.459,7.459,0,0,0,5.79-5.4c.864-2.968-.178-5.434-2.377-7.468a6.687,6.687,0,0,0-3.47-1.722c-.235-.038-.35-.114-.35-.394.013-3.54.006-7.074.006-10.615a2.171,2.171,0,0,1,.025-.286,18.63,18.63,0,0,1-.025,37.208m.025-13.151V285.557a5.226,5.226,0,0,1,4.6,5.231c.108,2.917-2.123,5.67-4.6,5.682" transform="translate(-347.04 -261.237)" fill="#c12328"/>
      <path id="Path_57" data-name="Path 57" d="M385.665,272.667a18.665,18.665,0,0,0-6.61-1.964c-.458-.044-.915-.133-1.386-.2v-9.216c-13.163-.833-29.333,9.566-30.629,27.966v3.756a30.1,30.1,0,0,0,30.6,27.795v-9.311c.763-.1,1.494-.178,2.212-.3a20.368,20.368,0,0,0,13.189-8,20.081,20.081,0,0,0,1.97-21.172A20.648,20.648,0,0,0,385.665,272.667Zm-20.117,19.3a86.311,86.311,0,0,0,1.157,12.051c-.121.006-.222.025-.324.025-2.225-.013-4.456-.038-6.68-.044a.386.386,0,0,1-.432-.324,37.91,37.91,0,0,1-1.722-7.494c-.165-1.233-.229-2.479-.331-3.725-.013-.153,0-.311,0-.489Zm-8.339-2.542a35.514,35.514,0,0,1,1.017-7.36c.3-1.284.712-2.536,1.068-3.807a.346.346,0,0,1,.394-.28c2.066.013,4.131.013,6.2.019.254,0,.5.038.782.057a101.89,101.89,0,0,0-1.125,11.987H357.21C357.21,289.828,357.21,289.625,357.21,289.421Zm2.968-13.386c2.53-5.466,6.032-9.839,11.752-12.1a26.579,26.579,0,0,0-2.987,5.848c-.706,2.066-1.309,4.163-1.964,6.248Zm5.943-10.856c-.464.426-.947.839-1.4,1.271a28.668,28.668,0,0,0-6.076,8.784c-.394.858-.388.864-1.316.858-1.246-.006-2.5-.013-3.744-.025-.127,0-.261-.019-.508-.038A27.85,27.85,0,0,1,366.121,265.18Zm-16.92,21.28a27.855,27.855,0,0,1,2.612-8.174c.064-.127.222-.292.337-.292,1.773-.019,3.547-.013,5.384-.013a43.267,43.267,0,0,0-2.212,12.07h-6.566C348.909,288.83,349.023,287.642,349.2,286.459Zm2.631,17.339a28.705,28.705,0,0,1-2.67-8.466c-.159-1.112-.261-2.231-.388-3.337a.681.681,0,0,1,.165-.051c1.97.013,3.941.038,5.911.038.4,0,.508.159.534.534.076,1.144.165,2.294.292,3.439a41.313,41.313,0,0,0,1.71,7.684c.038.114.064.229.114.407h-1.087c-1.386,0-2.765-.006-4.15.006A.411.411,0,0,1,351.832,303.8Zm14,12.992a27.918,27.918,0,0,1-12.725-10.812c.362-.019.648-.051.934-.051,1.309-.013,2.619-.006,3.928-.025.229-.006.311.1.4.28a39.325,39.325,0,0,0,2.848,5.206,32.455,32.455,0,0,0,4.195,4.85c.165.165.35.305.521.451A.512.512,0,0,0,365.835,316.79ZM360.171,306c2.339-.159,4.608-.064,6.788-.1.667,2.148,1.278,4.259,1.983,6.337a26.08,26.08,0,0,0,2.975,5.822C366.191,315.837,362.72,311.445,360.171,306Zm15.572,12.731c-.032.032-.064.057-.1.089a11.864,11.864,0,0,1-1.112-.718,11.123,11.123,0,0,1-2.981-3.947,35.537,35.537,0,0,1-2.485-7.309c-.07-.273-.14-.54-.235-.89h5.091v-1.907h-.407c-1.557,0-3.108-.006-4.665.006-.261,0-.4-.051-.432-.343-.273-2.479-.585-4.958-.826-7.436-.121-1.278-.114-2.568-.165-3.852-.006-.146,0-.286,0-.464h6.483v-1.881h-6.489a77.517,77.517,0,0,1,1.049-12.083h5.472c0-.591.013-1.15-.013-1.7-.006-.07-.2-.178-.311-.178-1.259-.025-2.517-.032-3.782-.038h-1c.083-.337.153-.617.222-.89a36.8,36.8,0,0,1,1.824-5.841,15.9,15.9,0,0,1,2.193-3.966,6.987,6.987,0,0,1,2.377-2.034c.076-.032.153-.057.28-.1v55.488Zm1.919-9.108v-.426c0-3.464.006-6.928-.006-10.392,0-.318.1-.432.407-.5a7.459,7.459,0,0,0,5.79-5.4c.864-2.968-.178-5.434-2.377-7.468a6.687,6.687,0,0,0-3.47-1.722c-.235-.038-.35-.114-.35-.394.013-3.54.006-7.074.006-10.615a2.171,2.171,0,0,1,.025-.286,18.63,18.63,0,0,1-.025,37.208Zm.025-13.151V285.557a5.226,5.226,0,0,1,4.6,5.231C382.392,293.705,380.161,296.457,377.689,296.47Z" transform="translate(-347.04 -261.237)" fill="none"/>
      <path id="Path_58" data-name="Path 58" d="M448.01,357.2c.019-.5.019-.5.585-.515v.515Z" transform="translate(-383.834 -296.02)" fill="#c12328"/>
      <path id="Path_59" data-name="Path 59" d="M448.01,357.2c.019-.5.019-.5.585-.515v.515Z" transform="translate(-383.834 -296.02)" fill="none"/>
      <path id="Path_60" data-name="Path 60" d="M398.251,314.42c-.1-.559-.191-1.049-.248-1.544a.385.385,0,0,1,.2-.273c.617-.286,1.246-.566,1.875-.826a.363.363,0,0,0,.242-.426c-.032-.82-.051-1.64-.089-2.46a.471.471,0,0,1,.248-.477c.578-.394,1.131-.814,1.7-1.208a.5.5,0,0,1,.381-.057c.744.248,1.481.508,2.212.788a.471.471,0,0,0,.674-.191c.159-.261.381-.477.559-.725.343-.464.35-.648.013-1.119-.394-.547-.807-1.081-1.22-1.608a.544.544,0,0,1-.108-.6c.216-.6.413-1.2.585-1.811a.636.636,0,0,1,.483-.483c.763-.229,1.519-.47,2.282-.693.216-.064.3-.153.292-.375q-.029-.753,0-1.506c.006-.216-.083-.3-.273-.356-.731-.21-1.449-.445-2.18-.655a.794.794,0,0,1-.636-.617,16.731,16.731,0,0,0-.553-1.71.563.563,0,0,1,.121-.629c.381-.477.75-.966,1.119-1.456.445-.6.445-.794-.025-1.386-.051-.07-.108-.133-.159-.2-.572-.731-.572-.731-1.43-.407-.572.216-1.15.419-1.729.6a.57.57,0,0,1-.419-.057c-.559-.375-1.087-.794-1.646-1.163a.586.586,0,0,1-.292-.6c.051-.769.057-1.538.1-2.307a.42.42,0,0,0-.292-.5c-.6-.242-1.182-.521-1.78-.775a.364.364,0,0,1-.254-.458c.07-.337.146-.674.184-1.011.044-.362.242-.419.534-.305.458.172.922.343,1.367.54.617.273,1.208.585,1.824.864a.424.424,0,0,1,.286.477c-.044.864-.07,1.735-.1,2.606a.711.711,0,0,0,.871.636c.807-.286,1.614-.572,2.415-.871a.42.42,0,0,1,.515.1,17.9,17.9,0,0,1,2.542,3.4.479.479,0,0,1-.044.6c-.458.617-.922,1.233-1.367,1.862-.47.667-.35,1.061.432,1.328.648.222,1.309.407,1.964.6a.759.759,0,0,1,.623.826c-.019,1.233-.013,2.466-.013,3.706a.6.6,0,0,1-.458.629l-1.818.572a3.78,3.78,0,0,0-.451.153c-.591.254-.712.636-.343,1.163q.686.972,1.411,1.926a.557.557,0,0,1,.044.7,18.744,18.744,0,0,1-2.453,3.286.493.493,0,0,1-.61.14c-.788-.292-1.589-.566-2.384-.845a.716.716,0,0,0-.877.629c.032.883.064,1.761.1,2.638.006.191-.013.318-.216.407-.9.4-1.8.833-2.708,1.227-.318.121-.661.172-1.03.273" transform="translate(-365.607 -269.818)" fill="#c12328"/>
      <path id="Path_61" data-name="Path 61" d="M398.251,314.42c-.1-.559-.191-1.049-.248-1.544a.385.385,0,0,1,.2-.273c.617-.286,1.246-.566,1.875-.826a.363.363,0,0,0,.242-.426c-.032-.82-.051-1.64-.089-2.46a.471.471,0,0,1,.248-.477c.578-.394,1.131-.814,1.7-1.208a.5.5,0,0,1,.381-.057c.744.248,1.481.508,2.212.788a.471.471,0,0,0,.674-.191c.159-.261.381-.477.559-.725.343-.464.35-.648.013-1.119-.394-.547-.807-1.081-1.22-1.608a.544.544,0,0,1-.108-.6c.216-.6.413-1.2.585-1.811a.636.636,0,0,1,.483-.483c.763-.229,1.519-.47,2.282-.693.216-.064.3-.153.292-.375q-.029-.753,0-1.506c.006-.216-.083-.3-.273-.356-.731-.21-1.449-.445-2.18-.655a.794.794,0,0,1-.636-.617,16.731,16.731,0,0,0-.553-1.71.563.563,0,0,1,.121-.629c.381-.477.75-.966,1.119-1.456.445-.6.445-.794-.025-1.386-.051-.07-.108-.133-.159-.2-.572-.731-.572-.731-1.43-.407-.572.216-1.15.419-1.729.6a.57.57,0,0,1-.419-.057c-.559-.375-1.087-.794-1.646-1.163a.586.586,0,0,1-.292-.6c.051-.769.057-1.538.1-2.307a.42.42,0,0,0-.292-.5c-.6-.242-1.182-.521-1.78-.775a.364.364,0,0,1-.254-.458c.07-.337.146-.674.184-1.011.044-.362.242-.419.534-.305.458.172.922.343,1.367.54.617.273,1.208.585,1.824.864a.424.424,0,0,1,.286.477c-.044.864-.07,1.735-.1,2.606a.711.711,0,0,0,.871.636c.807-.286,1.614-.572,2.415-.871a.42.42,0,0,1,.515.1,17.9,17.9,0,0,1,2.542,3.4.479.479,0,0,1-.044.6c-.458.617-.922,1.233-1.367,1.862-.47.667-.35,1.061.432,1.328.648.222,1.309.407,1.964.6a.759.759,0,0,1,.623.826c-.019,1.233-.013,2.466-.013,3.706a.6.6,0,0,1-.458.629l-1.818.572a3.78,3.78,0,0,0-.451.153c-.591.254-.712.636-.343,1.163q.686.972,1.411,1.926a.557.557,0,0,1,.044.7,18.744,18.744,0,0,1-2.453,3.286.493.493,0,0,1-.61.14c-.788-.292-1.589-.566-2.384-.845a.716.716,0,0,0-.877.629c.032.883.064,1.761.1,2.638.006.191-.013.318-.216.407-.9.4-1.8.833-2.708,1.227C398.963,314.268,398.62,314.319,398.251,314.42Z" transform="translate(-365.607 -269.818)" fill="none"/>
    </g>
  </g>
</svg>
