<svg xmlns="http://www.w3.org/2000/svg" width="106.316" height="101" viewBox="0 0 106.316 101">
  <g id="Group_306" data-name="Group 306" transform="translate(-806 -826)">
    <g id="Rectangle_9" data-name="Rectangle 9" transform="translate(806 826)" fill="#c12328" stroke="#707070" stroke-width="1" opacity="0.06">
      <rect width="106.316" height="101" rx="16" stroke="none"/>
      <rect x="0.5" y="0.5" width="105.316" height="100" rx="15.5" fill="none"/>
    </g>
    <g id="Group_11" data-name="Group 11" transform="translate(829.659 842.372)">
      <path id="Path_14" data-name="Path 14" d="M123.948-411.311a6.55,6.55,0,0,0-5.449,7.5,6.56,6.56,0,0,0,7.482,5.469,6.581,6.581,0,0,0,5.469-7.515,6.575,6.575,0,0,0-7.5-5.449m1.635,10.372a3.934,3.934,0,0,1-4.5-3.269,3.929,3.929,0,0,1,3.256-4.512,3.948,3.948,0,0,1,4.525,3.276,3.96,3.96,0,0,1-3.283,4.505" transform="translate(-93.681 436.667)" fill="#c12328"/>
      <path id="Path_15" data-name="Path 15" d="M136.046-418.263c-1.449-.126-2.9-.272-4.359-.365-.492-.033-.851-.146-1.023-.638a.914.914,0,0,0-.153-.239.373.373,0,0,1-.04-.405c.591-1.455,1.176-2.917,1.761-4.372a1.347,1.347,0,0,0-.518-1.827l-3.827-2.771a1.318,1.318,0,0,0-1.874.066c-1.123.944-2.253,1.88-3.362,2.837a.806.806,0,0,1-.97.226,1.212,1.212,0,0,0-.379-.086.354.354,0,0,1-.319-.253c-.618-1.475-1.249-2.937-1.874-4.412a1.317,1.317,0,0,0-1.568-.87q-2.412.379-4.824.771a1.31,1.31,0,0,0-1.183,1.262c-.047.505-.086,1.01-.133,1.522-.033-.007.066,3.229-.5,3.635-.033.027-.08.04-.113.066a1.218,1.218,0,0,1-1.5.12c-1.256-.552-2.538-1.037-3.807-1.548a1.313,1.313,0,0,0-1.761.505q-1.415,1.944-2.817,3.887a1.3,1.3,0,0,0,.073,1.827q1.535,1.824,3.077,3.648a.317.317,0,0,1,.08.372.978.978,0,0,0-.086.352c-.007.472-.292.671-.7.837-1.356.552-2.7,1.143-4.047,1.714a1.307,1.307,0,0,0-.864,1.568c.252,1.6.512,3.2.764,4.8a1.3,1.3,0,0,0,1.316,1.209c1.595.14,3.183.279,4.771.405a.359.359,0,0,1,.326.206,2.318,2.318,0,0,0,.306.512.54.54,0,0,1,.053.658c-.585,1.415-1.15,2.831-1.714,4.246a1.322,1.322,0,0,0,.518,1.8c1.3.944,2.611,1.887,3.914,2.831a1.3,1.3,0,0,0,1.728-.06c1.236-1.037,2.478-2.073,3.708-3.116a.309.309,0,0,1,.372-.08.236.236,0,0,0,.073.02c.286.086.684.027.837.233a5.566,5.566,0,0,1,.552,1.209c.02.04,1.356,3.236,1.369,3.229a.925.925,0,0,1,.06.113,1.33,1.33,0,0,0,1.635.877l4.718-.751a1.329,1.329,0,0,0,1.229-1.309c.126-1.449.266-2.9.365-4.359.033-.452.113-.811.591-.97a1.131,1.131,0,0,0,.306-.193.29.29,0,0,1,.332-.033c1.5.611,3.01,1.209,4.518,1.814a1.28,1.28,0,0,0,1.641-.458q1.445-1.983,2.884-3.974a1.322,1.322,0,0,0-.066-1.794c-.924-1.1-1.841-2.219-2.791-3.3a.963.963,0,0,1-.272-1.169.808.808,0,0,0,.06-.279.354.354,0,0,1,.259-.319c1.482-.625,2.957-1.256,4.432-1.88a1.324,1.324,0,0,0,.851-1.535q-.379-2.422-.777-4.851a1.3,1.3,0,0,0-1.256-1.156m-.731,5.256a.274.274,0,0,1-.2.365c-1.4.585-2.777,1.183-4.166,1.774a1.292,1.292,0,0,0-.817,1.043,13.261,13.261,0,0,1-.5,2.086,1.357,1.357,0,0,0,.292,1.389c.963,1.13,1.907,2.273,2.871,3.4a.267.267,0,0,1,.013.412c-.485.651-.963,1.309-1.429,1.98-.146.219-.266.233-.5.14-1.336-.558-2.684-1.09-4.027-1.641a1.41,1.41,0,0,0-1.482.159,12.477,12.477,0,0,1-1.8,1.11,1.336,1.336,0,0,0-.738,1.156c-.12,1.462-.259,2.924-.365,4.386-.02.259-.106.339-.359.372-.8.113-1.608.246-2.412.385-.179.033-.266.007-.346-.179-.571-1.369-1.163-2.731-1.748-4.093a1.382,1.382,0,0,0-1.15-.91,12.263,12.263,0,0,1-2.007-.485,1.4,1.4,0,0,0-1.415.3c-1.143.97-2.3,1.934-3.442,2.91a.2.2,0,0,1-.306.013c-.7-.512-1.4-1.023-2.106-1.522a.247.247,0,0,1-.106-.359c.552-1.349,1.083-2.711,1.641-4.053a1.51,1.51,0,0,0-.2-1.641,9.009,9.009,0,0,1-.983-1.6,1.409,1.409,0,0,0-1.256-.837c-1.468-.113-2.937-.246-4.412-.372-.166-.013-.252-.047-.279-.246-.12-.851-.259-1.694-.405-2.545-.027-.166,0-.246.159-.312,1.362-.571,2.711-1.156,4.073-1.728a1.432,1.432,0,0,0,.963-1.2,9.951,9.951,0,0,1,.452-1.907,1.451,1.451,0,0,0-.306-1.508c-.957-1.123-1.9-2.259-2.851-3.382-.113-.14-.133-.219-.02-.372.518-.691,1.017-1.4,1.528-2.1.04-.053.066-.126.14-.153l.146.06c1.375.558,2.758,1.1,4.126,1.668a1.466,1.466,0,0,0,1.555-.173,11.652,11.652,0,0,1,1.714-1.056,1.381,1.381,0,0,0,.784-1.183c.126-1.488.266-2.977.385-4.459.013-.2.086-.259.272-.279.831-.126,1.661-.259,2.485-.4.179-.033.272-.007.346.179.571,1.362,1.156,2.711,1.728,4.073a1.4,1.4,0,0,0,1.183.937,10.876,10.876,0,0,1,1.954.472,1.412,1.412,0,0,0,1.455-.306c1.13-.964,2.266-1.914,3.4-2.877.133-.113.213-.12.346-.013.7.518,1.4,1.03,2.1,1.528.14.1.146.173.086.319-.558,1.375-1.1,2.758-1.668,4.126a1.4,1.4,0,0,0,.173,1.5,10.807,10.807,0,0,1,1.057,1.714,1.406,1.406,0,0,0,1.269.817c1.462.113,2.924.253,4.379.365.206.013.272.093.3.286.159.817.286,1.641.432,2.459" transform="translate(-86.968 443.38)" fill="#c12328"/>
      <path id="Path_16" data-name="Path 16" d="M123.948-411.311a6.55,6.55,0,0,0-5.449,7.5,6.56,6.56,0,0,0,7.482,5.469,6.576,6.576,0,0,0,5.469-7.515,6.575,6.575,0,0,0-7.5-5.449m1.635,10.372a3.934,3.934,0,0,1-4.5-3.269,3.929,3.929,0,0,1,3.256-4.512,3.953,3.953,0,0,1,4.525,3.276,3.96,3.96,0,0,1-3.283,4.505" transform="translate(-93.681 436.667)" fill="#c12328"/>
      <path id="Path_17" data-name="Path 17" d="M123.948-411.311a6.55,6.55,0,0,0-5.449,7.5,6.56,6.56,0,0,0,7.482,5.469,6.576,6.576,0,0,0,5.469-7.515,6.575,6.575,0,0,0-7.5-5.449m1.635,10.372a3.934,3.934,0,0,1-4.5-3.269,3.929,3.929,0,0,1,3.256-4.512,3.953,3.953,0,0,1,4.525,3.276,3.96,3.96,0,0,1-3.283,4.505" transform="translate(-93.681 436.667)" fill="#c12328"/>
      <path id="Path_18" data-name="Path 18" d="M82.619-407.941a31.267,31.267,0,0,1-1.429-9.382,31.3,31.3,0,0,1,31.3-31.3,31.2,31.2,0,0,1,17.861,5.588c.771.538,1.515,1.11,2.233,1.708" transform="translate(-81.19 449.158)" fill="none" stroke="#c12328" stroke-linecap="round" stroke-miterlimit="10" stroke-width="3"/>
      <path id="Path_19" data-name="Path 19" d="M142.129-427.21a31.135,31.135,0,0,1,5.063,17.07,31.3,31.3,0,0,1-31.3,31.3A31.245,31.245,0,0,1,91.37-390.7" transform="translate(-84.606 441.975)" fill="none" stroke="#c12328" stroke-linecap="round" stroke-miterlimit="10" stroke-width="3"/>
      <path id="Path_20" data-name="Path 20" d="M154.837-449.43v7.774l-8.007,2.9" transform="translate(-103.214 449.43)" fill="none" stroke="#c12328" stroke-linecap="round" stroke-miterlimit="10" stroke-width="3"/>
      <path id="Path_21" data-name="Path 21" d="M91.66-365.959v-7.774l8.007-2.9" transform="translate(-84.703 425.004)" fill="none" stroke="#c12328" stroke-linecap="round" stroke-miterlimit="10" stroke-width="3"/>
    </g>
  </g>
</svg>
