<svg xmlns="http://www.w3.org/2000/svg" width="106.316" height="101" viewBox="0 0 106.316 101">
  <g id="Group_309" data-name="Group 309" transform="translate(-806 -1123)">
    <g id="Rectangle_199" data-name="Rectangle 199" transform="translate(806 1123)" fill="#c12328" stroke="#707070" stroke-width="1" opacity="0.06">
      <rect width="106.316" height="101" rx="16" stroke="none"/>
      <rect x="0.5" y="0.5" width="105.316" height="100" rx="15.5" fill="none"/>
    </g>
    <g id="Group_13" data-name="Group 13" transform="translate(836.48 1146.363)">
      <path id="Path_37" data-name="Path 37" d="M422.45-47.952v-1.415c0-1.038,1.123-1.884,2.508-1.884h3.908c1.385,0,2.508-.841,2.508-1.884V-56.64" transform="translate(-387.95 71.613)" fill="none" stroke="#c12328" stroke-linecap="round" stroke-miterlimit="10" stroke-width="2"/>
      <path id="Path_38" data-name="Path 38" d="M375.535-47.952v-1.415c0-1.038-1.123-1.884-2.508-1.884h-3.908c-1.385,0-2.508-.841-2.508-1.884V-56.64" transform="translate(-360.234 71.613)" fill="none" stroke="#c12328" stroke-linecap="round" stroke-miterlimit="10" stroke-width="2"/>
      <path id="Path_39" data-name="Path 39" d="M401.845-7.838H364.409a1.954,1.954,0,0,1-1.949-1.949V-37.261a1.954,1.954,0,0,1,1.949-1.949h37.436a1.954,1.954,0,0,1,1.949,1.949V-9.792A1.958,1.958,0,0,1,401.845-7.838Z" transform="translate(-358.174 62.962)" fill="none" stroke="#c12328" stroke-linecap="round" stroke-miterlimit="10" stroke-width="3"/>
      <path id="Path_40" data-name="Path 40" d="M372.466-31.767a1.113,1.113,0,0,1-1.113,1.113,1.113,1.113,0,0,1-1.113-1.113,1.113,1.113,0,0,1,1.113-1.113,1.113,1.113,0,0,1,1.113,1.113" transform="translate(-362.036 59.82)" fill="#c12328"/>
      <path id="Path_41" data-name="Path 41" d="M378.326-31.767a1.113,1.113,0,0,1-1.113,1.113,1.113,1.113,0,0,1-1.113-1.113,1.113,1.113,0,0,1,1.113-1.113,1.113,1.113,0,0,1,1.113,1.113" transform="translate(-364.944 59.82)" fill="#c12328"/>
      <path id="Path_42" data-name="Path 42" d="M384.186-31.767a1.113,1.113,0,0,1-1.113,1.113,1.113,1.113,0,0,1-1.113-1.113,1.113,1.113,0,0,1,1.113-1.113,1.113,1.113,0,0,1,1.113,1.113" transform="translate(-367.853 59.82)" fill="#c12328"/>
      <line id="Line_1" data-name="Line 1" x2="39.479" transform="translate(5.265 31.347)" fill="none" stroke="#c12328" stroke-linecap="round" stroke-miterlimit="10" stroke-width="3"/>
      <line id="Line_2" data-name="Line 2" y2="13.825" transform="translate(24.91 9.927)" fill="none" stroke="#c12328" stroke-linecap="round" stroke-miterlimit="10" stroke-width="2"/>
      <path id="Path_43" data-name="Path 43" d="M364.748-66.583H355.9a1.954,1.954,0,0,1-1.949-1.949v-6.029A1.954,1.954,0,0,1,355.9-76.51h8.849a1.954,1.954,0,0,1,1.949,1.949v6.029A1.951,1.951,0,0,1,364.748-66.583Z" transform="translate(-353.95 81.476)" fill="none" stroke="#c12328" stroke-linecap="round" stroke-miterlimit="10" stroke-width="2"/>
      <line id="Line_3" data-name="Line 3" x2="11.785" transform="translate(0.483 8.396)" fill="none" stroke="#c12328" stroke-linecap="round" stroke-miterlimit="10" stroke-width="2"/>
      <path id="Path_44" data-name="Path 44" d="M401.548-76.443H392.7a1.954,1.954,0,0,1-1.949-1.949v-6.029A1.954,1.954,0,0,1,392.7-86.37h8.849a1.954,1.954,0,0,1,1.949,1.949v6.029A1.954,1.954,0,0,1,401.548-76.443Z" transform="translate(-372.216 86.37)" fill="none" stroke="#c12328" stroke-linecap="round" stroke-miterlimit="10" stroke-width="2"/>
      <line id="Line_4" data-name="Line 4" x2="12.475" transform="translate(18.67 3.329)" fill="none" stroke="#c12328" stroke-linecap="round" stroke-miterlimit="10" stroke-width="2"/>
      <path id="Path_45" data-name="Path 45" d="M438.308-66.583h-8.849a1.954,1.954,0,0,1-1.949-1.949v-6.029a1.954,1.954,0,0,1,1.949-1.949h8.849a1.954,1.954,0,0,1,1.949,1.949v6.029A1.954,1.954,0,0,1,438.308-66.583Z" transform="translate(-390.462 81.476)" fill="none" stroke="#c12328" stroke-linecap="round" stroke-miterlimit="10" stroke-width="2"/>
      <line id="Line_5" data-name="Line 5" x2="12.747" transform="translate(37.048 8.396)" fill="none" stroke="#c12328" stroke-linecap="round" stroke-miterlimit="10" stroke-width="2"/>
      <path id="Path_46" data-name="Path 46" d="M400.24-6.141a2.608,2.608,0,0,0-2.171,2.982,2.608,2.608,0,0,0,2.977,2.176,2.62,2.62,0,0,0,2.176-2.992,2.614,2.614,0,0,0-2.982-2.166m.65,4.13a1.568,1.568,0,0,1-1.793-1.3A1.563,1.563,0,0,1,400.391-5.1a1.576,1.576,0,0,1,1.8,1.3,1.574,1.574,0,0,1-1.3,1.788" transform="translate(-375.833 46.563)" fill="#c12328"/>
      <path id="Path_47" data-name="Path 47" d="M400.24-6.141a2.608,2.608,0,0,0-2.171,2.982,2.608,2.608,0,0,0,2.977,2.176,2.62,2.62,0,0,0,2.176-2.992A2.614,2.614,0,0,0,400.24-6.141Zm.65,4.13a1.568,1.568,0,0,1-1.793-1.3A1.563,1.563,0,0,1,400.391-5.1a1.576,1.576,0,0,1,1.8,1.3A1.574,1.574,0,0,1,400.889-2.011Z" transform="translate(-375.833 46.563)" fill="none" stroke="#c12328" stroke-miterlimit="10" stroke-width="1"/>
      <path id="Path_48" data-name="Path 48" d="M402.5-11.442c-.579-.05-1.153-.106-1.733-.146-.2-.01-.337-.055-.408-.252a.278.278,0,0,0-.06-.1.144.144,0,0,1-.015-.161c.237-.579.468-1.158.7-1.743a.535.535,0,0,0-.206-.725l-1.526-1.1a.526.526,0,0,0-.745.025c-.448.378-.9.745-1.34,1.128a.322.322,0,0,1-.383.091.508.508,0,0,0-.151-.035.139.139,0,0,1-.126-.1c-.247-.584-.5-1.168-.745-1.753a.532.532,0,0,0-.625-.348c-.64.1-1.279.2-1.919.307a.517.517,0,0,0-.468.5c-.02.2-.035.4-.055.6-.015,0,.025,1.284-.2,1.445-.015.01-.03.015-.045.025a.484.484,0,0,1-.6.045c-.5-.222-1.012-.413-1.516-.614a.517.517,0,0,0-.7.2L388.512-12.6a.522.522,0,0,0,.03.73l1.224,1.45a.132.132,0,0,1,.035.146.364.364,0,0,0-.035.141c-.005.186-.116.267-.277.332-.539.222-1.073.453-1.612.685a.525.525,0,0,0-.348.625c.1.635.2,1.274.307,1.909a.527.527,0,0,0,.524.483c.635.055,1.264.111,1.9.161a.145.145,0,0,1,.131.081,1.058,1.058,0,0,0,.121.206.212.212,0,0,1,.02.262q-.347.846-.68,1.692a.523.523,0,0,0,.206.715c.519.378,1.038.75,1.556,1.128a.51.51,0,0,0,.685-.025c.494-.413.987-.826,1.476-1.239a.118.118,0,0,1,.146-.03c.01.005.02.005.03.01.111.035.272.01.332.091a2.108,2.108,0,0,1,.217.483c.01.015.539,1.289.544,1.284a.206.206,0,0,1,.025.045.524.524,0,0,0,.65.348l1.879-.3a.526.526,0,0,0,.489-.519c.05-.579.106-1.153.146-1.733.01-.181.045-.322.232-.383a.489.489,0,0,0,.121-.076.115.115,0,0,1,.131-.015c.6.242,1.2.483,1.8.72a.51.51,0,0,0,.655-.181c.383-.529.766-1.053,1.148-1.581a.533.533,0,0,0-.025-.715c-.368-.438-.73-.881-1.108-1.315a.391.391,0,0,1-.111-.468.44.44,0,0,0,.025-.111.135.135,0,0,1,.1-.126c.589-.247,1.179-.5,1.763-.75a.526.526,0,0,0,.337-.609c-.1-.645-.207-1.284-.307-1.929a.492.492,0,0,0-.489-.468m-.287,2.09a.109.109,0,0,1-.081.146c-.554.232-1.108.473-1.657.705a.522.522,0,0,0-.327.413,5.256,5.256,0,0,1-.2.831.536.536,0,0,0,.116.554c.383.448.76.907,1.143,1.355a.11.11,0,0,1,.005.166c-.2.257-.383.519-.569.791-.06.086-.106.091-.2.055-.534-.222-1.068-.433-1.6-.655a.557.557,0,0,0-.589.065,5.464,5.464,0,0,1-.715.443.529.529,0,0,0-.292.463c-.05.579-.1,1.163-.146,1.743-.005.1-.04.136-.141.151-.322.045-.64.1-.957.151a.1.1,0,0,1-.136-.071c-.227-.544-.463-1.088-.7-1.632a.54.54,0,0,0-.458-.363,4.712,4.712,0,0,1-.8-.2.556.556,0,0,0-.564.121c-.453.388-.912.771-1.37,1.158a.079.079,0,0,1-.121.005c-.277-.206-.554-.408-.836-.6a.094.094,0,0,1-.04-.141c.222-.539.428-1.078.655-1.612a.6.6,0,0,0-.081-.655,3.463,3.463,0,0,1-.393-.64.557.557,0,0,0-.5-.332c-.584-.045-1.168-.1-1.753-.146-.065-.005-.1-.02-.111-.1-.045-.337-.1-.675-.161-1.012-.01-.065,0-.1.065-.126.539-.227,1.078-.458,1.622-.685a.575.575,0,0,0,.383-.478,3.975,3.975,0,0,1,.181-.761.583.583,0,0,0-.121-.6c-.383-.448-.755-.9-1.133-1.345-.045-.055-.055-.086-.01-.151.206-.277.408-.559.609-.836.015-.02.025-.05.055-.06.02.005.04.015.06.02.549.222,1.1.438,1.642.665a.589.589,0,0,0,.62-.071,5.28,5.28,0,0,1,.68-.423.556.556,0,0,0,.312-.468c.05-.594.106-1.184.151-1.778.005-.081.035-.1.106-.111.332-.05.66-.1.992-.161.07-.01.106,0,.136.071.227.544.463,1.078.685,1.622a.555.555,0,0,0,.468.373,4.632,4.632,0,0,1,.781.186.556.556,0,0,0,.579-.121c.448-.383.9-.761,1.35-1.148a.093.093,0,0,1,.141-.005c.277.206.554.408.836.609a.089.089,0,0,1,.035.126c-.222.549-.438,1.1-.665,1.642a.555.555,0,0,0,.07.6,4.509,4.509,0,0,1,.423.68.574.574,0,0,0,.5.327c.584.045,1.163.1,1.743.146.081.005.106.035.121.116.035.327.086.655.146.982" transform="translate(-370.613 51.773)" fill="#c12328"/>
      <path id="Path_49" data-name="Path 49" d="M402.5-11.442c-.579-.05-1.153-.106-1.733-.146-.2-.01-.337-.055-.408-.252a.278.278,0,0,0-.06-.1.144.144,0,0,1-.015-.161c.237-.579.468-1.158.7-1.743a.535.535,0,0,0-.206-.725l-1.526-1.1a.526.526,0,0,0-.745.025c-.448.378-.9.745-1.34,1.128a.322.322,0,0,1-.383.091.508.508,0,0,0-.151-.035.139.139,0,0,1-.126-.1c-.247-.584-.5-1.168-.745-1.753a.532.532,0,0,0-.625-.348c-.64.1-1.279.2-1.919.307a.517.517,0,0,0-.468.5c-.02.2-.035.4-.055.6-.015,0,.025,1.284-.2,1.445-.015.01-.03.015-.045.025a.484.484,0,0,1-.6.045c-.5-.222-1.012-.413-1.516-.614a.517.517,0,0,0-.7.2L388.512-12.6a.522.522,0,0,0,.03.73l1.224,1.45a.132.132,0,0,1,.035.146.364.364,0,0,0-.035.141c-.005.186-.116.267-.277.332-.539.222-1.073.453-1.612.685a.525.525,0,0,0-.348.625c.1.635.2,1.274.307,1.909a.527.527,0,0,0,.524.483c.635.055,1.264.111,1.9.161a.145.145,0,0,1,.131.081,1.058,1.058,0,0,0,.121.206.212.212,0,0,1,.02.262q-.347.846-.68,1.692a.523.523,0,0,0,.206.715c.519.378,1.038.75,1.556,1.128a.51.51,0,0,0,.685-.025c.494-.413.987-.826,1.476-1.239a.118.118,0,0,1,.146-.03c.01.005.02.005.03.01.111.035.272.01.332.091a2.108,2.108,0,0,1,.217.483c.01.015.539,1.289.544,1.284a.206.206,0,0,1,.025.045.524.524,0,0,0,.65.348l1.879-.3a.526.526,0,0,0,.489-.519c.05-.579.106-1.153.146-1.733.01-.181.045-.322.232-.383a.489.489,0,0,0,.121-.076.115.115,0,0,1,.131-.015c.6.242,1.2.483,1.8.72a.51.51,0,0,0,.655-.181c.383-.529.766-1.053,1.148-1.581a.533.533,0,0,0-.025-.715c-.368-.438-.73-.881-1.108-1.315a.391.391,0,0,1-.111-.468.44.44,0,0,0,.025-.111.135.135,0,0,1,.1-.126c.589-.247,1.179-.5,1.763-.75a.526.526,0,0,0,.337-.609c-.1-.645-.207-1.284-.307-1.929A.492.492,0,0,0,402.5-11.442Zm-.287,2.09a.109.109,0,0,1-.081.146c-.554.232-1.108.473-1.657.705a.522.522,0,0,0-.327.413,5.256,5.256,0,0,1-.2.831.536.536,0,0,0,.116.554c.383.448.76.907,1.143,1.355a.11.11,0,0,1,.005.166c-.2.257-.383.519-.569.791-.06.086-.106.091-.2.055-.534-.222-1.068-.433-1.6-.655a.557.557,0,0,0-.589.065,5.464,5.464,0,0,1-.715.443.529.529,0,0,0-.292.463c-.05.579-.1,1.163-.146,1.743-.005.1-.04.136-.141.151-.322.045-.64.1-.957.151a.1.1,0,0,1-.136-.071c-.227-.544-.463-1.088-.7-1.632a.54.54,0,0,0-.458-.363,4.712,4.712,0,0,1-.8-.2.556.556,0,0,0-.564.121c-.453.388-.912.771-1.37,1.158a.079.079,0,0,1-.121.005c-.277-.206-.554-.408-.836-.6a.094.094,0,0,1-.04-.141c.222-.539.428-1.078.655-1.612a.6.6,0,0,0-.081-.655,3.463,3.463,0,0,1-.393-.64.557.557,0,0,0-.5-.332c-.584-.045-1.168-.1-1.753-.146-.065-.005-.1-.02-.111-.1-.045-.337-.1-.675-.161-1.012-.01-.065,0-.1.065-.126.539-.227,1.078-.458,1.622-.685a.575.575,0,0,0,.383-.478,3.975,3.975,0,0,1,.181-.761.583.583,0,0,0-.121-.6c-.383-.448-.755-.9-1.133-1.345-.045-.055-.055-.086-.01-.151.206-.277.408-.559.609-.836.015-.02.025-.05.055-.06.02.005.04.015.06.02.549.222,1.1.438,1.642.665a.589.589,0,0,0,.62-.071,5.28,5.28,0,0,1,.68-.423.556.556,0,0,0,.312-.468c.05-.594.106-1.184.151-1.778.005-.081.035-.1.106-.111.332-.05.66-.1.992-.161.07-.01.106,0,.136.071.227.544.463,1.078.685,1.622a.555.555,0,0,0,.468.373,4.632,4.632,0,0,1,.781.186.556.556,0,0,0,.579-.121c.448-.383.9-.761,1.35-1.148a.093.093,0,0,1,.141-.005c.277.206.554.408.836.609a.089.089,0,0,1,.035.126c-.222.549-.438,1.1-.665,1.642a.555.555,0,0,0,.07.6,4.509,4.509,0,0,1,.423.68.574.574,0,0,0,.5.327c.584.045,1.163.1,1.743.146.081.005.106.035.121.116C402.106-10.006,402.156-9.679,402.217-9.352Z" transform="translate(-370.613 51.773)" fill="none"/>
      <path id="Path_50" data-name="Path 50" d="M400.24-6.141a2.608,2.608,0,0,0-2.171,2.982,2.608,2.608,0,0,0,2.977,2.176,2.62,2.62,0,0,0,2.176-2.992,2.614,2.614,0,0,0-2.982-2.166m.65,4.13a1.568,1.568,0,0,1-1.793-1.3A1.563,1.563,0,0,1,400.391-5.1a1.576,1.576,0,0,1,1.8,1.3,1.574,1.574,0,0,1-1.3,1.788" transform="translate(-375.833 46.563)" fill="#c12328"/>
      <path id="Path_51" data-name="Path 51" d="M400.24-6.141a2.608,2.608,0,0,0-2.171,2.982,2.608,2.608,0,0,0,2.977,2.176,2.62,2.62,0,0,0,2.176-2.992A2.614,2.614,0,0,0,400.24-6.141Zm.65,4.13a1.568,1.568,0,0,1-1.793-1.3A1.563,1.563,0,0,1,400.391-5.1a1.576,1.576,0,0,1,1.8,1.3A1.574,1.574,0,0,1,400.889-2.011Z" transform="translate(-375.833 46.563)" fill="none" stroke="#c12328" stroke-miterlimit="10" stroke-width="1"/>
      <path id="Path_52" data-name="Path 52" d="M400.24-6.141a2.608,2.608,0,0,0-2.171,2.982,2.608,2.608,0,0,0,2.977,2.176,2.62,2.62,0,0,0,2.176-2.992,2.614,2.614,0,0,0-2.982-2.166m.65,4.13a1.568,1.568,0,0,1-1.793-1.3A1.563,1.563,0,0,1,400.391-5.1a1.576,1.576,0,0,1,1.8,1.3,1.574,1.574,0,0,1-1.3,1.788" transform="translate(-375.833 46.563)" fill="#c12328"/>
      <path id="Path_53" data-name="Path 53" d="M400.24-6.141a2.608,2.608,0,0,0-2.171,2.982,2.608,2.608,0,0,0,2.977,2.176,2.62,2.62,0,0,0,2.176-2.992A2.614,2.614,0,0,0,400.24-6.141Zm.65,4.13a1.568,1.568,0,0,1-1.793-1.3A1.563,1.563,0,0,1,400.391-5.1a1.576,1.576,0,0,1,1.8,1.3A1.574,1.574,0,0,1,400.889-2.011Z" transform="translate(-375.833 46.563)" fill="none"/>
    </g>
  </g>
</svg>
