<svg xmlns="http://www.w3.org/2000/svg" xmlns:xlink="http://www.w3.org/1999/xlink" width="88.702" height="85.332" viewBox="0 0 88.702 85.332">
  <defs>
    <clipPath id="clip-path">
      <rect id="SVGID" width="85.332" height="85.332" fill="none"/>
    </clipPath>
  </defs>
  <g id="Group_63" data-name="Group 63" transform="translate(3922.621 1597.894)">
    <g id="Group_62" data-name="Group 62" transform="translate(-3922.621 -1597.894)" opacity="0.1">
      <g id="Group_61" data-name="Group 61">
        <g id="Group_60" data-name="Group 60" clip-path="url(#clip-path)">
          <path id="Path_303" data-name="Path 303" d="M-3837.289-1555.229a42.666,42.666,0,0,1-42.666,42.666,42.666,42.666,0,0,1-42.666-42.666,42.666,42.666,0,0,1,42.666-42.666,42.667,42.667,0,0,1,42.666,42.666" transform="translate(3922.621 1597.895)" fill="#5a5a5d"/>
        </g>
      </g>
    </g>
    <path id="Path_304" data-name="Path 304" d="M-3818.713-1533.018l6.224-8.3a2.253,2.253,0,0,0,.212-2.359,2.252,2.252,0,0,0-2.014-1.245h-12.062a2.252,2.252,0,0,0-1.8.9l-.239.318a31.3,31.3,0,0,0-29.321-20.518,31.236,31.236,0,0,0-31.2,31.2,31.236,31.236,0,0,0,31.2,31.2,31.3,31.3,0,0,0,29.321-20.518l.239.318a2.251,2.251,0,0,0,1.8.9h12.062a2.253,2.253,0,0,0,2.014-1.245,2.253,2.253,0,0,0-.212-2.359Zm-13.032,6.214a26.76,26.76,0,0,1-25.969,20.483,26.726,26.726,0,0,1-26.7-26.7,26.726,26.726,0,0,1,26.7-26.7,26.76,26.76,0,0,1,25.969,20.483l-2.43,3.24-.541.721h-1.564a21.581,21.581,0,0,0-21.434-19.3,21.575,21.575,0,0,0-21.551,21.551,21.575,21.575,0,0,0,21.551,21.551,21.581,21.581,0,0,0,21.434-19.3h1.564l.541.721Zm-14.283-8.466a11.92,11.92,0,0,0-11.686-9.65,11.915,11.915,0,0,0-11.9,11.9,11.915,11.915,0,0,0,11.9,11.9,11.92,11.92,0,0,0,11.686-9.65h5.213a17.072,17.072,0,0,1-16.9,14.795,17.066,17.066,0,0,1-17.046-17.047,17.066,17.066,0,0,1,17.046-17.047,17.072,17.072,0,0,1,16.9,14.795Zm-11.686,4.5h7.046a7.409,7.409,0,0,1-7.046,5.145,7.406,7.406,0,0,1-7.4-7.4,7.406,7.406,0,0,1,7.4-7.4,7.41,7.41,0,0,1,7.046,5.145h-7.046a2.252,2.252,0,0,0-2.252,2.252,2.252,2.252,0,0,0,2.252,2.252m34.384-.9,4.534,6.046h-6.431l-5.548-7.4,5.548-7.4h6.431l-4.534,6.046a2.253,2.253,0,0,0,0,2.7" transform="translate(-21.88 -21.86)" fill="#fff"/>
    <path id="Path_305" data-name="Path 305" d="M-3765.159-1497.315l6.224-8.3a2.253,2.253,0,0,0,.212-2.359,2.252,2.252,0,0,0-2.014-1.245H-3772.8a2.253,2.253,0,0,0-1.8.9l-6.021,8.027-.541.721h-23a2.252,2.252,0,0,0-2.252,2.252,2.252,2.252,0,0,0,2.252,2.252h23l.458.1v.506l.083.111,6.021,8.027a2.253,2.253,0,0,0,1.8.9h12.062a2.253,2.253,0,0,0,2.014-1.245,2.253,2.253,0,0,0-.212-2.359Zm-4.617,1.351,4.534,6.046h-6.431l-5.548-7.4,5.548-7.4h6.431l-4.534,6.046a2.253,2.253,0,0,0,0,2.7" transform="translate(-75.433 -57.562)" fill="#b10d1d"/>
  </g>
</svg>
