<svg xmlns="http://www.w3.org/2000/svg" width="106.316" height="101" viewBox="0 0 106.316 101">
  <g id="Group_307" data-name="Group 307" transform="translate(-397.247 -826)">
    <g id="Rectangle_8" data-name="Rectangle 8" transform="translate(397.247 826)" fill="#c12328" stroke="#707070" stroke-width="1" opacity="0.06">
      <rect width="106.316" height="101" rx="16" stroke="none"/>
      <rect x="0.5" y="0.5" width="105.316" height="100" rx="15.5" fill="none"/>
    </g>
    <g id="Group_10" data-name="Group 10" transform="translate(416.516 842.612)">
      <path id="Path_10" data-name="Path 10" d="M146.251-726.523l-3.588-.445a15.807,15.807,0,0,0-3.276-4.917,27.5,27.5,0,0,0-2.04-3.927l3.289-4.253a1.116,1.116,0,0,0-.093-1.475l-6.339-6.339a1.125,1.125,0,0,0-1.482-.093l-4.246,3.289a27.673,27.673,0,0,0-8.625-3.575l-.664-5.329a1.12,1.12,0,0,0-1.11-.983h-8.97a1.114,1.114,0,0,0-1.11.983l-.664,5.329a27.617,27.617,0,0,0-8.632,3.575l-4.246-3.289a1.125,1.125,0,0,0-1.482.093l-6.339,6.339a1.125,1.125,0,0,0-.093,1.482l3.289,4.246a27.761,27.761,0,0,0-3.568,8.631l-5.329.665a1.125,1.125,0,0,0-.983,1.11v8.97a1.114,1.114,0,0,0,.983,1.11l5.329.664a27.7,27.7,0,0,0,3.568,8.632l-3.289,4.246a1.125,1.125,0,0,0,.093,1.482l6.339,6.333a1.125,1.125,0,0,0,1.482.093l4.246-3.3a27.645,27.645,0,0,0,8.632,3.575l.664,5.329a1.125,1.125,0,0,0,1.11.983h8.97a1.114,1.114,0,0,0,1.11-.983l.664-5.336a27.749,27.749,0,0,0,3.834-1.176v3a4.483,4.483,0,0,0,4.485,4.485,4.483,4.483,0,0,0,4.485-4.485v-2.166l.073.06a1.125,1.125,0,0,0,1.482-.093l6.339-6.332a1.125,1.125,0,0,0,.093-1.482l-3.289-4.253a27.47,27.47,0,0,0,2.033-3.927,15.788,15.788,0,0,0,3.269-4.917l3.588-.445a1.131,1.131,0,0,0,1-1.11v-8.97a1.126,1.126,0,0,0-.99-1.11m-27.629,30.891a1.13,1.13,0,0,0-.9.963l-.638,5.143H110.1l-.638-5.143a1.122,1.122,0,0,0-.9-.963,25.474,25.474,0,0,1-9.3-3.847,1.118,1.118,0,0,0-1.309.047l-4.1,3.176-4.937-4.937,3.176-4.1a1.129,1.129,0,0,0,.047-1.309,25.49,25.49,0,0,1-3.847-9.289,1.122,1.122,0,0,0-.963-.9l-5.143-.645v-6.99l5.143-.638a1.13,1.13,0,0,0,.963-.9,25.474,25.474,0,0,1,3.847-9.3,1.129,1.129,0,0,0-.047-1.309l-3.176-4.1,4.937-4.937,4.1,3.176a1.129,1.129,0,0,0,1.309.047,25.441,25.441,0,0,1,9.289-3.847,1.115,1.115,0,0,0,.9-.964l.645-5.136h6.99l.638,5.136a1.122,1.122,0,0,0,.9.964,25.473,25.473,0,0,1,9.3,3.847,1.107,1.107,0,0,0,1.309-.047l4.1-3.176,4.937,4.937-3.176,4.1a1.129,1.129,0,0,0-.047,1.309c.073.106.126.226.2.326a15.561,15.561,0,0,0-11.788-.97,17.766,17.766,0,0,0-9.861-2.964,17.942,17.942,0,0,0-17.941,17.941,17.942,17.942,0,0,0,17.941,17.941,17.772,17.772,0,0,0,9.861-2.97c.445.14.9.252,1.356.352v1.5a1.126,1.126,0,0,0-1.123,1.123v5.788a25.823,25.823,0,0,1-5.063,1.561m-1.861-36.041a11.208,11.208,0,0,0-12.326,4.233,11.208,11.208,0,0,0,0,13.03,11.208,11.208,0,0,0,12.326,4.233,15.7,15.7,0,0,0,4.12,3.143,15.7,15.7,0,0,1-19.469-3.96,15.7,15.7,0,0,1,0-19.868,15.7,15.7,0,0,1,19.469-3.96,15.867,15.867,0,0,0-4.12,3.15m-1.562,1.92a15.645,15.645,0,0,0,0,17.648,8.977,8.977,0,0,1-9.1-3.881,8.971,8.971,0,0,1,0-9.887,8.976,8.976,0,0,1,9.1-3.881m11.854,24.466c.372.027.744.06,1.123.06s.751-.027,1.123-.06v1.176h-2.246Zm3.362,13.515a2.247,2.247,0,0,1-2.246,2.246,2.247,2.247,0,0,1-2.246-2.246v-10.093h4.485v10.093Zm7.847-9.416-4.937,4.937-.671-.518v-6.213a1.122,1.122,0,0,0-1.123-1.123v-1.5a15.692,15.692,0,0,0,3.7-1.329c-.066.106-.126.226-.2.326a1.129,1.129,0,0,0,.047,1.309Zm-10.093-6.286a13.459,13.459,0,0,1-13.456-13.456,13.455,13.455,0,0,1,13.456-13.456,13.459,13.459,0,0,1,13.456,13.456,13.467,13.467,0,0,1-13.456,13.456M145-717.433l-1.581.2a15.087,15.087,0,0,0,0-7.382l1.581.2Z" transform="translate(-79.95 754.57)" fill="#c12328"/>
      <path id="Path_11" data-name="Path 11" d="M146.251-726.523l-3.588-.445a15.807,15.807,0,0,0-3.276-4.917,27.5,27.5,0,0,0-2.04-3.927l3.289-4.253a1.116,1.116,0,0,0-.093-1.475l-6.339-6.339a1.125,1.125,0,0,0-1.482-.093l-4.246,3.289a27.673,27.673,0,0,0-8.625-3.575l-.664-5.329a1.12,1.12,0,0,0-1.11-.983h-8.97a1.114,1.114,0,0,0-1.11.983l-.664,5.329a27.617,27.617,0,0,0-8.632,3.575l-4.246-3.289a1.125,1.125,0,0,0-1.482.093l-6.339,6.339a1.125,1.125,0,0,0-.093,1.482l3.289,4.246a27.761,27.761,0,0,0-3.568,8.631l-5.329.665a1.125,1.125,0,0,0-.983,1.11v8.97a1.114,1.114,0,0,0,.983,1.11l5.329.664a27.7,27.7,0,0,0,3.568,8.632l-3.289,4.246a1.125,1.125,0,0,0,.093,1.482l6.339,6.333a1.125,1.125,0,0,0,1.482.093l4.246-3.3a27.645,27.645,0,0,0,8.632,3.575l.664,5.329a1.125,1.125,0,0,0,1.11.983h8.97a1.114,1.114,0,0,0,1.11-.983l.664-5.336a27.749,27.749,0,0,0,3.834-1.176v3a4.483,4.483,0,0,0,4.485,4.485,4.483,4.483,0,0,0,4.485-4.485v-2.166l.073.06a1.125,1.125,0,0,0,1.482-.093l6.339-6.332a1.125,1.125,0,0,0,.093-1.482l-3.289-4.253a27.47,27.47,0,0,0,2.033-3.927,15.788,15.788,0,0,0,3.269-4.917l3.588-.445a1.131,1.131,0,0,0,1-1.11v-8.97A1.126,1.126,0,0,0,146.251-726.523Zm-27.629,30.891a1.13,1.13,0,0,0-.9.963l-.638,5.143H110.1l-.638-5.143a1.122,1.122,0,0,0-.9-.963,25.474,25.474,0,0,1-9.3-3.847,1.118,1.118,0,0,0-1.309.047l-4.1,3.176-4.937-4.937,3.176-4.1a1.129,1.129,0,0,0,.047-1.309,25.49,25.49,0,0,1-3.847-9.289,1.122,1.122,0,0,0-.963-.9l-5.143-.645v-6.99l5.143-.638a1.13,1.13,0,0,0,.963-.9,25.474,25.474,0,0,1,3.847-9.3,1.129,1.129,0,0,0-.047-1.309l-3.176-4.1,4.937-4.937,4.1,3.176a1.129,1.129,0,0,0,1.309.047,25.441,25.441,0,0,1,9.289-3.847,1.115,1.115,0,0,0,.9-.964l.645-5.136h6.99l.638,5.136a1.122,1.122,0,0,0,.9.964,25.473,25.473,0,0,1,9.3,3.847,1.107,1.107,0,0,0,1.309-.047l4.1-3.176,4.937,4.937-3.176,4.1a1.129,1.129,0,0,0-.047,1.309c.073.106.126.226.2.326a15.561,15.561,0,0,0-11.788-.97,17.766,17.766,0,0,0-9.861-2.964,17.942,17.942,0,0,0-17.941,17.941,17.942,17.942,0,0,0,17.941,17.941,17.772,17.772,0,0,0,9.861-2.97c.445.14.9.252,1.356.352v1.5a1.126,1.126,0,0,0-1.123,1.123v5.788A25.823,25.823,0,0,1,118.622-695.631Zm-1.861-36.041a11.208,11.208,0,0,0-12.326,4.233,11.208,11.208,0,0,0,0,13.03,11.208,11.208,0,0,0,12.326,4.233,15.7,15.7,0,0,0,4.12,3.143,15.7,15.7,0,0,1-19.469-3.96,15.7,15.7,0,0,1,0-19.868,15.7,15.7,0,0,1,19.469-3.96A15.867,15.867,0,0,0,116.762-731.672Zm-1.562,1.92a15.645,15.645,0,0,0,0,17.648,8.977,8.977,0,0,1-9.1-3.881,8.971,8.971,0,0,1,0-9.887A8.976,8.976,0,0,1,115.2-729.752Zm11.854,24.466c.372.027.744.06,1.123.06s.751-.027,1.123-.06v1.176h-2.246Zm3.362,13.515a2.247,2.247,0,0,1-2.246,2.246,2.247,2.247,0,0,1-2.246-2.246v-10.093h4.485v10.093Zm7.847-9.416-4.937,4.937-.671-.518v-6.213a1.122,1.122,0,0,0-1.123-1.123v-1.5a15.692,15.692,0,0,0,3.7-1.329c-.066.106-.126.226-.2.326a1.129,1.129,0,0,0,.047,1.309Zm-10.093-6.286a13.459,13.459,0,0,1-13.456-13.456,13.455,13.455,0,0,1,13.456-13.456,13.459,13.459,0,0,1,13.456,13.456A13.467,13.467,0,0,1,128.171-707.472ZM145-717.433l-1.581.2a15.087,15.087,0,0,0,0-7.382l1.581.2Z" transform="translate(-79.95 754.57)" fill="none"/>
      <path id="Path_12" data-name="Path 12" d="M135.65-709.6a11.227,11.227,0,0,0,11.216,11.216v-2.246a8.967,8.967,0,0,1-8.97-8.97,8.967,8.967,0,0,1,8.97-8.97v-2.246A11.236,11.236,0,0,0,135.65-709.6" transform="translate(-98.639 743.246)" fill="#c12328"/>
      <path id="Path_13" data-name="Path 13" d="M135.65-709.6a11.227,11.227,0,0,0,11.216,11.216v-2.246a8.967,8.967,0,0,1-8.97-8.97,8.967,8.967,0,0,1,8.97-8.97v-2.246A11.236,11.236,0,0,0,135.65-709.6Z" transform="translate(-98.639 743.246)" fill="none"/>
    </g>
  </g>
</svg>
