<svg xmlns="http://www.w3.org/2000/svg" width="373" height="373" viewBox="0 0 373 373">
  <g id="Group_297" data-name="Group 297" transform="translate(-450 -2502)">
    <g id="Ellipse_4" data-name="Ellipse 4" transform="translate(450 2502)" fill="none" stroke="#f37c7e" stroke-width="0.5" opacity="0.34">
      <circle cx="186.5" cy="186.5" r="186.5" stroke="none"/>
      <circle cx="186.5" cy="186.5" r="186.25" fill="none"/>
    </g>
    <g id="Group_296" data-name="Group 296">
      <path id="Path_212" data-name="Path 212" d="M780.307,375.335H959.715a4.089,4.089,0,0,0,4.078-4.078v-.316a4.089,4.089,0,0,0-4.078-4.078H779.478" transform="translate(-243.369 2342.742)" fill="#185abc"/>
      <rect id="Rectangle_161" data-name="Rectangle 161" width="10.97" height="23.481" transform="translate(594.372 2686.124)" fill="#f4b608"/>
      <path id="Path_224" data-name="Path 224" d="M872.864,362.866c.092.009.187.012.28.012H893.6v-3.356a6.863,6.863,0,0,0-6.928-6.756H873.144a3.479,3.479,0,0,0-1.91.567" transform="translate(-269.31 2346.728)" fill="#ffc000"/>
      <path id="Path_233" data-name="Path 233" d="M763.777,233.494c.215,1.825.343,3.772.479,5.818a27.366,27.366,0,0,1-1.757,12.419c-1.131,2.8-1.907,4.719-3.82,5.81a6.836,6.836,0,0,1-4.2.744" transform="translate(-236.301 2380.448)" fill="#fcf2f2"/>
      <path id="Path_459" data-name="Path 459" d="M868.556,353.65s6.012-6.192,8.511-6.746,10.825,1.531,13.27,3.115-1.925,1.914-3.938,1.7-5.7-.1-5.7-.1,4.522,1.075,6.064,2.188,1.173,4.279-1.079,5.8-1.227,3.117-3.475,3.36-4-2.837-7.856-2.99-6.4-.019-6.4-.019l-.637-5.9Z" transform="translate(-268.204 2348.411)" fill="#eea886"/>
      <path id="Path_234" data-name="Path 234" d="M747.376,258.288a1.686,1.686,0,0,0,.054.4l-.751,6.7c-3.208-.241-6.633-.384-10.257-.381q-3.674.005-7.065.194a21.491,21.491,0,0,0,1-2.036c.333-.789.653-1.665.937-2.521a22.739,22.739,0,0,0,1-8.046c-.021-.982.085-2.3-.017-3.781,7.24-1.506,9.583-4.041,10.358-6.123.922-2.479-.148-4.921,1.824-7.08a6.438,6.438,0,0,1,4.292-1.914c2.669-.126,3.677,2.869,5.517,2.518.7-.133,1.592-.723,2.41-2.715" transform="translate(-229.199 2380.448)" fill="#fcf2f2"/>
      <path id="Path_235" data-name="Path 235" d="M746.98,237.732s-4.067,3.972-7.917,5.328-3.945,1.349-3.945,1.349h-1.186l-3.313-.826a45.008,45.008,0,0,1-2.51-4.447,28.365,28.365,0,0,1-3.208-9.5c-.319-2.545-.588-4.961.744-7.356a9.755,9.755,0,0,1,2.878-3.038c6.334-4.784,13.925-4.281,15.229-4.176a15.381,15.381,0,0,1,5.682,1.4,13.61,13.61,0,0,1,4.6,3.826,10.656,10.656,0,0,1,1.733,9.8l-1.152,1.009s-1.25,4.329-1.067,5.481-1.559,1.739-1.526.727-.215-6.9-2.8-6.3S745.967,235.207,746.98,237.732Z" transform="translate(-227.865 2385.677)" fill="#4385f5"/>
      <path id="Path_196" data-name="Path 196" d="M838.679,549.058a2.08,2.08,0,0,1,1.68.843c1.292,1.756,5.1,5.751,13.694,7.053,11.132,1.688,7,5.472,7,5.472s.137,1.86-10.974,1.957c-8.036.072-16.786.039-21.014.016a2.1,2.1,0,0,1-2.039-2.534c.737-3.469,2-9.415,2.252-10.513a2.158,2.158,0,0,0,.05-.318v-.022a2.1,2.1,0,0,1,2.091-1.96Z" transform="translate(-256.798 2291.233)" fill="#185abc"/>
      <path id="Path_192" data-name="Path 192" d="M780.264,440.831l12.087,1.387h0s1.1,48.379,1.335,58.376.622,10.812,1.737,11.305,14.822-.6,14.822-.6l.971-8.3s1.686-18.793,2.419-28.307,2.131-38.7,2.12-45.484-1.213-5.362-14.3-9.616c-6.507-2.117-15.521-4.424-22.939-6.212-1.312-.316-2.576-.615-3.765-.894-5.595-1.315-9.582-2.178-9.582-2.178s-.037.458-.123,1.24h0a32.5,32.5,0,0,1-1.255,9.416c-1.219,4.058-1.967,6.9-4.558,8.875a10.273,10.273,0,0,1-4.375,1.858c-9.8,1.993-22.277.817-33.1.717-1.655-.015-4.431-.015-7.915.12a12.706,12.706,0,0,0,4.857,4.917c4.017,2.174,7.872.971,15.051.42,4.165-.32,8.356.006,12.532-.06C753.034,437.706,763.6,438.192,780.264,440.831Z" transform="translate(-224.813 2330.46)" fill="#185abc"/>
      <path id="Path_193" data-name="Path 193" d="M730.669,537.985,696.982,551.5l-6.548,3.246,2.514,2.091L710.1,551.2l20.807-6.4,3.778-1.272,10.372,11.633,4.145-2.03-6.6-8.884,38.258,12.593,1.793-2.488-37.6-14.9A12.1,12.1,0,0,0,730.669,537.985Z" transform="translate(-218.195 2294.849)" fill="#fbbc04"/>
      <path id="Path_194" data-name="Path 194" d="M820.516,196.613v-53.2a16.525,16.525,0,0,1,16.477-16.477H994.2a16.525,16.525,0,0,1,16.477,16.477V243.592A16.525,16.525,0,0,1,994.2,260.068h-79" transform="translate(-254.971 2410.573)" fill="#fcf2f2"/>
      <line id="Line_7" data-name="Line 7" x1="0.004" transform="translate(513.673 2833.612)" fill="none" stroke="#6d6d70" stroke-miterlimit="10" stroke-width="2"/>
      <path id="Path_195" data-name="Path 195" d="M760.031,521.268h.666l2.749-52.508-14.617-.285-6.942-.136.89,52.857" transform="translate(-234.176 2314.053)" fill="#fbbc04"/>
      <path id="Path_198" data-name="Path 198" d="M817.886,336.257a15.332,15.332,0,0,1-.006-1.665c.068-1.641.262-2.069-.078-2.637a2.8,2.8,0,0,0-2-1.121c-.176-.031-.354-.055-.526-.072a11.584,11.584,0,0,0-1.546-.041c-4.139.1-8.249-.816-12.385-.978-6.038-.241-11.23-.445-15.429-3.568a13.015,13.015,0,0,1-3.493-4.121c-.53-.861-1.138-1.907-1.872-3.211-4.734-8.457-6.874-13.823-10.72-21.584a102.354,102.354,0,0,0-4.988-9.174c-2.022-3.177-3.241-4.108-4.519-4.818-1.567-.873-4.832-1.6-11.305-3.013-5.093-1.115-7.836-1.716-11.482-2.263-1.913-.287-3.605-.544-5.154-.757a48.624,48.624,0,0,0-12.613-.486c-.462.047-.907.1-1.339.16-8.644,1.172-12.1,4.383-18.325,5.385a8.056,8.056,0,0,0-1.739.448,6.6,6.6,0,0,0-1.7.965,7.727,7.727,0,0,0-2.484,4.023,85.956,85.956,0,0,0-1.8,10.911c-.574,4.669-.735,6.214-1.157,10.794-.137,1.491-.31,3.485-.336,3.8-.229,2.663-.351,4.222-.43,5.278-.029.381-.052.7-.068.921q17.034-.229,34.071-.466c.085.014.19.031.313.055.041.007.085.017.129.027.136.027.287.061.456.1a1.576,1.576,0,0,1,.174.044c.119.031.241.065.37.105.065.017.129.041.2.061.241.078.5.17.768.275.092.037.184.072.275.115.17.075.343.156.52.245.088.044.176.088.265.136s.18.1.272.149c.129.072.255.149.384.231.065.037.129.082.2.126s.126.085.19.129.129.088.194.136q.194.138.387.3c.065.055.129.105.194.16s.129.109.194.166c.125.112.252.227.374.354q.076.072.153.153c.2.2.391.418.577.646.153.187.3.374.425.561.055.072.105.149.153.221.058.088.112.176.166.262s.109.174.156.258.1.174.143.258.088.17.133.252.082.17.123.252a10.466,10.466,0,0,1,.476,1.183q.072.219.133.43c.017.068.037.136.055.2.092.336.153.632.2.876q-.021,28.089-.044,56.18a16.97,16.97,0,0,1-1.747,3.714,11.448,11.448,0,0,1-2.062,2.623A9.49,9.49,0,0,1,724.7,392.2l-20.951.051h0c1.266,1.715,4.9,2.453,4.9,2.453h0c3.431-.109,8.162-.143,8.162-.143s31.1,2.318,36.137-2.28c4.156-3.779,5.674-14.437,6.082-18.087h0c-.3-2.165-.6-3.84-.8-4.949,0,0-1.318-7.543-2.5-18.261-.292-2.654-.574-5.5-.828-8.471-.248-2.932-.469-5.991-.635-9.109-.047-.927-1.1-21.4,1.349-21.743,1.763-.248,2.97,10.3,12.225,20.856a49.531,49.531,0,0,0,4.652,4.645,78.578,78.578,0,0,0,9.508,3.1c6.384,1.638,7.947,1.176,15.818,2.253,0,0,19.055,1.443,19.881,0a.143.143,0,0,1,.011-.041.335.335,0,0,1,.013-.041,15.885,15.885,0,0,0,.346-3.112A21.717,21.717,0,0,0,817.886,336.257Z" transform="translate(-218.179 2368.282)" fill="#eb4336"/>
      <path id="Path_199" data-name="Path 199" d="M730.2,343.765q-.02,28.411-.044,56.824a17.256,17.256,0,0,1-1.747,3.756A11.579,11.579,0,0,1,726.35,407a9.444,9.444,0,0,1-4.635,2.272l-20.951.052q-7.819.015-15.63.037a10.848,10.848,0,0,1-5.562-3.7,11.5,11.5,0,0,1-1.858-4.55c-.778-4.557-1-26.91-.52-57.381a10.581,10.581,0,0,1,5.973-7.994q2.11-.031,4.223-.059,17.033-.231,34.071-.471a10.746,10.746,0,0,1,6.582,3.753A10.607,10.607,0,0,1,730.2,343.765Z" transform="translate(-214.379 2351.693)" fill="#4385f5"/>
      <path id="Path_200" data-name="Path 200" d="M773.67,459.986H705.213a4.089,4.089,0,0,1-4.078-4.078v-3.327a4.089,4.089,0,0,1,4.078-4.078H773.67a4.089,4.089,0,0,1,4.078,4.078v3.327A4.089,4.089,0,0,1,773.67,459.986Z" transform="translate(-221.22 2319.661)" fill="#4385f5"/>
      <path id="Path_201" data-name="Path 201" d="M699.908,436.23a9.4,9.4,0,0,1,2.331,1.05c.3.387,2.188,4.149,2.314,4.363s1.709,3.391,1.709,3.391h9.755a6.953,6.953,0,0,1-2.423-1.587c-1.363-1.271-4.084-4.679-4.244-5.573s.418-1.244,1.325-1.457S699.908,436.23,699.908,436.23Z" transform="translate(-220.873 2323.131)" fill="#4385f5"/>
      <path id="Path_202" data-name="Path 202" d="M759.342,468.5a7.3,7.3,0,0,0-.4,2.742v46.5" transform="translate(-237.563 2314.008)" fill="#fbbc04" stroke="#fff" stroke-miterlimit="10" stroke-width="3"/>
      <path id="Path_203" data-name="Path 203" d="M750.076,517.545V470.959c0-.731-.453-2.742.264-3.459" transform="translate(-235.016 2314.29)" fill="none" stroke="#fff" stroke-miterlimit="10" stroke-width="3"/>
      <path id="Path_204" data-name="Path 204" d="M733.3,464.512a1.813,1.813,0,0,0-.143.133,2.018,2.018,0,0,0,1.427,3.443h28.957a2.024,2.024,0,0,0,2.018-2.008v-.007a2.023,2.023,0,0,0-.737-1.559" transform="translate(-230.107 2315.135)" fill="#fbbc04"/>
      <path id="Path_205" data-name="Path 205" d="M770.871,557.261l-6.184-8.783s14.146,4.638,25.158,8.213" transform="translate(-239.187 2291.396)" fill="none" stroke="#fbbc04" stroke-miterlimit="10" stroke-width="3"/>
      <path id="Path_206" data-name="Path 206" d="M688.629,554.562l38.651-16,5.559-2.3c1.376-.961,3.935-.717,6.32-.078,2.535.683,4.872,1.821,5.389,2.457h0a.346.346,0,0,1,.105.252c-.078.55,12.61,5.488,23.683,9.688l5.839,2.3" transform="translate(-217.684 2295.03)" fill="none" stroke="#fbbc04" stroke-miterlimit="10" stroke-width="3"/>
      <path id="Path_207" data-name="Path 207" d="M692.764,560.283l.065.037,42.429-13.367L745.846,558.9" transform="translate(-218.853 2291.827)" fill="none" stroke="#fbbc04" stroke-miterlimit="10" stroke-width="3"/>
      <path id="Path_208" data-name="Path 208" d="M805.007,555.673c4.92,1.852,9.123,3.415,11.128,4.16" transform="translate(-250.586 2289.362)" fill="none" stroke="#fbbc04" stroke-miterlimit="10" stroke-width="3"/>
      <path id="Path_209" data-name="Path 209" d="M798.737,559.537c4.281,1.386,12.112,3.956,13.152,4.265" transform="translate(-248.814 2288.27)" fill="none" stroke="#fbbc04" stroke-miterlimit="10" stroke-width="3"/>
      <ellipse id="Ellipse_8" data-name="Ellipse 8" cx="4.659" cy="4.291" rx="4.659" ry="4.291" transform="translate(561.725 2847.974)" fill="#fbbc04"/>
      <ellipse id="Ellipse_9" data-name="Ellipse 9" cx="4.659" cy="4.291" rx="4.659" ry="4.291" transform="translate(525.5 2847.391)" fill="#fbbc04"/>
      <ellipse id="Ellipse_10" data-name="Ellipse 10" cx="4.659" cy="4.291" rx="4.659" ry="4.291" transform="translate(465.082 2848.514)" fill="#fbbc04"/>
      <path id="Path_213" data-name="Path 213" d="M999.759,378.674a2.386,2.386,0,0,1,.4,1.333V516.1a2.3,2.3,0,1,1-4.608,0v-136.1a2.38,2.38,0,0,1,.4-1.333" transform="translate(-304.458 2336.074)" fill="#185abc"/>
      <path id="Path_218" data-name="Path 218" d="M808.392,302.64l93.651.258a4.089,4.089,0,0,0,4.078-4.078V227.153a4.089,4.089,0,0,0-4.078-4.078H795.294a4.089,4.089,0,0,0-4.078,4.078l-.264,42.714" transform="translate(-246.613 2383.394)" fill="#fcbc05"/>
      <path id="Path_225" data-name="Path 225" d="M1005.968,162.763" transform="translate(-307.402 2400.445)" fill="none" stroke="#6d6d70" stroke-miterlimit="10" stroke-width="3"/>
      <path id="Path_229" data-name="Path 229" d="M965.784,131.842H927.395c-.5,0-.914-1.029-.914-2.29h0c0-1.26.411-2.29.914-2.29h38.386c.5,0,.915,1.029.915,2.29h0C966.7,130.813,966.286,131.842,965.784,131.842Z" transform="translate(-284.93 2410.482)" fill="#185abc"/>
      <path id="Path_231" data-name="Path 231" d="M1051.689,294.254h-30.017a1.19,1.19,0,0,1-1.274-1.068h0a1.189,1.189,0,0,1,1.274-1.068h30.017a1.19,1.19,0,0,1,1.274,1.068h0A1.188,1.188,0,0,1,1051.689,294.254Z" transform="translate(-311.482 2363.874)" fill="#fff"/>
      <rect id="Rectangle_46" data-name="Rectangle 46" width="3.177" height="13.258" transform="translate(567.88 2646.311)" fill="none" stroke="#6d6d70" stroke-miterlimit="10" stroke-width="2" opacity="0.12" style="isolation: isolate"/>
      <rect id="Rectangle_47" data-name="Rectangle 47" width="3.177" height="10.08" transform="translate(571.057 2649.489)" fill="none" stroke="#6d6d70" stroke-miterlimit="10" stroke-width="2" opacity="0.12" style="isolation: isolate"/>
      <rect id="Rectangle_48" data-name="Rectangle 48" width="3.177" height="8.447" transform="translate(574.234 2651.122)" fill="none" stroke="#6d6d70" stroke-miterlimit="10" stroke-width="2" opacity="0.12" style="isolation: isolate"/>
      <path id="Path_218-2" data-name="Path 218" d="M807.447,301.283l92.962-.717a3.727,3.727,0,0,0,3.86-3.554V234.544a3.726,3.726,0,0,0-3.86-3.554H799.343a3.726,3.726,0,0,0-3.86,3.554l-.272,43.744" transform="translate(-247.817 2381.156)" fill="#f4b608"/>
      <path id="Path_221" data-name="Path 221" d="M840.746,251.992H811.82a1.663,1.663,0,0,1-1.658-1.658h0a1.663,1.663,0,0,1,1.658-1.658h28.927a1.662,1.662,0,0,1,1.658,1.658h0A1.665,1.665,0,0,1,840.746,251.992Z" transform="translate(-252.044 2376.156)" fill="#fff"/>
      <path id="Path_222" data-name="Path 222" d="M840.973,243.22H810.821A1.243,1.243,0,0,1,809.56,242h0a1.242,1.242,0,0,1,1.261-1.219h30.152A1.242,1.242,0,0,1,842.234,242h0A1.243,1.243,0,0,1,840.973,243.22Z" transform="translate(-251.874 2378.388)" fill="#fff"/>
      <path id="Path_220" data-name="Path 220" d="M837.862,299.966H815.253a4.089,4.089,0,0,1-4.078-4.078V267.676a4.089,4.089,0,0,1,4.078-4.078h22.609a4.088,4.088,0,0,1,4.078,4.078v28.213A4.088,4.088,0,0,1,837.862,299.966Z" transform="translate(-252.33 2371.937)" fill="#fff" opacity="0.2"/>
      <path id="Path_243" data-name="Path 243" d="M833.682,282.252c-.4-1.036-1.474-1.036-2.416-1.182a.941.941,0,0,0-.9.3,2.192,2.192,0,0,0-.447-1.091,2.239,2.239,0,0,0-1.478-.608,6.412,6.412,0,0,0-1.306-.047v-.7a4.687,4.687,0,0,0-.1-1.684c-.252-.6-.822-.655-1.4-.666l-1.852-.037c-.57-.011-1.169-.038-1.5.528a3.681,3.681,0,0,0-.105,1.793q.039,1.779.037,3.558,0,3.982-.207,7.962a.769.769,0,0,0,.712.823.791.791,0,0,0,.214-.014.8.8,0,0,0,.627.3l1.59.048c.579.018,1.291.151,1.658-.422a1.033,1.033,0,0,0,.094-.192,5.459,5.459,0,0,0,2.99.163.934.934,0,0,0,.664.331,12.4,12.4,0,0,0,2.536-.116.851.851,0,0,0,.623-.819c-.029-1.857.359-3.69.351-5.545A7.746,7.746,0,0,0,833.682,282.252Zm-8.268,1.892q-.018,1.6-.051,3.193c-.017.826.011,1.678-.03,2.514l-.5-.015-1.1-.033c.092-1.95.155-3.9.175-5.852q.017-1.567,0-3.134-.008-.8-.023-1.61-.008-.423-.019-.846v-.143c.519-.007,1.049,0,1.567.033v2.613q0,1.642-.019,3.281Zm3.421.215-.009,5.151a4.662,4.662,0,0,1-.932-.035.959.959,0,0,0-.757-.163l-.048.009a.655.655,0,0,0-.075.022q.023-.836.04-1.672.072-3.175.076-6.349a5.121,5.121,0,0,1,.961.007,3.73,3.73,0,0,1,.539.1c.024.09.049.179.072.27a12.5,12.5,0,0,1,.135,2.664Zm1.721,5.364h-.032c.006-2.112.024-4.224.009-6.336q0-.415-.028-.828a.626.626,0,0,0,.308.143l.646.1a2.741,2.741,0,0,0,.6.095.381.381,0,0,0,.056.011c.006.014.008.024.016.043a2.387,2.387,0,0,0,.107.453,9.336,9.336,0,0,1,.115,2.31c-.065,1.341-.272,2.67-.321,4.011a11.378,11.378,0,0,1-1.475,0Z" transform="translate(-257.546 2374.734)" fill="#fff" style="isolation: isolate"/>
      <path id="Path_236" data-name="Path 236" d="M882.505,279.181a5.667,5.667,0,0,0,.234-10.367c.294-.676.574-1.363.907-2.029.055-.113.368-.188.523-.143a5.585,5.585,0,0,0,6.1-1.952,5.407,5.407,0,0,0,.909-4.954c-.1-.372-.059-.557.287-.694q1.02-.4,2.034-.821c.276-.114.425-.032.58.229a5.518,5.518,0,0,0,9.691.125c.2-.321.367-.408.712-.251.6.271,1.205.516,1.811.765.287.116.376.265.287.6a5.523,5.523,0,0,0,6.82,6.965c.437-.112.623,0,.755.369.024.072.067.135.1.2.194.488.59,1.011.515,1.452-.061.359-.688.619-1.068.917a5.518,5.518,0,0,0,.89,9.27c.471.249.533.476.345.911-.253.584-.482,1.18-.717,1.772-.112.287-.251.392-.595.287a5.548,5.548,0,0,0-6.958,7.151c.086.265.057.42-.208.531-.674.282-1.348.564-2.013.866-.331.148-.417-.06-.543-.287a5.37,5.37,0,0,0-5.262-2.993,5.236,5.236,0,0,0-4.564,2.921c-.239.447-.461.554-.911.343-.592-.278-1.2-.519-1.813-.764-.323-.131-.382-.294-.263-.646a5.47,5.47,0,0,0-4.184-7.278,7.95,7.95,0,0,0-2.709.157c-.451.076-.646.021-.795-.389C883.115,280.694,882.811,279.952,882.505,279.181Zm9.755-5.2a6.694,6.694,0,1,0,6.667-6.72h0a6.644,6.644,0,0,0-6.666,6.623c0,.032,0,.065,0,.1Z" transform="translate(-272.497 2378.493)" fill="none" stroke="#fff" stroke-miterlimit="10" stroke-width="2" style="isolation: isolate"/>
      <path id="Path_461" data-name="Path 461" d="M758.228,246.734a9,9,0,0,1-2.342,5.538,17.5,17.5,0,0,0-3.544,6.392c-.317.949.6,2.683.6,2.683s.285.577,1.709-.594,4.557-2.817,6.013-5.728,2.488-10.728,2.488-10.728.138-.7-.495.412-.664,1.93-1.171,2.405-1.835-.854-1.9-1.044a14.887,14.887,0,0,1,.2-1.917Z" transform="translate(-235.678 2377.455)" fill="#fcf2f2"/>
    </g>
  </g>
</svg>
