<svg xmlns="http://www.w3.org/2000/svg" width="427" height="427" viewBox="0 0 427 427">
  <g id="Group_288" data-name="Group 288" transform="translate(-1066 -3979)">
    <g id="Group_30" data-name="Group 30" transform="translate(1065.86 3978.86)" opacity="0.98">
      <g id="Ellipse_1" data-name="Ellipse 1" transform="translate(169.14 169.14)" fill="none" stroke="#f37c7e" stroke-width="0.5">
        <circle cx="44.5" cy="44.5" r="44.5" stroke="none"/>
        <circle cx="44.5" cy="44.5" r="44.25" fill="none"/>
      </g>
      <g id="Ellipse_2" data-name="Ellipse 2" transform="translate(108.14 108.14)" fill="none" stroke="#f37c7e" stroke-width="0.5" opacity="0.96">
        <circle cx="105.5" cy="105.5" r="105.5" stroke="none"/>
        <circle cx="105.5" cy="105.5" r="105.25" fill="none"/>
      </g>
      <g id="Ellipse_3" data-name="Ellipse 3" transform="translate(50.14 50.14)" fill="none" stroke="#f37c7e" stroke-width="0.5" opacity="0.52">
        <circle cx="163.5" cy="163.5" r="163.5" stroke="none"/>
        <circle cx="163.5" cy="163.5" r="163.25" fill="none"/>
      </g>
      <g id="Ellipse_4" data-name="Ellipse 4" transform="translate(0.14 0.14)" fill="none" stroke="#f37c7e" stroke-width="0.5" opacity="0.34">
        <circle cx="213.5" cy="213.5" r="213.5" stroke="none"/>
        <circle cx="213.5" cy="213.5" r="213.25" fill="none"/>
      </g>
    </g>
    <g id="Group_287" data-name="Group 287">
      <g id="Group_266" data-name="Group 266" transform="translate(1113.943 4080.362)">
        <circle id="Ellipse_22" data-name="Ellipse 22" cx="44.093" cy="44.093" r="44.093" transform="translate(0 0)" fill="#ffc655"/>
        <circle id="Ellipse_23" data-name="Ellipse 23" cx="35.067" cy="35.067" r="35.067" transform="translate(9.027 9.027)" fill="#fff"/>
        <g id="Group_265" data-name="Group 265" transform="translate(10.3 10.562)">
          <path id="Path_470" data-name="Path 470" d="M2352.015-2123.319l-.818-14.125-.953,14.263Z" transform="translate(-2316.635 2154.784)" fill="#393939"/>
          <path id="Path_471" data-name="Path 471" d="M2345.381-2119.983l-22.9.874,22.716,1.051Z" transform="translate(-2312.645 2152.275)" fill="#393939"/>
          <rect id="Rectangle_171" data-name="Rectangle 171" width="0.288" height="31.379" rx="0.144" transform="translate(20.58 11.051) rotate(-31.595)" fill="#ffc655"/>
          <circle id="Ellipse_24" data-name="Ellipse 24" cx="1.948" cy="1.948" r="1.948" transform="translate(32.38 31.465)" fill="#393939"/>
          <rect id="Rectangle_172" data-name="Rectangle 172" width="0.637" height="7.323" rx="0.318" transform="translate(33.714)" fill="#ffc655"/>
          <rect id="Rectangle_173" data-name="Rectangle 173" width="0.637" height="7.323" rx="0.318" transform="translate(56.942 9.073) rotate(45)" fill="#ffc655"/>
          <rect id="Rectangle_174" data-name="Rectangle 174" width="0.637" height="7.323" rx="0.318" transform="translate(67.586 33.406) rotate(90)" fill="#ffc655"/>
          <rect id="Rectangle_175" data-name="Rectangle 175" width="0.637" height="7.323" rx="0.318" transform="matrix(-0.707, 0.707, -0.707, -0.707, 57.8, 57.041)" fill="#ffc655"/>
          <rect id="Rectangle_176" data-name="Rectangle 176" width="0.637" height="7.323" rx="0.318" transform="translate(33.924 67.062) rotate(180)" fill="#ffc655"/>
          <rect id="Rectangle_177" data-name="Rectangle 177" width="0.637" height="7.323" rx="0.318" transform="translate(10.822 58.157) rotate(-135)" fill="#ffc655"/>
          <rect id="Rectangle_178" data-name="Rectangle 178" width="0.637" height="7.323" rx="0.318" transform="translate(0 33.732) rotate(-90)" fill="#ffc655"/>
          <rect id="Rectangle_179" data-name="Rectangle 179" width="0.637" height="7.323" rx="0.318" transform="matrix(0.707, -0.707, 0.707, 0.707, 10.191, 10.017)" fill="#ffc655"/>
        </g>
      </g>
      <path id="Path_258" data-name="Path 258" d="M2494.575-1962.462l16.5,36.1s4.052,27.5-1.447,43.128-9.842,47.112-41.392,41.238-35.313-54.082-34.734-56.054,5.774-38.918,8.973-44.232,18.67-20.841,18.67-20.841Z" transform="translate(-1202.686 6183.301)" fill="#fff"/>
      <path id="Path_259" data-name="Path 259" d="M2474.644-2006.582s-3.505,17.017-5.823,22.661-3.15,7.236-3.15,7.236,2.861,17.368,12.268,19.539,20.117,1.158,25.327-7.237l1.448-14.8s-24.837-19.56-29.9-27.581" transform="translate(-1208.483 6191.151)" fill="#fcf2f2"/>
      <path id="Path_260" data-name="Path 260" d="M2523.027-1952.91a29.005,29.005,0,0,1,20.068,8.1c8.877,8.683,16.017,24.893,16.017,24.893s-.579,58.663-8.877,61.171-36.278,17.56-40.62,18.719-16.692,0-16.692,0,9.648-53.259,11.771-65.609,3.473-34.926,3.473-34.926Z" transform="translate(-1213.385 6181.464)" fill="#c22328"/>
      <path id="Path_262" data-name="Path 262" d="M2475.927-1846.545s16.57-2.894,21.747-2.123q6.182.792,12.427,1l-12.841,25.441s3.107-.772-7.249-2.315a75.852,75.852,0,0,0-19.676-.194Z" transform="translate(-1209.322 6162.736)" fill="#fcf2f2"/>
      <path id="Path_263" data-name="Path 263" d="M2432.353-1962.318s-24.458,5.066-29.668,10.71-15.776,12.3-24.6,42.839-14.183,68.215-14.57,70.337,98.133,1.3,98.133,1.3l4.141-34.489-19.9,2.509s-1.712-25.086,2.533-36.471a146.576,146.576,0,0,0,7.14-27.6c.386-3.473,2.412-21.757,2.412-21.757S2431.34-1954.6,2432.353-1962.318Z" transform="translate(-1190.106 6183.156)" fill="#c22328"/>
      <path id="Path_264" data-name="Path 264" d="M2660.328-1910.887c-1.93-4.053-9.069-1.544-59.048-1.544s-56.54-.385-61.171,1.93-24.314,50.172-31.647,63.873-5.885,16.4-5.885,16.4c12.228,2.378,116.457,1.929,119.93,0s21.228-43.032,27.209-54.032S2662.261-1906.835,2660.328-1910.887Z" transform="translate(-1215.101 6174.321)" fill="#fcf2f2"/>
      <path id="Path_265" data-name="Path 265" d="M2462.14-1973.135s-5.885,1.552-9.441,4.381a22.444,22.444,0,0,1-6.657,3.98s13.749,33.215,13.895,33.649,13.169-26.521,13.169-26.521S2462.9-1966.228,2462.14-1973.135Z" transform="translate(-1204.952 6185.103)" fill="#c12328"/>
      <path id="Path_266" data-name="Path 266" d="M2512.64-1969.149s7.363,3.669,8.328,5.6c.453.907,2.586,4.516,3.859,6.983a8.791,8.791,0,0,1,.965,2.279c0,3.088,5.982,14.859,5.982,14.859s-9.166-9.1-13.219-7.622a33.861,33.861,0,0,0-7.043,3.57Z" transform="translate(-1216.729 6184.385)" fill="#c12328"/>
      <path id="Path_268" data-name="Path 268" d="M2541.925-2040.436s16.789-3.86,18.912-5.21-5.017,7.525-11.385,12.156a35.958,35.958,0,0,1-12.614,5.892S2536.957-2037.832,2541.925-2040.436Z" transform="translate(-1221.285 6198.171)" fill="#4285f4"/>
      <path id="Path_271" data-name="Path 271" d="M2487.626-2065.333c.806-1.411,4.36-7.633,9.553-7.816,3.29-.115,5.033,2.269,8.972,5.355.615.481,12.264,9.4,24.17,9.552,9.659.122,15.1-5.586,16.5-3.763,1.5,1.963-4.06,9.575-10.565,14.328-4.1,2.994-7.651,4.183-12.881,5.934-6.26,2.1-11.646,3.814-16.788,1.447-1.661-.764-1.32-1.044-3.184-2.026-7.32-3.855-12.584.464-16.355-2.172C2482.5-2047.667,2483.7-2058.454,2487.626-2065.333Z" transform="translate(-1211.802 6203.094)" fill="#6d6d70" opacity="0.13" style="isolation: isolate"/>
      <path id="Path_274" data-name="Path 274" d="M2418.918-1934.954s7.96,11,4.776,20.7-8.249,42.839-9.407,47.47a65.965,65.965,0,0,0-1.447,10.71s2.026-24.893,2.894-27.353,6.947-29.814,6.947-32.129S2422.97-1934.085,2418.918-1934.954Z" transform="translate(-1198.979 6178.234)" fill="#c12328"/>
      <path id="Path_275" data-name="Path 275" d="M2387.781-1834.047s18.3-4.823,25.767-5.978c.68-.105,1.271-.18,1.749-.218,5.728-.453,16.612-2.417,16.612-2.417Z" transform="translate(-1197.787 6167.34)" fill="#c12328"/>
      <path id="Path_472" data-name="Path 472" d="M2476.336-2006.143s8.031,18.175,17.354,23.016,12.783,4.055,12.783,4.055l-.257,2.114s-26.6-1.271-30.762-25.3Z" transform="translate(-1210.243 6191.04)" fill="#6d6d70" opacity="0.3"/>
      <path id="Path_267" data-name="Path 267" d="M2475.03-2032.264s-2.123-6.754-5.21-6.754-7.525,7.946-4.631,14.587,5.4,8.377,7.14,7.99,3.088,5.982,7.333,13.7,16.981,17.561,26.051,15.823,14.665-17.946,16.981-33.769l2.316-15.823S2490.468-2066.416,2475.03-2032.264Z" transform="translate(-1208.227 6198.683)" fill="#fcf2f2"/>
      <path id="Path_269" data-name="Path 269" d="M2472.246-2043.291s-5.709-10.619-2.793-14.864,5.424-2.7,8.9-8.877,2.509-11.771,7.718-12.35,19.876.194,34.928,9.648,25.086,3.088,26.244,2.316-2.9,19.567-10.613,25.9a52.4,52.4,0,0,1-32.445,7.488C2484.912-2035.77,2476.83-2036.537,2472.246-2043.291Z" transform="translate(-1209.014 6204.24)" fill="#4285f4"/>
    </g>
  </g>
</svg>
