<svg xmlns="http://www.w3.org/2000/svg" xmlns:xlink="http://www.w3.org/1999/xlink" width="84.702" height="82.684" viewBox="0 0 84.702 82.684">
  <defs>
    <clipPath id="clip-path">
      <rect id="SVGID" width="84.702" height="82.684" fill="none"/>
    </clipPath>
  </defs>
  <g id="Group_59" data-name="Group 59" transform="translate(3922.621 1979.48)">
    <g id="Group_58" data-name="Group 58" transform="translate(-3922.621 -1979.48)" opacity="0.1">
      <g id="Group_57" data-name="Group 57" transform="translate(0 0)">
        <g id="Group_56" data-name="Group 56" clip-path="url(#clip-path)">
          <path id="Path_296" data-name="Path 296" d="M-3837.918-1938.14c0,22.833-18.961,41.342-42.352,41.342s-42.351-18.51-42.351-41.342,18.962-41.342,42.351-41.342,42.352,18.51,42.352,41.342" transform="translate(3922.621 1979.481)" fill="#5a5a5d"/>
        </g>
      </g>
    </g>
    <path id="Path_297" data-name="Path 297" d="M-3826.122-1937.244c-2.1-2.438-6.089-3.027-11.457-1.758a31.743,31.743,0,0,0-20.717-7.617c-17.268,0-31.316,13.624-31.316,30.371a29.5,29.5,0,0,0,4.345,15.417c-2.536,5.186-2.76,9.333-.576,11.874,1.384,1.609,3.549,2.426,6.438,2.426h.112a1.5,1.5,0,0,0,1.512-1.489,1.5,1.5,0,0,0-1.523-1.466h-.012c-1.99.016-3.4-.444-4.187-1.363-1.174-1.365-1.062-3.86.246-7.079a31.619,31.619,0,0,0,24.96,12.052c17.267,0,31.316-13.624,31.316-30.371a29.742,29.742,0,0,0-8-20.256c3.13-.486,5.438-.108,6.522,1.153.822.956,1.018,2.458.583,4.464a1.479,1.479,0,0,0,1.177,1.75,1.523,1.523,0,0,0,1.805-1.141c.637-2.936.226-5.28-1.224-6.965m-8.065,6.694a26.659,26.659,0,0,1,4.118,12.824h-14.49a62.363,62.363,0,0,0-1.542-12.8h11.683a1.588,1.588,0,0,0,.23-.019m.1,28.446a1.549,1.549,0,0,0-.328-.035h-11.641a62.553,62.553,0,0,0,1.5-12.633h14.49a26.646,26.646,0,0,1-4.021,12.668m-24.207,13.271c-2.57,0-5.209-2.751-7.239-7.547-.375-.886-.719-1.825-1.036-2.8h16.549c-.317.979-.662,1.919-1.036,2.8-2.03,4.8-4.668,7.547-7.238,7.547m-9.112-13.306a58.867,58.867,0,0,1-1.578-12.633h21.379a58.9,58.9,0,0,1-1.578,12.633Zm-15-28.412a1.6,1.6,0,0,0,.236.02h11.675a62.356,62.356,0,0,0-1.541,12.794l-.011.011h-14.479a26.654,26.654,0,0,1,4.12-12.825m24.108-13.114c2.57,0,5.208,2.75,7.238,7.546.3.715.585,1.465.85,2.241q-.356.193-.712.391h-15.594c.3-.917.627-1.8.979-2.632,2.03-4.8,4.668-7.546,7.239-7.546m9.07,13.133a58.682,58.682,0,0,1,1.619,12.8h-20.042q2.094-1.891,4.434-3.788a98.713,98.713,0,0,1,13.109-9.017Zm-6.624,0a106.432,106.432,0,0,0-9.316,6.748q-1.9,1.537-3.691,3.121a56.348,56.348,0,0,1,1.49-9.869Zm-14.685,28.392H-3881.1a65,65,0,0,1,9.106-11.414,61.718,61.718,0,0,0,1.462,11.414m22.295-35.1a22.928,22.928,0,0,0-3.271-5.623,28.55,28.55,0,0,1,10.43,4.886c-.317.109-.637.222-.962.342a58.907,58.907,0,0,0-5.441,2.351c-.239-.673-.49-1.328-.756-1.957m-16.843-5.623a22.9,22.9,0,0,0-3.271,5.623,38.131,38.131,0,0,0-1.347,3.754h-10.561a28.432,28.432,0,0,1,15.178-9.378m-21.441,28.092h11.535a67.9,67.9,0,0,0-8.387,10.556c-.059.094-.115.188-.172.281a26.588,26.588,0,0,1-2.976-10.837m6.12,15.588h10.653a38.207,38.207,0,0,0,1.4,3.927,22.911,22.911,0,0,0,3.271,5.624,28.432,28.432,0,0,1-15.322-9.551m28.894,9.55a22.942,22.942,0,0,0,3.271-5.624,38.356,38.356,0,0,0,1.4-3.927h10.653a28.431,28.431,0,0,1-15.322,9.55m15.178-43.853h-8q1.722-.777,3.371-1.388,1.319-.488,2.541-.845a28.057,28.057,0,0,1,2.083,2.233" transform="translate(-21.989 -21.89)" fill="#fff"/>
    <path id="Path_298" data-name="Path 298" d="M-3826.122-1937.244c-2.1-2.438-6.089-3.027-11.457-1.758a31.743,31.743,0,0,0-20.717-7.617c-17.268,0-31.316,13.624-31.316,30.371a29.5,29.5,0,0,0,4.345,15.417c-2.536,5.186-2.76,9.333-.576,11.874,1.384,1.609,3.549,2.426,6.438,2.426h.112a1.5,1.5,0,0,0,1.512-1.489,1.5,1.5,0,0,0-1.523-1.466h-.012c-1.99.016-3.4-.444-4.187-1.363-1.174-1.365-1.062-3.86.246-7.079a31.619,31.619,0,0,0,24.96,12.052c17.267,0,31.316-13.624,31.316-30.371a29.742,29.742,0,0,0-8-20.256c3.13-.486,5.438-.108,6.522,1.153.822.956,1.018,2.458.583,4.464a1.479,1.479,0,0,0,1.177,1.75,1.523,1.523,0,0,0,1.805-1.141C-3824.261-1933.215-3824.672-1935.559-3826.122-1937.244Zm-8.065,6.694a26.659,26.659,0,0,1,4.118,12.824h-14.49a62.363,62.363,0,0,0-1.542-12.8h11.683A1.588,1.588,0,0,0-3834.187-1930.55Zm.1,28.446a1.549,1.549,0,0,0-.328-.035h-11.641a62.553,62.553,0,0,0,1.5-12.633h14.49A26.646,26.646,0,0,1-3834.089-1902.1Zm-24.207,13.271c-2.57,0-5.209-2.751-7.239-7.547-.375-.886-.719-1.825-1.036-2.8h16.549c-.317.979-.662,1.919-1.036,2.8C-3853.087-1891.584-3855.725-1888.833-3858.3-1888.833Zm-9.112-13.306a58.867,58.867,0,0,1-1.578-12.633h21.379a58.9,58.9,0,0,1-1.578,12.633Zm-15-28.412a1.6,1.6,0,0,0,.236.02h11.675a62.356,62.356,0,0,0-1.541,12.794l-.011.011h-14.479A26.654,26.654,0,0,1-3882.4-1930.551Zm24.108-13.114c2.57,0,5.208,2.75,7.238,7.546.3.715.585,1.465.85,2.241q-.356.193-.712.391h-15.594c.3-.917.627-1.8.979-2.632C-3863.5-1940.914-3860.865-1943.665-3858.3-1943.665Zm9.07,13.133a58.682,58.682,0,0,1,1.619,12.8h-20.042q2.094-1.891,4.434-3.788a98.713,98.713,0,0,1,13.109-9.017Zm-6.624,0a106.432,106.432,0,0,0-9.316,6.748q-1.9,1.537-3.691,3.121a56.348,56.348,0,0,1,1.49-9.869Zm-14.685,28.392H-3881.1a65,65,0,0,1,9.106-11.414A61.718,61.718,0,0,0-3870.533-1902.139Zm22.295-35.1a22.928,22.928,0,0,0-3.271-5.623,28.55,28.55,0,0,1,10.43,4.886c-.317.109-.637.222-.962.342a58.907,58.907,0,0,0-5.441,2.351C-3847.722-1935.957-3847.972-1936.612-3848.239-1937.241Zm-16.843-5.623a22.9,22.9,0,0,0-3.271,5.623,38.131,38.131,0,0,0-1.347,3.754h-10.561A28.432,28.432,0,0,1-3865.082-1942.864Zm-21.441,28.092h11.535a67.9,67.9,0,0,0-8.387,10.556c-.059.094-.115.188-.172.281A26.588,26.588,0,0,1-3886.523-1914.772Zm6.12,15.588h10.653a38.207,38.207,0,0,0,1.4,3.927,22.911,22.911,0,0,0,3.271,5.624A28.432,28.432,0,0,1-3880.4-1899.184Zm28.894,9.55a22.942,22.942,0,0,0,3.271-5.624,38.356,38.356,0,0,0,1.4-3.927h10.653A28.431,28.431,0,0,1-3851.509-1889.634Zm15.178-43.853h-8q1.722-.777,3.371-1.388,1.319-.488,2.541-.845A28.057,28.057,0,0,1-3836.331-1933.486Z" transform="translate(-21.989 -21.89)" fill="none" stroke="#fff" stroke-miterlimit="10" stroke-width="1"/>
    <path id="Path_299" data-name="Path 299" d="M-3824.453-1922.54a5.451,5.451,0,0,0-.988-1.568,7.283,7.283,0,0,0-3.629-2.134,13.51,13.51,0,0,0-6.009.08c-4.281.846-8.586,2.609-13.959,5.717-14.046,8.122-24.945,18.441-31.517,29.84a29.148,29.148,0,0,0-1.412,2.727c-2.145,4.838-2.218,8.668-.21,11.077,1.341,1.609,3.433,2.425,6.215,2.425h.107a1.594,1.594,0,0,0,1.131-.478,1.593,1.593,0,0,0,.461-1.138,1.611,1.611,0,0,0-1.616-1.593c-1.831.011-3.119-.413-3.834-1.27-2.707-3.247,1.648-9.917,3.508-12.766l.157-.24a67.562,67.562,0,0,1,10.505-12.11c10.616-10.083,20.7-16.306,30.835-19.024a10.467,10.467,0,0,1,3.832-.479,4.048,4.048,0,0,1,3.741,4.175c-.016.2-.042.417-.069.635-.123.992-.263,2.117.617,2.629a1.653,1.653,0,0,0,2.085-.652,4.121,4.121,0,0,0,.517-2.162,8.977,8.977,0,0,0-.469-3.69" transform="translate(-22.463 -33.772)" fill="#b10d1d"/>
    <path id="Path_300" data-name="Path 300" d="M-3824.453-1922.54a5.451,5.451,0,0,0-.988-1.568,7.283,7.283,0,0,0-3.629-2.134,13.51,13.51,0,0,0-6.009.08c-4.281.846-8.586,2.609-13.959,5.717-14.046,8.122-24.945,18.441-31.517,29.84a29.148,29.148,0,0,0-1.412,2.727c-2.145,4.838-2.218,8.668-.21,11.077,1.341,1.609,3.433,2.425,6.215,2.425h.107a1.594,1.594,0,0,0,1.131-.478,1.593,1.593,0,0,0,.461-1.138,1.611,1.611,0,0,0-1.616-1.593c-1.831.011-3.119-.413-3.834-1.27-2.707-3.247,1.648-9.917,3.508-12.766l.157-.24a67.562,67.562,0,0,1,10.505-12.11c10.616-10.083,20.7-16.306,30.835-19.024a10.467,10.467,0,0,1,3.832-.479,4.048,4.048,0,0,1,3.741,4.175c-.016.2-.042.417-.069.635-.123.992-.263,2.117.617,2.629a1.653,1.653,0,0,0,2.085-.652,4.121,4.121,0,0,0,.517-2.162A8.977,8.977,0,0,0-3824.453-1922.54Z" transform="translate(-22.463 -33.772)" fill="none" stroke="#b10d1d" stroke-miterlimit="10" stroke-width="2.551"/>
    <path id="Path_301" data-name="Path 301" d="M-3876.7-1874.747c-2.9,0-5.086-.86-6.5-2.558-2.1-2.524-2.051-6.488.156-11.464a29.527,29.527,0,0,1,1.429-2.762c6.605-11.456,17.551-21.821,31.653-29.976,5.411-3.129,9.751-4.905,14.073-5.76a13.833,13.833,0,0,1,6.172-.075,7.656,7.656,0,0,1,3.814,2.247,5.829,5.829,0,0,1,1.054,1.675,9.309,9.309,0,0,1,.5,3.843,4.438,4.438,0,0,1-.578,2.354,2.007,2.007,0,0,1-2.579.767c-1.092-.635-.93-1.943-.8-2.994.026-.213.052-.42.068-.618a3.679,3.679,0,0,0-3.414-3.779,10.111,10.111,0,0,0-3.694.468c-10.072,2.7-20.106,8.9-30.677,18.935a67.195,67.195,0,0,0-10.449,12.044l-.157.24c-1.815,2.78-6.066,9.29-3.534,12.326.63.755,1.8,1.137,3.485,1.137h.063a1.986,1.986,0,0,1,1.989,1.959,1.961,1.961,0,0,1-.568,1.4,1.964,1.964,0,0,1-1.392.589Zm44.343-52.166a17.571,17.571,0,0,0-3.389.373c-4.238.838-8.509,2.587-13.846,5.674-13.99,8.09-24.842,18.361-31.382,29.705a28.726,28.726,0,0,0-1.395,2.693c-2.084,4.7-2.176,8.4-.264,10.689,1.268,1.52,3.263,2.292,5.931,2.292h.106a1.226,1.226,0,0,0,.869-.368,1.228,1.228,0,0,0,.355-.875,1.244,1.244,0,0,0-1.246-1.225c-1.937.007-3.333-.461-4.119-1.4-2.883-3.457,1.578-10.289,3.483-13.205l.156-.24a67.936,67.936,0,0,1,10.56-12.177c10.662-10.126,20.8-16.378,30.994-19.113a10.772,10.772,0,0,1,3.969-.489,4.416,4.416,0,0,1,4.069,4.571c-.016.209-.043.429-.071.652-.136,1.1-.184,1.9.437,2.263a1.3,1.3,0,0,0,1.591-.537,3.818,3.818,0,0,0,.455-1.97,8.652,8.652,0,0,0-.442-3.536,5.1,5.1,0,0,0-.922-1.462,6.914,6.914,0,0,0-3.444-2.021,9.889,9.889,0,0,0-2.457-.289" transform="translate(-21.725 -33.032)" fill="#b10d1d"/>
    <path id="Path_302" data-name="Path 302" d="M-3876.7-1874.747c-2.9,0-5.086-.86-6.5-2.558-2.1-2.524-2.051-6.488.156-11.464a29.527,29.527,0,0,1,1.429-2.762c6.605-11.456,17.551-21.821,31.653-29.976,5.411-3.129,9.751-4.905,14.073-5.76a13.833,13.833,0,0,1,6.172-.075,7.656,7.656,0,0,1,3.814,2.247,5.829,5.829,0,0,1,1.054,1.675,9.309,9.309,0,0,1,.5,3.843,4.438,4.438,0,0,1-.578,2.354,2.007,2.007,0,0,1-2.579.767c-1.092-.635-.93-1.943-.8-2.994.026-.213.052-.42.068-.618a3.679,3.679,0,0,0-3.414-3.779,10.111,10.111,0,0,0-3.694.468c-10.072,2.7-20.106,8.9-30.677,18.935a67.195,67.195,0,0,0-10.449,12.044l-.157.24c-1.815,2.78-6.066,9.29-3.534,12.326.63.755,1.8,1.137,3.485,1.137h.063a1.986,1.986,0,0,1,1.989,1.959,1.961,1.961,0,0,1-.568,1.4,1.964,1.964,0,0,1-1.392.589Zm44.343-52.166a17.571,17.571,0,0,0-3.389.373c-4.238.838-8.509,2.587-13.846,5.674-13.99,8.09-24.842,18.361-31.382,29.705a28.726,28.726,0,0,0-1.395,2.693c-2.084,4.7-2.176,8.4-.264,10.689,1.268,1.52,3.263,2.292,5.931,2.292h.106a1.226,1.226,0,0,0,.869-.368,1.228,1.228,0,0,0,.355-.875,1.244,1.244,0,0,0-1.246-1.225c-1.937.007-3.333-.461-4.119-1.4-2.883-3.457,1.578-10.289,3.483-13.205l.156-.24a67.936,67.936,0,0,1,10.56-12.177c10.662-10.126,20.8-16.378,30.994-19.113a10.772,10.772,0,0,1,3.969-.489,4.416,4.416,0,0,1,4.069,4.571c-.016.209-.043.429-.071.652-.136,1.1-.184,1.9.437,2.263a1.3,1.3,0,0,0,1.591-.537,3.818,3.818,0,0,0,.455-1.97,8.652,8.652,0,0,0-.442-3.536,5.1,5.1,0,0,0-.922-1.462,6.914,6.914,0,0,0-3.444-2.021A9.889,9.889,0,0,0-3832.356-1926.913Z" transform="translate(-21.725 -33.032)" fill="none" stroke="#b10d1d" stroke-miterlimit="10" stroke-width="2.551"/>
  </g>
</svg>
