<svg xmlns="http://www.w3.org/2000/svg" width="403" height="429.142" viewBox="0 0 403 429.142">
  <g id="Group_299" data-name="Group 299" transform="translate(-1067 -2987.858)">
    <g id="Group_29" data-name="Group 29" transform="translate(1067.007 3014.156)" opacity="0.98">
      <g id="Ellipse_1" data-name="Ellipse 1" transform="translate(159.993 159.844)" fill="none" stroke="#f37c7e" stroke-width="0.5">
        <circle cx="41.5" cy="41.5" r="41.5" stroke="none"/>
        <circle cx="41.5" cy="41.5" r="41.25" fill="none"/>
      </g>
      <g id="Ellipse_2" data-name="Ellipse 2" transform="translate(101.993 101.844)" fill="none" stroke="#f37c7e" stroke-width="0.5" opacity="0.96">
        <circle cx="99.5" cy="99.5" r="99.5" stroke="none"/>
        <circle cx="99.5" cy="99.5" r="99.25" fill="none"/>
      </g>
      <g id="Ellipse_3" data-name="Ellipse 3" transform="translate(46.993 46.844)" fill="none" stroke="#f37c7e" stroke-width="0.5" opacity="0.52">
        <circle cx="154.5" cy="154.5" r="154.5" stroke="none"/>
        <circle cx="154.5" cy="154.5" r="154.25" fill="none"/>
      </g>
      <g id="Ellipse_4" data-name="Ellipse 4" transform="translate(-0.007 -0.156)" fill="none" stroke="#f37c7e" stroke-width="0.5" opacity="0.34">
        <circle cx="201.5" cy="201.5" r="201.5" stroke="none"/>
        <circle cx="201.5" cy="201.5" r="201.25" fill="none"/>
      </g>
    </g>
    <g id="Group_298" data-name="Group 298">
      <path id="Path_147" data-name="Path 147" d="M2576.851-223.538h0l13.968,94.743a1.49,1.49,0,0,1-1.255,1.69,1.5,1.5,0,0,1-1.69-1.255l-13.366-90.652" transform="translate(-1226.742 3522.541)" fill="#185abc"/>
      <path id="Path_148" data-name="Path 148" d="M2495.761-397.982l-.2.007-4.3.137-17.861.569-20.211,1.726,4.409,50.106.667,7.575.668,7.58.625,7.133,4.976,56.53,1.216.021,2.956.056,14.885.271,3,.056,7.385.134h0l3.041.056,4.472.077h29.379V-399.1l-18.592.594Z" transform="translate(-1199.261 3562.308)" fill="#fcf2f2"/>
      <path id="Path_149" data-name="Path 149" d="M2543.427-375.307c-.589-1.5-1.3-2.96-1.3-2.96s-.773-1.577-1.57-2.9c-2.374-3.945-8.084-7.676-8.084-7.676-6.719-4.393-12.652-8.276-15.184-6.309-1.972,1.529.456,4.787-2.1,8.285-2.663,3.649-8.143,3.994-8.972,4.034a9.686,9.686,0,0,1-4.08-.472c-4.048-1.477-5.611-5.569-6.547-8.025-.719-1.886-1.715-4.492-.48-5.789.715-.75,2.481-.551,2.475-.718,0-.077-.354-.112-.374-.114-.814-.082-18.448-.006-26.015,14.169-.326.611-.087.225-3.163,9.136-4.177,12.093-4.473,12.4-5.622,16.166-3.3,10.806-4.947,16.21-3.163,20.38.628,1.47,3.4,7.123,14.456,9.741.992.186,2.4.437,4.086.7a151.685,151.685,0,0,0,23.437,1.693c15.379-.232,23.087-.316,29.143-4.216C2548.94-342.152,2544.428-372.762,2543.427-375.307Z" transform="translate(-1200.468 3562.051)" fill="#fbbc04"/>
      <path id="Path_462" data-name="Path 462" d="M2507.816-411.353q-.339,5.252-.677,10.5a2.823,2.823,0,0,0-1.552.693,3.007,3.007,0,0,0-.667,1.013c-.461,1.192-.168,9.775,6.5,12.91,5.555,2.611,12.584.157,14.756-3.942,2.929-5.528,2.217-7,.2-8.506s-4.636-1.368-5.182-4.871a17.631,17.631,0,0,1,.546-7.008Z" transform="translate(-1210.947 3565.084)" fill="#fcf2f2"/>
      <path id="Path_152" data-name="Path 152" d="M2529.367-399.065c-.095-.014-.193-.025-.288-.035" transform="translate(-1216.452 3562.308)" fill="none" stroke="#6d6d70" stroke-miterlimit="10" stroke-width="2"/>
      <path id="Path_154" data-name="Path 154" d="M2521.917-259.224c1.169-.211,2.35-.365,3.534-.487a82.431,82.431,0,0,1,13.063-.409c4.039.232,8.377.674,12.134,2.276a19.48,19.48,0,0,1,8.391,7.193s4.712-12.53.619-19.1c-3.514-5.646-19.2-13.486-25.124-16.451-.973-.485-1.683-.84-2.034-1.033-2.48-1.364-3.805-5.274-3.956-8.19-.076-1.409-11.508-1.775-23.3-1.775-12.586,0-25.574.415-25.574.415a31.679,31.679,0,0,0-7.194,25.671c2.6,15.38,13.019,22.818,14.758,22.818q9.483,0,18.966-.012a22.491,22.491,0,0,0,1.453-2.36A21.97,21.97,0,0,1,2521.917-259.224Z" transform="translate(-1203.538 3539.227)" fill="#4285f4"/>
      <path id="Path_155" data-name="Path 155" d="M2546.3-249.559a17.816,17.816,0,0,1,.773,8.439c-.422,2.621-1.677,4.249-2.256,6.087-2.889,9.167-8.31,13.149-10.292,27.906-1.385,10.287-3.612,26.84-4.877,36.93-.549,4.389-.917,7.555-.952,8.458-.123,2.976-1.985,17.362,2.48,24.558s11.533,16.367,12.9,18.6,3.1,8.306-9.174,6.575-15.5-17.857-15.5-17.857v6.944h-2.853s.249-12.523,0-15.13.867-8.184,1.862-9.05c.25-.218.366-1.518.387-3.412.063-4.892-.492-13.753-.942-18.156-.066-.647-.13-1.2-.189-1.624-.619-4.466-6.079-10.664-5.707-29.889.223-11.493-.7-20.953,2.048-32.97.592-2.581,1.189-4.7,1.624-6.155a24.949,24.949,0,0,1,9.549-8.431c6.6-3.242,13.391-2.657,17.363-2.315C2544.115-249.92,2545.407-249.719,2546.3-249.559Z" transform="translate(-1212.569 3528.608)" fill="#fcf2f2"/>
      <path id="Path_463" data-name="Path 463" d="M2531.966-108.719c-2.535-4.084-3.031-10.482-2.963-15.8h-9.435c.016.892.022,1.73.012,2.469a2.492,2.492,0,0,1-1.231,2.459c-.995.866-3.05,7.31-2.8,9.917s.992,15.216.992,15.216h3.644V-101.4s3.226,16.126,15.5,17.857,10.537-4.339,9.174-6.575S2536.432-101.523,2531.966-108.719Z" transform="translate(-1213.382 3500.111)" fill="#4285f4"/>
      <path id="Path_156" data-name="Path 156" d="M2515.23-143.69a49.858,49.858,0,0,0-8,8.3c-1.71,2.243-2.591,5.518-5.81,9.76-.753.993-1.415,1.779-1.86,2.294l1.2,1.075c2.011-1.562,4.478-3.341,4.878-2.935.337.341-1.043,1.962-2.108,3.906-.269.49-3.59,6.721-2,12.355,1.78,6.314,9.788,11.263,11.82,9.259.249-.246-.5-12.4.665-20.008a25.507,25.507,0,0,1,2.167-5.85" transform="translate(-1209.764 3504.454)" fill="#df9673"/>
      <path id="Path_156-2" data-name="Path 156" d="M2515.23-143.69a49.858,49.858,0,0,0-8,8.3c-1.71,2.243-2.591,5.518-5.81,9.76-.753.993-1.415,1.779-1.86,2.294l1.2,1.075c2.011-1.562,4.478-3.341,4.878-2.935.337.341-1.043,1.962-2.108,3.906-.269.49-3.59,6.721-2,12.355,1.78,6.314,9.788,11.263,11.82,9.259.249-.246-.5-12.4.665-20.008a25.507,25.507,0,0,1,2.167-5.85" transform="translate(-1209.764 3504.454)" fill="#4285f4"/>
      <path id="Path_158" data-name="Path 158" d="M2467.428-227.8a1.414,1.414,0,0,1-.007.369l-14.207,96.351a1.494,1.494,0,0,1-1.69,1.255,1.491,1.491,0,0,1-1.255-1.69l14.2-96.337" transform="translate(-1198.597 3523.518)" fill="#185abc"/>
      <path id="Path_159" data-name="Path 159" d="M2490.55-227.4a.256.256,0,0,1-.007.06l-14.21,96.351a1.49,1.49,0,0,1-1.686,1.255,1.493,1.493,0,0,1-1.258-1.69l14.16-96.028" transform="translate(-1203.833 3523.428)" fill="#185abc"/>
      <path id="Rectangle_30" data-name="Rectangle 30" d="M2392.925-305.946H2607.9a3.382,3.382,0,0,1,3.382,3.382h0a3.382,3.382,0,0,1-3.382,3.382H2392.925a3.382,3.382,0,0,1-3.382-3.382h0A3.383,3.383,0,0,1,2392.925-305.946Z" transform="translate(-1184.845 3541.208)" fill="#185abc"/>
      <path id="Path_160" data-name="Path 160" d="M2664.181-297.2a2.142,2.142,0,0,1,.042.435v151.588a2.427,2.427,0,0,1-2.421,2.421,2.428,2.428,0,0,1-2.417-2.421V-296.765a2.311,2.311,0,0,1,.042-.435" transform="translate(-1245.968 3539.226)" fill="#185abc"/>
      <path id="Path_161" data-name="Path 161" d="M2394.009-297.829v154.2a2.242,2.242,0,0,1-2.231,2.232,2.243,2.243,0,0,1-2.234-2.232V-298.978a2.181,2.181,0,0,1,.239-1" transform="translate(-1184.845 3539.855)" fill="#185abc"/>
      <rect id="Rectangle_31" data-name="Rectangle 31" width="45.39" height="41.173" rx="12" transform="translate(1232.849 2987.858)" fill="#e6e6e6"/>
      <path id="Rectangle_32" data-name="Rectangle 32" d="M2301.762-616.659h79.618a1.116,1.116,0,0,1,1.116,1.116h0a1.116,1.116,0,0,1-1.116,1.116h-79.618a1.116,1.116,0,0,1-1.116-1.116h0A1.116,1.116,0,0,1,2301.762-616.659Z" transform="translate(-1164.708 3611.589)" fill="#e8eaed"/>
      <path id="Rectangle_33" data-name="Rectangle 33" d="M2355.044-605.115h36.46a1.488,1.488,0,0,1,1.488,1.488h0a1.488,1.488,0,0,1-1.488,1.488h-36.46a1.488,1.488,0,0,1-1.488-1.488h0A1.489,1.489,0,0,1,2355.044-605.115Z" transform="translate(-1176.693 3608.974)" fill="#e8eaed"/>
      <rect id="Rectangle_34" data-name="Rectangle 34" width="106.406" height="3.969" rx="1.984" transform="translate(1109.895 3012.044)" fill="#e8eaed"/>
      <path id="Rectangle_35" data-name="Rectangle 35" d="M2328.356-582.027h56.8a1.736,1.736,0,0,1,1.736,1.736h0a1.736,1.736,0,0,1-1.736,1.736h-56.8a1.736,1.736,0,0,1-1.736-1.736h0A1.737,1.737,0,0,1,2328.356-582.027Z" transform="translate(-1170.592 3603.744)" fill="#e8eaed"/>
      <path id="Rectangle_36" data-name="Rectangle 36" d="M2294.861-537.454h38.693a2.232,2.232,0,0,1,2.232,2.232h0a2.232,2.232,0,0,1-2.232,2.232h-38.693a2.232,2.232,0,0,1-2.232-2.232h0A2.232,2.232,0,0,1,2294.861-537.454Z" transform="translate(-1162.892 3593.647)" fill="#e8eaed"/>
      <path id="Rectangle_37" data-name="Rectangle 37" d="M2253.713-514.686h71.434a1.488,1.488,0,0,1,1.488,1.488h0a1.488,1.488,0,0,1-1.488,1.488h-71.434a1.488,1.488,0,0,1-1.488-1.488h0A1.489,1.489,0,0,1,2253.713-514.686Z" transform="translate(-1153.74 3588.49)" fill="#e8eaed"/>
      <path id="Rectangle_38" data-name="Rectangle 38" d="M2307.906-502.5h29.516a1.488,1.488,0,0,1,1.488,1.488h0a1.488,1.488,0,0,1-1.488,1.488h-29.516a1.488,1.488,0,0,1-1.488-1.488h0A1.489,1.489,0,0,1,2307.906-502.5Z" transform="translate(-1166.016 3585.73)" fill="#e8eaed"/>
      <path id="Rectangle_39" data-name="Rectangle 39" d="M2276.087-460.493h52.831a1.737,1.737,0,0,1,1.737,1.736h0a1.736,1.736,0,0,1-1.737,1.736h-52.831a1.736,1.736,0,0,1-1.736-1.736h0A1.737,1.737,0,0,1,2276.087-460.493Z" transform="translate(-1158.752 3576.215)" fill="#e8eaed"/>
      <path id="Rectangle_40" data-name="Rectangle 40" d="M2289.927-448.949H2331.6a2.109,2.109,0,0,1,2.109,2.109h0a2.108,2.108,0,0,1-2.109,2.108h-41.669a2.108,2.108,0,0,1-2.108-2.108h0A2.109,2.109,0,0,1,2289.927-448.949Z" transform="translate(-1161.803 3573.6)" fill="#e8eaed"/>
      <path id="Rectangle_41" data-name="Rectangle 41" d="M2246.389-437.4h75.65a1.86,1.86,0,0,1,1.86,1.86h0a1.86,1.86,0,0,1-1.86,1.86h-75.65a1.86,1.86,0,0,1-1.86-1.86h0A1.86,1.86,0,0,1,2246.389-437.4Z" transform="translate(-1151.997 3570.985)" fill="#e8eaed"/>
      <path id="Rectangle_42" data-name="Rectangle 42" d="M2307.906-425.541h28.524a1.488,1.488,0,0,1,1.488,1.488h0a1.488,1.488,0,0,1-1.488,1.488h-28.524a1.488,1.488,0,0,1-1.488-1.488h0A1.489,1.489,0,0,1,2307.906-425.541Z" transform="translate(-1166.016 3568.298)" fill="#e8eaed"/>
      <path id="Rectangle_43" data-name="Rectangle 43" d="M2274.592-526.551h54.566a1.737,1.737,0,0,1,1.737,1.736h0a1.736,1.736,0,0,1-1.737,1.736h-54.566a1.737,1.737,0,0,1-1.737-1.736h0A1.737,1.737,0,0,1,2274.592-526.551Z" transform="translate(-1158.413 3591.178)" fill="#e8eaed"/>
      <rect id="Rectangle_44" data-name="Rectangle 44" width="45.39" height="41.173" rx="12" transform="translate(1189.667 3049.745)" fill="#e6e6e6"/>
      <rect id="Rectangle_45" data-name="Rectangle 45" width="45.39" height="41.173" rx="12" transform="translate(1189.667 3106.173)" fill="#e6e6e6"/>
      <path id="Path_182" data-name="Path 182" d="M2566.022-452.433v-20.274l20.556,3.288Z" transform="translate(-1229.842 3574.341)" fill="#c22328"/>
      <path id="Path_183" data-name="Path 183" d="M2625.781-311.756l-1.169-17.6h23.724l-1.962,17.6Z" transform="translate(-1238.092 3548.057)" fill="#185abc"/>
      <path id="Path_184" data-name="Path 184" d="M2627.984-349.446l-.974-13.708v-17.029l3.055,16.964.52-3.444v-15.275l1.885,8.839,1.495-4.42.325,11.826s1.1-7.081,1.1-7.276,1.95-10.854,1.95-10.854l.975,9.295,1.755-14.232,1.04,15.014.65,3.12,1.3-10.854.845,19.759,1.56-8.709.585,6.824v5.394l2.015-3.965-2.6,12.733Z" transform="translate(-1238.635 3563.06)" fill="#34a853"/>
      <path id="Path_187" data-name="Path 187" d="M2623.309-337.932l23.72.267,3.412,6.37h-30.45Z" transform="translate(-1237.045 3550)" fill="#185abc"/>
      <path id="Path_190" data-name="Path 190" d="M2572.679-240.777c-2.667-4.212-6.716-6.559-11.6-7.549-8.392-1.819-9.6-1.055-9.6-1.055s.392,6.745.586,8.026-3.646,10.432-3.646,10.432-4.035,8.112-5.017,9.624-3.61,7.451-3.651,11.3-1.9,15.938-1.9,15.938l-1.768,13.343-1.3,10.2,6.5-10.032,7.484-13.072,7.467-14.432,8.676-16.771S2572.807-239.884,2572.679-240.777Z" transform="translate(-1217.743 3528.431)" fill="#f3e4e4"/>
      <path id="Path_467" data-name="Path 467" d="M2508.737-409.538a5.955,5.955,0,0,0,.817,2.392,6.8,6.8,0,0,0,4.5,2.911c3.342.664,7.36-1.017,8.169-3.649a1.834,1.834,0,0,0,.1-1.21C2521.495-411.31,2513.685-410.354,2508.737-409.538Z" transform="translate(-1211.844 3564.882)" fill="#606060" opacity="0.5"/>
      <path id="Path_150" data-name="Path 150" d="M2525.33-425.32a15.59,15.59,0,0,1-2.573,4.36c-.878,1.047-4.26,5.12-9.006,5.12a10.689,10.689,0,0,1-7.513-3.416c-6.357-6.305-6.766-16.225-6.775-19.462,0-.331,0-.6.007-.79-.316-6.439,3-12.243,8.205-14.606,6.916-3.139,14.172,1.152,17.611,5.209C2530.41-442.864,2530.6-433.17,2525.33-425.32Z" transform="translate(-1209.74 3575.015)" fill="#fcf2f2"/>
      <path id="Path_151" data-name="Path 151" d="M2547.172-394.222a1.807,1.807,0,0,1-.534.956c-1.106.942-3.56.025-5.01-1.044-.568-.418-.521-.521-1.228-1.023a9.353,9.353,0,0,0-2.729-1.365,7.2,7.2,0,0,0-3.276-.068,16.692,16.692,0,0,1-9.692-1.843,15.373,15.373,0,0,1-6.21-7.3c-.439-1.129-3.322-19.244,1.759-21.866,1.766-2.695,4.452-7.024,2.806-15.047,0,0,.091-2.185-6.9-11.215a3.326,3.326,0,0,0-2.263-1.514c-1.532-.046-2.713,1.824-3.493,3.017-2.939,4.512-6.62,9.016-11.286,11.82a7.556,7.556,0,0,1-1.88.839,2.964,2.964,0,0,1-2.34-.2,4.009,4.009,0,0,1-1.521-2.207,19.767,19.767,0,0,1-.365-10.625,26.955,26.955,0,0,1,6.1-12.432,21.342,21.342,0,0,1,11.912-6.862,21.657,21.657,0,0,1,12.207,1.5c6.434,2.723,11.771,8.788,12.081,15.767.2,4.515-1.592,8.728-2.734,13-.671,2.511-.627,6.43-1.083,14.155-2.365,12.406,4.688,20.422,7.137,21.8,3.075,1.728,4.6,3.816,6.71,6.711C2546.746-397.338,2547.575-395.732,2547.172-394.222Z" transform="translate(-1208.156 3582.802)" fill="#4285f4"/>
      <rect id="Rectangle_197" data-name="Rectangle 197" width="105" height="64" rx="9" transform="translate(1336 3046)" fill="#c22328"/>
      <g id="Group_281" data-name="Group 281" transform="translate(1361.705 3073.168)">
        <ellipse id="Ellipse_5" data-name="Ellipse 5" cx="5.971" cy="5.971" rx="5.971" ry="5.971" transform="translate(0)" fill="#fff"/>
        <ellipse id="Ellipse_6" data-name="Ellipse 6" cx="5.971" cy="5.971" rx="5.971" ry="5.971" transform="translate(23.205)" fill="#fff"/>
        <ellipse id="Ellipse_7" data-name="Ellipse 7" cx="5.971" cy="5.971" rx="5.971" ry="5.971" transform="translate(46.409)" fill="#fff"/>
      </g>
      <g id="Group_282" data-name="Group 282" transform="translate(1243.22 3000.892)">
        <path id="Path_477" data-name="Path 477" d="M650.348,3478.188l-14.538-10.614v16.649Z" transform="translate(-635.81 -3467.5)" fill="#fbbc04"/>
        <path id="Path_478" data-name="Path 478" d="M635.81,3478.188l14.538-10.614v16.649Z" transform="translate(-625.074 -3467.5)" fill="#fbbc04"/>
        <path id="Path_479" data-name="Path 479" d="M635.81,3488.085h25.28l-12.621-7.523Z" transform="translate(-635.81 -3471.362)" fill="#f69d03"/>
        <path id="Path_170" data-name="Path 170" d="M2435.372-613.325l25.219-.008-12.473,10.863Z" transform="translate(-2435.349 613.333)" fill="#ea4335"/>
      </g>
      <g id="Group_283" data-name="Group 283" transform="translate(1199.905 3062.771)">
        <path id="Path_477-2" data-name="Path 477" d="M650.348,3478.188l-14.538-10.614v16.649Z" transform="translate(-635.81 -3467.5)" fill="#fbbc04"/>
        <path id="Path_478-2" data-name="Path 478" d="M635.81,3478.188l14.538-10.614v16.649Z" transform="translate(-625.074 -3467.5)" fill="#fbbc04"/>
        <path id="Path_479-2" data-name="Path 479" d="M635.81,3488.085h25.28l-12.621-7.523Z" transform="translate(-635.81 -3471.362)" fill="#f69d03"/>
        <path id="Path_170-2" data-name="Path 170" d="M2435.372-613.325l25.219-.008-12.473,10.863Z" transform="translate(-2435.349 613.333)" fill="#ea4335"/>
      </g>
      <g id="Group_284" data-name="Group 284" transform="translate(1199.905 3120.008)">
        <path id="Path_477-3" data-name="Path 477" d="M650.348,3478.188l-14.538-10.614v16.649Z" transform="translate(-635.81 -3467.5)" fill="#fbbc04"/>
        <path id="Path_478-3" data-name="Path 478" d="M635.81,3478.188l14.538-10.614v16.649Z" transform="translate(-625.074 -3467.5)" fill="#fbbc04"/>
        <path id="Path_479-3" data-name="Path 479" d="M635.81,3488.085h25.28l-12.621-7.523Z" transform="translate(-635.81 -3471.362)" fill="#f69d03"/>
        <path id="Path_170-3" data-name="Path 170" d="M2435.372-613.325l25.219-.008-12.473,10.863Z" transform="translate(-2435.349 613.333)" fill="#ea4335"/>
      </g>
      <path id="Path_153" data-name="Path 153" d="M2485.927-323.871c0-.372,4.588-46.382,4.588-46.382l71.186.868-4.588,48.875h-79.37l-.5-4.725Z" transform="translate(-1204.711 3556.774)" fill="#fcf2f2"/>
    </g>
  </g>
</svg>
