<svg xmlns="http://www.w3.org/2000/svg" width="433" height="433" viewBox="0 0 433 433">
  <g id="Group_286" data-name="Group 286" transform="translate(-427 -4525)">
    <g id="Group_32" data-name="Group 32" transform="translate(427 4525)" opacity="0.98">
      <g id="Ellipse_1" data-name="Ellipse 1" transform="translate(172 172)" fill="none" stroke="#f37c7e" stroke-linejoin="round" stroke-width="0.5">
        <circle cx="44.5" cy="44.5" r="44.5" stroke="none"/>
        <circle cx="44.5" cy="44.5" r="44.25" fill="none"/>
      </g>
      <g id="Ellipse_2" data-name="Ellipse 2" transform="translate(110 110)" fill="none" stroke="#f37c7e" stroke-linejoin="round" stroke-width="0.5" opacity="0.96">
        <circle cx="106.5" cy="106.5" r="106.5" stroke="none"/>
        <circle cx="106.5" cy="106.5" r="106.25" fill="none"/>
      </g>
      <g id="Ellipse_3" data-name="Ellipse 3" transform="translate(51 51)" fill="none" stroke="#f37c7e" stroke-linejoin="round" stroke-width="0.5" opacity="0.52">
        <circle cx="165.5" cy="165.5" r="165.5" stroke="none"/>
        <circle cx="165.5" cy="165.5" r="165.25" fill="none"/>
      </g>
      <g id="Ellipse_4" data-name="Ellipse 4" fill="none" stroke="#f37c7e" stroke-linejoin="round" stroke-width="0.5" opacity="0.34">
        <circle cx="216.5" cy="216.5" r="216.5" stroke="none"/>
        <circle cx="216.5" cy="216.5" r="216.25" fill="none"/>
      </g>
    </g>
    <g id="Group_285" data-name="Group 285">
      <path id="Path_282" data-name="Path 282" d="M2988.4-2298.69l3.579,1.141,16.667-46.387v-13.055c0-5,13.333-17.916,15.555-19.027s6.389,0,5.417,1.944,14.721-16.8,18.333-16.666,9.583,2.222,3.612,9.444-5.14,8.056-5.14,8.056,5.833.555,5.278,6.111a39.062,39.062,0,0,1-1.662,8.611s1.662,1.111,1.662,1.944a22.6,22.6,0,0,1-.695,4.583c-.278.555,1.389,2.222,1.527,3.333s1.667,8.194-1.8,9.166-6.528,1.666-7.361,1.944-10,73.469-15.97,84.3-53.224-4.962-53.224-4.962Z" transform="translate(-2272.583 7058.208)" fill="#f3e4e4"/>
      <path id="Path_283" data-name="Path 283" d="M2870.14-2344.388s.249,16.2-1.977,22.309c-.3.831-.633,1.689-1.087,2.781-2.178,5.246-5.534,10.9-9.438,11.061-4.52.185-8.871,0-8.871,0s11.386,13.518,24.906,14.814,23.887.74,35.925-7.777c0,0,4.606-4.838,4.814-5.185s-4.654-2.708-6.389-5.971-1.379-16.415-1.379-16.415a32.593,32.593,0,0,1-14.152-.979c-7-2.138-12.583-6.655-19.466-12.225C2871.8-2342.966,2870.809-2343.811,2870.14-2344.388Z" transform="translate(-2251.402 7050.379)" fill="#f3e4e4"/>
      <path id="Path_284" data-name="Path 284" d="M2840.393-2301.119s-19.814-2.222-33.146,8.7-28.333,46.665-28.333,46.665,21.11,6.666,28.333,8.518,17.592,5.556,17.592,5.556l6.111,85.173,101.663,2.231-3.333-102.5,11.386,5,16.11-45.831s-8.055-10.741-21.941-13.7-32.221,2.038-32.221,2.038S2865.115-2268.25,2840.393-2301.119Z" transform="translate(-2239.603 7043.26)" fill="#fbbc04"/>
      <path id="Path_287" data-name="Path 287" d="M3102.194-2340.428H2989.579c-1.9,0-3.48-1.152-3.619-2.64l-7.245-76.963c-.148-1.57,1.352-2.937,3.35-3.053.09-.005.179-.007.269-.007h112.287c1.9,0,3.472,1.146,3.619,2.63l7.574,76.963c.155,1.569-1.34,2.939-3.338,3.062C3102.382-2340.431,3102.288-2340.428,3102.194-2340.428Z" transform="translate(-2286.995 7063.672)" fill="#fffeff" stroke="#939393" stroke-miterlimit="10" stroke-width="0.25" opacity="0.7" style="isolation: isolate"/>
      <path id="Rectangle_60" data-name="Rectangle 60" d="M2996-2403.941h68.017a3.073,3.073,0,0,1,3.073,3.073h0a3.073,3.073,0,0,1-3.073,3.073H2996a3.073,3.073,0,0,1-3.073-3.073h0A3.073,3.073,0,0,1,2996-2403.941Z" transform="translate(-2275.75 7060.438)" fill="#f2e8e8" opacity="0.6" style="isolation: isolate"/>
      <path id="Rectangle_61" data-name="Rectangle 61" d="M3033.857-2381.381h36.248a3.333,3.333,0,0,1,3.333,3.333h0a3.333,3.333,0,0,1-3.333,3.333h-36.248a3.334,3.334,0,0,1-3.333-3.333h0A3.334,3.334,0,0,1,3033.857-2381.381Z" transform="translate(-2253.101 7056.627)" fill="#fff" opacity="0.6" style="isolation: isolate"/>
      <path id="Rectangle_62" data-name="Rectangle 62" d="M3020.323-2347.792h47.5a3.334,3.334,0,0,1,3.333,3.333h0a3.333,3.333,0,0,1-3.333,3.333h-47.5a3.333,3.333,0,0,1-3.333-3.333h0A3.334,3.334,0,0,1,3020.323-2347.792Z" transform="translate(-2279.815 7050.954)" fill="#fff" opacity="0.6" style="isolation: isolate"/>
      <path id="Path_288" data-name="Path 288" d="M2838.309-2405.535a10.96,10.96,0,0,0,5.927-14.322,10.958,10.958,0,0,0-5.472-5.726c.568-1.3,1.107-2.638,1.751-3.922a1.138,1.138,0,0,1,1.01-.279,10.8,10.8,0,0,0,11.787-3.774,10.44,10.44,0,0,0,1.757-9.579c-.2-.719-.118-1.077.549-1.342,1.314-.517,2.628-1.049,3.932-1.587.535-.219.828-.063,1.119.443a10.672,10.672,0,0,0,14.42,4.455,10.669,10.669,0,0,0,4.323-4.212c.383-.62.711-.792,1.375-.487,1.16.525,2.332.994,3.506,1.481.552.227.724.514.548,1.16a10.682,10.682,0,0,0,6.973,13.4,10.675,10.675,0,0,0,6.213.066c.845-.219,1.2,0,1.46.715.05.135.131.26.184.391.376.943,1.139,1.952.994,2.807-.118.689-1.325,1.195-2.066,1.771a10.668,10.668,0,0,0-1.857,14.976,10.67,10.67,0,0,0,3.578,2.952c.91.484,1.032.921.663,1.758-.5,1.128-.93,2.281-1.38,3.43-.219.555-.484.759-1.15.555a10.728,10.728,0,0,0-13.547,6.833,10.737,10.737,0,0,0,.1,7c.166.514.113.813-.4,1.027-1.3.544-2.61,1.091-3.892,1.672-.641.29-.8-.114-1.052-.555a10.378,10.378,0,0,0-10.172-5.788,10.125,10.125,0,0,0-8.825,5.648c-.462.861-.893,1.069-1.763.663-1.148-.539-2.32-1.006-3.508-1.476-.621-.254-.734-.568-.508-1.249a10.579,10.579,0,0,0-6.273-13.583,10.522,10.522,0,0,0-1.819-.491,15.448,15.448,0,0,0-5.241.3c-.873.143-1.245.038-1.534-.754C2839.483-2402.61,2838.9-2404.044,2838.309-2405.535Zm18.858-10.067a12.943,12.943,0,0,0,13,12.888,12.942,12.942,0,0,0,12.887-13,12.942,12.942,0,0,0-13-12.888h-.005a12.849,12.849,0,0,0-12.882,12.816c0,.059,0,.121,0,.18Z" transform="translate(-2282.572 7019.819)" fill="none" stroke="#ffc655" stroke-linejoin="round" stroke-miterlimit="10" stroke-width="4"/>
      <path id="Path_289" data-name="Path 289" d="M2997.242-2374.618a2.321,2.321,0,0,0,1.253-3.033,2.321,2.321,0,0,0-1.157-1.211c.121-.276.234-.558.371-.831a.242.242,0,0,1,.214-.059,2.287,2.287,0,0,0,2.493-.8,2.211,2.211,0,0,0,.371-2.028c-.042-.153-.024-.229.117-.284.278-.11.556-.221.831-.332.114-.047.174-.013.238.094a2.258,2.258,0,0,0,3.052.942,2.256,2.256,0,0,0,.915-.891c.083-.131.151-.166.292-.1.244.111.494.212.742.313.116.048.153.109.116.249a2.261,2.261,0,0,0,1.476,2.837,2.26,2.26,0,0,0,1.316.014c.179-.046.254,0,.309.151.011.029.027.056.039.083.083.2.242.416.21.594-.025.146-.282.25-.437.375a2.259,2.259,0,0,0-.392,3.171,2.25,2.25,0,0,0,.756.624c.192.1.219.2.141.372-.1.239-.2.483-.292.726-.048.117-.1.161-.243.117a2.272,2.272,0,0,0-2.868,1.447,2.272,2.272,0,0,0,.021,1.481c.035.109.024.172-.083.217-.276.115-.553.231-.824.354-.136.062-.167-.024-.223-.117a2.2,2.2,0,0,0-2.154-1.225,2.141,2.141,0,0,0-1.868,1.2c-.1.183-.188.226-.374.14-.243-.114-.492-.213-.742-.312-.132-.053-.156-.121-.107-.264a2.244,2.244,0,0,0-1.336-2.878,2.288,2.288,0,0,0-.377-.1,3.257,3.257,0,0,0-1.11.064c-.185.03-.263.008-.326-.16C2997.491-2374,2997.367-2374.3,2997.242-2374.618Zm3.989-2.131a2.742,2.742,0,0,0,2.752,2.733,2.743,2.743,0,0,0,2.733-2.752,2.743,2.743,0,0,0-2.752-2.734h-.008a2.721,2.721,0,0,0-2.723,2.717v.035Z" transform="translate(-2276.48 7056.937)" fill="none" stroke="#e1e1e9" stroke-miterlimit="10" stroke-width="1" style="isolation: isolate"/>
      <g id="Group_53" data-name="Group 53" transform="translate(507.456 4709.421)">
        <path id="Path_290" data-name="Path 290" d="M2834.752-2325.59l1.8,1.8,8.2,8.2a6.139,6.139,0,0,1,0,8.685,6.142,6.142,0,0,1-8.686,0l-10-10.008-10.01,10.008a6.138,6.138,0,0,1-8.679-.006,6.138,6.138,0,0,1,.006-8.679h0l10-10-10.008-10.008a6.14,6.14,0,0,1,.115-8.683,6.138,6.138,0,0,1,8.569,0l10.01,10.008" transform="translate(-2805.584 2346.073)" fill="#fff" stroke="#4385f5" stroke-linejoin="round" stroke-miterlimit="10" stroke-width="4"/>
        <path id="Path_291" data-name="Path 291" d="M2824.179-2325.565h0l-.167-.146.6-.288,9.564-9.574a6.166,6.166,0,0,0,0-8.686,6.166,6.166,0,0,0-8.686,0l-10.634,10.514.416-.386" transform="translate(-2795.01 2346.047)" fill="#fff" stroke="#4385f5" stroke-linecap="round" stroke-linejoin="round" stroke-miterlimit="10" stroke-width="4"/>
      </g>
      <g id="Group_54" data-name="Group 54" transform="translate(741.55 4704.595)" opacity="0.3">
        <path id="Rectangle_63" data-name="Rectangle 63" d="M3022.422-2345.9h0a.569.569,0,0,1,.805,0l2.661,2.661a.57.57,0,0,1,0,.8h0a.569.569,0,0,1-.805,0l-2.661-2.661A.57.57,0,0,1,3022.422-2345.9Z" transform="translate(-3022.255 2346.067)" fill="#c12328"/>
        <path id="Rectangle_64" data-name="Rectangle 64" d="M3025.888-2345.9h0a.569.569,0,0,1,0,.805l-2.661,2.661a.57.57,0,0,1-.8,0h0a.569.569,0,0,1,0-.805l2.66-2.661A.57.57,0,0,1,3025.888-2345.9Z" transform="translate(-3022.255 2346.067)" fill="#c12328"/>
      </g>
      <circle id="Ellipse_17" data-name="Ellipse 17" cx="9.814" cy="9.814" r="9.814" transform="translate(518.404 4665.216)" fill="#c12328"/>
      <circle id="Ellipse_18" data-name="Ellipse 18" cx="3.473" cy="3.473" r="3.473" transform="translate(578.808 4666.771)" fill="#ffc655"/>
      <path id="Path_293" data-name="Path 293" d="M2813.971-2225.456c-.048.617-.091,1.4-.091,1.4s.914-.653,1.37-.987l.193-.141c5.475-3.989,10.547-8.448,16.958-11.652a66.669,66.669,0,0,1,21.253-6.615c7.378-.944,15.327.095,21.749,4.029,2.295,1.4,12.738,10.727,4.691,11.235-.708.043-1.42.059-2.129.039a24.921,24.921,0,0,1-6.933-1.153,8.681,8.681,0,0,1,5.5.338,6.192,6.192,0,0,1,1.433.814,3.639,3.639,0,0,1,1.535,2.463c.228,2.173-2.035,3.836-4.184,4.234-.327.059-.653.1-.98.134a22.038,22.038,0,0,1-6.327-.708,12.374,12.374,0,0,1,4.97.1,2.922,2.922,0,0,1,1.357.606.49.49,0,0,1,.045.039c1.041,1.023.256,2.826-.8,3.84-2.062,1.987-4.761,2.424-7.057,3.864a7.71,7.71,0,0,0,2.1.614,1.29,1.29,0,0,1,.987.563,1.037,1.037,0,0,1-.137.921,4.9,4.9,0,0,1-3.1,1.9c-5.056,1.409-9.921.862-15.055.488a1.29,1.29,0,0,0-.613.052,1.316,1.316,0,0,0-.523.524c-7.673,11.372-15.547,22.4-25.747,31.65-.221.2-.44.4-.665.6-5.537,4.931-10.8,10.5-17.928,13.131a29.721,29.721,0,0,1-14.858,1.286c-8.543-1.338-16.751-6.217-20.88-13.816-3.337-6.135-3.809-13.47-2.963-20.408a136.947,136.947,0,0,1,6.517-26.739c.228-.685,3.62-10.277,4.781-13.284" transform="translate(-2237.553 7033.384)" fill="#f3e4e4"/>
      <path id="Path_475" data-name="Path 475" d="M2874.83-2343.9c-2.06-2.511,2.72,5.434,4.153,7.216,7.872,9.795,21.659,14.422,31.343,10.188.2-.09.365-.165.439-.2,0,0,.173.2.171-.357s.029-3.7.029-3.7S2879.848-2337.787,2874.83-2343.9Z" transform="translate(-2255.718 7050.379)" fill="#898381" opacity="0.3"/>
      <path id="Path_285" data-name="Path 285" d="M2913.143-2384.914s6.25,16.111,5,28.887-5.557,17.083-9.309,18.194a34.2,34.2,0,0,1-34.166-10.833s-2.915-5.416-4.167-4.722-8.888,5.416-12.5-.831-1.5-13.869.864-14.861,12.739.31,13.581.695,1.527-17.5,5.972-20.972,16.945-9.86,23.194-5.971A54.531,54.531,0,0,1,2913.143-2384.914Z" transform="translate(-2252.634 7059.188)" fill="#f3e4e4"/>
      <path id="Path_286" data-name="Path 286" d="M2868.159-2400.25s2.361-10.277,9.862-12.5,15.416,1.111,15.416,1.111-.278-8.333,7.638-12.083,18.749-6.111,25.278.972a18.2,18.2,0,0,1,1.944,22.5c-4.028,6.111-12.916,8.471-13.333,8.055s-.831,2.222,1.528,2.222.139,2.5-2.083,2.361-9.859-2.084-9.859-3.611-7.222-2.5-8.611-3.75-2.639-.556-5,1.528-12.639,3.056-12.639,3.056,1.944,5.139-.139,9.444-4.445,9.028-5.556,8.471-6.944-3.056-9.725-2.361-4.445-12.361-2.777-15.833S2865.521-2399,2868.159-2400.25Z" transform="translate(-2253.204 7064.386)" fill="#4285f4"/>
    </g>
  </g>
</svg>
