<svg xmlns="http://www.w3.org/2000/svg" width="106.316" height="101" viewBox="0 0 106.316 101">
  <g id="Group_308" data-name="Group 308" transform="translate(-397.247 -1123)">
    <g id="Rectangle_198" data-name="Rectangle 198" transform="translate(397.247 1123)" fill="#c12328" stroke="#707070" stroke-width="1" opacity="0.06">
      <rect width="106.316" height="101" rx="16" stroke="none"/>
      <rect x="0.5" y="0.5" width="105.316" height="100" rx="15.5" fill="none"/>
    </g>
    <g id="Group_9" data-name="Group 9" transform="translate(422.027 1146.339)">
      <path id="Path_8" data-name="Path 8" d="M38.723,74.7a1.108,1.108,0,0,1-.887-1.219c-.006-2.31,0-20.3,0-22.6,0-.989-.006-1.972,0-2.961a4.827,4.827,0,0,0-1.691-3.772,7.926,7.926,0,0,1-2.725-5.074,8.137,8.137,0,0,1,3.906-8.233c.313-.211.511-.1.511.287.006,1.525-.006,3.057.006,4.582a2.553,2.553,0,0,0,1.991,2.534,2.775,2.775,0,0,0,.689.064c.67.006,1.34-.013,2.01.006a2.628,2.628,0,0,0,2.642-2.629c-.032-1.583-.006-3.165-.006-4.748,0-.472.147-.568.549-.338a8.314,8.314,0,0,1,1.289,13.747,4.945,4.945,0,0,0-1.876,4.008c.013,3.127-.013,21.935.013,25.068a1.3,1.3,0,0,1-1.41,1.391C43.356,74.793,39.272,74.78,38.723,74.7Z" transform="translate(-13.422 -12.385)" fill="none" stroke="#c12328" stroke-linecap="round" stroke-miterlimit="10" stroke-width="2.5"/>
      <path id="Path_9" data-name="Path 9" d="M38.045,51.653a25.393,25.393,0,0,0,4.1-1.966c.153-.1.306-.185.459-.281,1.11,1.047,2.227,2.087,3.338,3.133a1.979,1.979,0,0,0,1.161.389,2.142,2.142,0,0,0,1.347-.638c1.506-1.321,3.382-3.331,3.663-3.631a1.859,1.859,0,0,0,.447-1.168,1.892,1.892,0,0,0-.651-1.417c-.945-.97-1.9-1.94-2.84-2.9a21.9,21.9,0,0,0,2.342-4.314,22.793,22.793,0,0,0,1.155-3.753.006.006,0,0,1,.006-.006c1.564.006,3.127.006,4.691.013a1.978,1.978,0,0,0,1.021-.651,2.114,2.114,0,0,0,.377-1.749q.019-2.441.026-4.889a2,2,0,0,0-.721-1.079,2.245,2.245,0,0,0-1.436-.338c-.919.026-2.112,0-3.8-.115-.523-1.6-1.04-3.21-1.564-4.812l-1.678-3.427c1.085-1.079,2.17-2.163,3.255-3.242a1.861,1.861,0,0,0,.294-1,2.064,2.064,0,0,0-.5-1.232,36.931,36.931,0,0,0-4.046-4.027,1.9,1.9,0,0,0-1.021-.23,1.968,1.968,0,0,0-1.04.44,30.807,30.807,0,0,0-3.159,3.051,25.542,25.542,0,0,0-2.917-1.723,26.039,26.039,0,0,0-5.093-1.934c-.013-1.487-.032-2.968-.045-4.455a1.878,1.878,0,0,0-.581-1.034,2.182,2.182,0,0,0-1.513-.447c-1.206-.019-2.993-.064-5.246-.1a1.991,1.991,0,0,0-1.232.862,1.727,1.727,0,0,0-.191.964c.045.919.013,2.342-.064,4.3-.594.089-1.213.211-1.864.37a20.514,20.514,0,0,0-6.267,2.744c-1.085-1.04-2.163-2.08-3.248-3.121a1.836,1.836,0,0,0-.97-.4,2.076,2.076,0,0,0-1.372.459,30.941,30.941,0,0,0-4.135,4.225,1.891,1.891,0,0,0-.1,1.276,2.06,2.06,0,0,0,.562.893c.645.638,1.608,1.64,2.853,2.9A21.809,21.809,0,0,0,9.9,20.988a22.343,22.343,0,0,0-1.557,4.684l-4.6-.038a1.878,1.878,0,0,0-.983.53,2.048,2.048,0,0,0-.491,1.213,43.237,43.237,0,0,0-.115,5.495,2.182,2.182,0,0,0,.734,1.11,2.421,2.421,0,0,0,1.576.383c.874-.006,2.055.019,3.682.14a28.743,28.743,0,0,0,.906,3.082,28.3,28.3,0,0,0,2.3,4.882L8.306,45.782a1.765,1.765,0,0,0-.408.906,2.214,2.214,0,0,0,.549,1.57,28.619,28.619,0,0,0,4.078,4.014,1.994,1.994,0,0,0,.97.166,2.764,2.764,0,0,0,1.685-1.059c.562-.587,1.359-1.391,2.47-2.419A22.058,22.058,0,0,0,20.655,50.7c.594.281,1.168.523,1.717.728" transform="translate(-2.124 -2.13)" fill="none" stroke="#c12328" stroke-linecap="round" stroke-miterlimit="10" stroke-width="2.5"/>
    </g>
  </g>
</svg>
