<svg width="104" height="78" viewBox="0 0 104 78" fill="none" xmlns="http://www.w3.org/2000/svg">
<path d="M98.4545 76.6263H29.1618C26.3059 76.6263 23.9912 74.3116 23.9912 71.4557C23.9912 68.5999 26.3059 66.2852 29.1618 66.2852H98.4528C101.309 66.2852 103.623 68.5999 103.623 71.4557C103.623 74.3116 101.31 76.6263 98.4545 76.6263Z" fill="white"/>
<path d="M98.4545 44.1706H29.1618C26.3059 44.1706 23.9912 41.8559 23.9912 39.0001C23.9912 36.1442 26.3059 33.8295 29.1618 33.8295H98.4528C101.309 33.8295 103.623 36.1442 103.623 39.0001C103.625 41.8559 101.31 44.1706 98.4545 44.1706Z" fill="white"/>
<path d="M98.4545 11.7148H29.1618C26.3059 11.7148 23.9912 9.40013 23.9912 6.54424C23.9912 3.68836 26.3059 1.37366 29.1618 1.37366H98.4528C101.309 1.37366 103.623 3.68836 103.623 6.54424C103.623 9.40013 101.31 11.7148 98.4545 11.7148Z" fill="white"/>
<path d="M6.9441 13.8882C10.7792 13.8882 13.8882 10.7792 13.8882 6.9441C13.8882 3.10898 10.7792 0 6.9441 0C3.10898 0 0 3.10898 0 6.9441C0 10.7792 3.10898 13.8882 6.9441 13.8882Z" fill="white"/>
<path d="M6.9441 45.9441C10.7792 45.9441 13.8882 42.8351 13.8882 39C13.8882 35.1649 10.7792 32.0559 6.9441 32.0559C3.10898 32.0559 0 35.1649 0 39C0 42.8351 3.10898 45.9441 6.9441 45.9441Z" fill="white"/>
<path d="M6.9441 78C10.7792 78 13.8882 74.891 13.8882 71.0559C13.8882 67.2208 10.7792 64.1118 6.9441 64.1118C3.10898 64.1118 0 67.2208 0 71.0559C0 74.891 3.10898 78 6.9441 78Z" fill="white"/>
</svg>
