<svg xmlns="http://www.w3.org/2000/svg" width="287.795" height="58.448" viewBox="0 0 287.795 58.448">
  <g id="Group_64" data-name="Group 64" transform="translate(-599.172 -498.256)">
    <text id="_" data-name=" " transform="translate(699.014 541.43)" fill="#181617" font-size="33" font-family="Montserrat-Regular, Montserrat"><tspan x="0" y="0"> </tspan></text>
    <text id="INSURANCE" transform="translate(707.967 541.591)" fill="#5a5a5d" font-size="25" font-family="Montserrat-Regular, Montserrat"><tspan x="0" y="0" letter-spacing="0.12em">INSUR</tspan><tspan y="0" letter-spacing="0.119em">A</tspan><tspan y="0" letter-spacing="0.12em">N</tspan><tspan y="0" letter-spacing="0.119em">C</tspan><tspan y="0">E</tspan></text>
    <path id="Path_306" data-name="Path 306" d="M604.577,523.538l-.062,13.2h.01V544.9a5.206,5.206,0,0,0,5.187,5.177h7.469v5.353h-7.469a10.554,10.554,0,0,1-10.54-10.53v-8.164l.011-.01.052-13.206Z" transform="translate(0 -12.376)" fill="#181617"/>
    <path id="Path_307" data-name="Path 307" d="M721.015,563.68h-12.9a8.26,8.26,0,0,1-5.841-2.428v-.01a8.233,8.233,0,0,1-2.427-5.84v-5.81a8.288,8.288,0,0,1,8.268-8.279h5.82a8.26,8.26,0,0,1,5.851,2.428h-.01a8.268,8.268,0,0,1,2.438,5.851v5.81h-5.363v-5.81a2.916,2.916,0,0,0-.841-2.064H716a2.945,2.945,0,0,0-2.065-.861h-5.82a2.94,2.94,0,0,0-2.915,2.925v5.81a2.9,2.9,0,0,0,.85,2.064h.011a2.9,2.9,0,0,0,2.054.861h12.9Z" transform="translate(-49.327 -21.095)" fill="#181617"/>
    <path id="Path_308" data-name="Path 308" d="M667.231,523.538V544.9a5.127,5.127,0,0,0,1.525,3.652v.01a5.141,5.141,0,0,0,3.651,1.514h6.131v5.353h-6.131a10.554,10.554,0,0,1-10.53-10.53V523.517Z" transform="translate(-30.722 -12.376)" fill="#181617"/>
    <path id="Path_309" data-name="Path 309" d="M681.457,546.921l-7.552-.062v.01h-3.382v-5.353h3.382l.01.011,7.563.062Z" transform="translate(-34.958 -21.195)" fill="#181617"/>
    <rect id="Rectangle_69" data-name="Rectangle 69" width="18.155" height="5.353" transform="translate(654.747 529.669)" fill="#181617"/>
    <path id="Path_310" data-name="Path 310" d="M648.184,541.761v22.191H642.82V545.537Z" transform="translate(-21.385 -21.315)" fill="#181617"/>
    <path id="Path_311" data-name="Path 311" d="M648.184,523.761v5.374l-5.364,3.776v-9.15Z" transform="translate(-21.385 -12.496)" fill="#cb001c"/>
    <rect id="Rectangle_70" data-name="Rectangle 70" width="2.21" height="58.448" transform="translate(688.338 498.256)" fill="#cb001c"/>
  </g>
</svg>
