<svg xmlns="http://www.w3.org/2000/svg" width="246.569" height="58.782" viewBox="0 0 246.569 58.782">
  <g id="Group_258" data-name="Group 258" transform="translate(-599.172 -994.682)">
    <text id="BANKING" transform="translate(704.741 1035.031)" fill="#5a5a5d" font-size="25" font-family="Montserrat-Regular, Montserrat"><tspan x="0" y="0" letter-spacing="0.12em">B</tspan><tspan y="0" letter-spacing="0.119em">A</tspan><tspan y="0" letter-spacing="0.12em">N</tspan><tspan y="0" letter-spacing="0.119em">K</tspan><tspan y="0" letter-spacing="0.12em">IN</tspan><tspan y="0">G</tspan></text>
    <path id="Path_451" data-name="Path 451" d="M604.608,1019.965l-.062,13.272h.01v8.211a5.237,5.237,0,0,0,5.217,5.206h7.512v5.383h-7.512a10.614,10.614,0,0,1-10.6-10.589v-8.211l.011-.01.052-13.282Z" transform="translate(0 -12.303)" fill="#181617"/>
    <path id="Path_452" data-name="Path 452" d="M721.136,1060.235H708.167a8.306,8.306,0,0,1-5.874-2.441v-.01a8.282,8.282,0,0,1-2.441-5.874v-5.843a8.336,8.336,0,0,1,8.315-8.327h5.853a8.307,8.307,0,0,1,5.885,2.442h-.01a8.316,8.316,0,0,1,2.452,5.885v5.843h-5.394v-5.843a2.933,2.933,0,0,0-.845-2.077h-.01a2.964,2.964,0,0,0-2.076-.866h-5.853a2.956,2.956,0,0,0-2.932,2.942v5.843a2.917,2.917,0,0,0,.855,2.076h.011a2.92,2.92,0,0,0,2.066.866h12.969Z" transform="translate(-49.034 -20.97)" fill="#181617"/>
    <path id="Path_453" data-name="Path 453" d="M667.262,1019.965v21.483a5.156,5.156,0,0,0,1.534,3.672v.011a5.173,5.173,0,0,0,3.672,1.523h6.166v5.383h-6.166a10.615,10.615,0,0,1-10.59-10.589v-21.5Z" transform="translate(-30.54 -12.303)" fill="#181617"/>
    <path id="Path_454" data-name="Path 454" d="M681.52,1043.38l-7.6-.062v.01h-3.4v-5.384h3.4l.01.011,7.606.063Z" transform="translate(-34.75 -21.07)" fill="#181617"/>
    <rect id="Rectangle_157" data-name="Rectangle 157" width="18.259" height="5.384" transform="translate(655.064 1026.275)" fill="#181617"/>
    <path id="Path_455" data-name="Path 455" d="M648.215,1038.188v22.317H642.82v-18.519Z" transform="translate(-21.258 -21.189)" fill="#181617"/>
    <path id="Path_456" data-name="Path 456" d="M648.215,1020.188v5.4l-5.394,3.8v-9.2Z" transform="translate(-21.258 -12.422)" fill="#cb001c"/>
    <rect id="Rectangle_158" data-name="Rectangle 158" width="2.223" height="58.782" transform="translate(688.848 994.682)" fill="#cb001c"/>
  </g>
</svg>
