<?xml version="1.0" encoding="utf-8"?>
<!-- Generator: Adobe Illustrator 22.0.0, SVG Export Plug-In . SVG Version: 6.00 Build 0)  -->
<svg version="1.1" id="Layer_1" xmlns="http://www.w3.org/2000/svg" xmlns:xlink="http://www.w3.org/1999/xlink" x="0px" y="0px"
	 viewBox="0 0 252.1 48.5" style="enable-background:new 0 0 252.1 48.5;" xml:space="preserve">
<style type="text/css">
	.st0{fill:#6D6E70;}
	.st1{fill:#7063EA;}
</style>
<g>
	<polygon class="st0" points="72.6,24.5 72.6,39.7 68.3,39.7 68.3,24.5 63.4,24.5 63.4,20.9 77.5,20.9 77.5,24.5 	"/>
	<path class="st0" d="M86.9,20.9c3.9,0,5.9,1.7,5.9,5c0,1.2-0.3,2.1-0.8,2.8c-0.6,0.7-1.3,1.1-2.3,1.1c1.3,0.1,2.3,0.5,3,1.2
		c0.7,0.8,1,1.8,1,3.2c0,3.6-2.2,5.4-6.6,5.4h-6.9V20.9H86.9z M87.9,28.4c0.3-0.1,0.5-0.3,0.7-0.7c0.1-0.3,0.2-0.8,0.2-1.4
		c0-0.6-0.1-1.1-0.2-1.4c-0.1-0.3-0.4-0.5-0.7-0.7c-0.3-0.1-0.8-0.2-1.4-0.2h-2.1v4.5h2.1C87.1,28.6,87.5,28.5,87.9,28.4 M88.3,36.3
		c0.4-0.1,0.6-0.4,0.8-0.7c0.2-0.3,0.2-0.9,0.2-1.5c0-0.7-0.1-1.2-0.2-1.5c-0.2-0.3-0.4-0.6-0.8-0.7c-0.4-0.1-1-0.2-1.7-0.2h-2.3
		v4.9h2.3C87.3,36.5,87.9,36.4,88.3,36.3"/>
	<path class="st0" d="M97.9,37.6c-1.4-1.6-2.1-4-2.1-7.3c0-6.5,2.9-9.7,8.6-9.7c1.5,0,2.8,0.2,4,0.6l-0.8,3.5
		c-0.8-0.4-1.8-0.6-2.9-0.6c-1.2,0-2.1,0.2-2.8,0.5c-0.6,0.4-1.1,1-1.3,1.9c-0.3,0.9-0.4,2.2-0.4,3.9c0,1.7,0.1,3,0.4,3.8
		c0.2,0.9,0.7,1.5,1.3,1.8c0.6,0.3,1.5,0.5,2.7,0.5c1.3,0,2.5-0.3,3.4-0.8l0.8,3.5c-1.3,0.5-2.7,0.7-4.3,0.7
		C101.5,40,99.4,39.2,97.9,37.6"/>
	<path class="st1" d="M24.1,26.9c0.2,2.3,0.3,3.5-1.5,5.4c-1.9,2-6.8,5.8-11.7,8.6c-2.1,1.2-4.9,2.7-7,3.4c-1.6,0.6-2.9,0.8-3.6-0.3
		c-0.4-0.7-0.2-1.4,0-2C2,37.4,6.9,28.6,10.2,23c0.3-0.6,0.7-1.2,1-1.8c5-8.6,11.6-19.1,12.9-20.8c0.2-0.2,0.5-0.5,0.8-0.3
		c0.3,0.1,0.3,0.5,0.2,0.7c0,0-0.1,0.3-0.1,0.5C22.9,9.9,23.1,18.4,24.1,26.9"/>
	<path class="st1" d="M31.4,29.5c-2.1-1-3.2-1.4-4-4c-0.8-2.7-1.6-8.7-1.6-14.5c0-2.4,0.1-5.6,0.5-7.8c0.3-1.7,0.8-2.9,2.1-2.9
		c0.9,0,1.3,0.5,1.7,1c3.2,3.8,8.2,12.5,11.5,18.1c0.3,0.6,0.7,1.2,1,1.8c5,8.6,10.8,19.6,11.6,21.6c0.1,0.3,0.2,0.7-0.1,0.9
		c-0.3,0.1-0.5,0-0.7-0.1c0,0-0.3-0.2-0.3-0.3C46.7,37,39.2,32.9,31.4,29.5"/>
	<path class="st1" d="M25.4,34.5c1.9-1.3,2.8-2,5.5-1.4c2.7,0.7,8.4,3,13.3,5.8c2.1,1.2,4.8,2.9,6.5,4.4c1.3,1.1,2.2,2.1,1.5,3.3
		c-0.4,0.7-1.1,0.9-1.8,1c-4.9,0.8-14.9,0.9-21.5,0.9c-0.7,0-1.4,0-2,0c-9.9,0-22.3-0.5-24.4-0.8c-0.3,0-0.7-0.2-0.7-0.6
		c0-0.3,0.3-0.5,0.5-0.5c0,0,0.3-0.1,0.5-0.1C11.3,44.1,18.6,39.6,25.4,34.5"/>
	<rect x="119.1" y="20.9" class="st0" width="2.1" height="18.8"/>
	<polygon class="st0" points="127.7,20.9 137.4,35.7 137.4,20.9 139.3,20.9 139.3,39.7 137.7,39.7 128,24.9 128,39.7 126.1,39.7 
		126.1,20.9 	"/>
	<path class="st0" d="M142.9,39l0.4-1.9c1.5,0.7,3.1,1.1,4.9,1.1c1.1,0,1.9-0.1,2.4-0.3c0.6-0.2,1-0.6,1.2-1
		c0.2-0.5,0.4-1.2,0.4-2.1c0-0.7-0.1-1.2-0.3-1.6c-0.2-0.4-0.6-0.7-1.2-1c-0.6-0.3-1.5-0.7-2.9-1.3c-1.1-0.4-2-0.9-2.6-1.3
		c-0.6-0.4-1.1-1-1.5-1.6c-0.3-0.6-0.5-1.4-0.5-2.3c0-3.3,1.8-5,5.5-5c1.7,0,3.3,0.3,4.7,1l-0.4,1.9c-1.2-0.7-2.6-1.1-4.2-1.1
		c-0.9,0-1.7,0.1-2.2,0.3c-0.5,0.2-0.9,0.5-1.1,0.9c-0.2,0.4-0.3,1.1-0.3,1.9c0,0.7,0.1,1.3,0.3,1.7c0.2,0.4,0.6,0.7,1.2,1
		c0.5,0.3,1.5,0.7,2.8,1.3c1.2,0.5,2.1,0.9,2.7,1.3c0.7,0.4,1.1,0.9,1.5,1.5c0.3,0.6,0.5,1.3,0.5,2.2c0,3.6-2,5.4-6.1,5.4
		C146.2,40,144.5,39.6,142.9,39"/>
	<path class="st0" d="M158,33.2V20.9h2v12.3c0,1.3,0.1,2.3,0.4,3c0.2,0.7,0.7,1.2,1.3,1.5c0.6,0.3,1.5,0.4,2.6,0.4
		c1.2,0,2-0.1,2.6-0.4c0.6-0.3,1-0.8,1.3-1.5c0.2-0.7,0.4-1.7,0.4-3V20.9h2v12.3c0,4.5-2.1,6.8-6.3,6.8C160.2,40,158,37.7,158,33.2"
		/>
	<path class="st0" d="M181.5,20.9c3.8,0,5.7,1.8,5.7,5.4c0,3.1-1.5,4.9-4.6,5.3l5.2,8.2h-2.4l-5-8.1h-2.8v8.1h-2V20.9H181.5z
		 M183.7,29.7c0.5-0.2,0.9-0.6,1.1-1.1c0.2-0.5,0.3-1.3,0.3-2.3c0-1-0.1-1.7-0.3-2.3c-0.2-0.5-0.6-0.9-1.1-1.1
		c-0.5-0.2-1.3-0.3-2.3-0.3h-3.8V30h3.7C182.3,30,183.1,29.9,183.7,29.7"/>
	<path class="st0" d="M193.4,35.2l-1.5,4.6h-2.2l6.8-18.8h1.9l6.8,18.8h-2.2l-1.5-4.6H193.4z M197.4,23.3L194,33.4h6.8L197.4,23.3z"
		/>
	<polygon class="st0" points="210.2,20.9 219.8,35.7 219.8,20.9 221.7,20.9 221.7,39.7 220.1,39.7 210.4,24.9 210.4,39.7 
		208.5,39.7 208.5,20.9 	"/>
	<path class="st0" d="M225.7,30.4c0-3.3,0.7-5.7,2-7.3c1.3-1.6,3.3-2.4,6-2.4c1.4,0,2.6,0.2,3.6,0.6l-0.4,1.8
		c-0.9-0.4-1.9-0.6-3.1-0.6c-1.6,0-2.8,0.2-3.6,0.7c-0.8,0.5-1.4,1.3-1.8,2.4c-0.4,1.1-0.5,2.8-0.5,4.9c0,2.1,0.2,3.7,0.5,4.8
		c0.4,1.1,0.9,1.9,1.8,2.3c0.8,0.5,2,0.7,3.6,0.7c1.4,0,2.6-0.3,3.5-0.8l0.4,1.9c-1.1,0.5-2.4,0.7-4,0.7
		C228.3,40,225.7,36.8,225.7,30.4"/>
	<polygon class="st0" points="252.1,39.7 241.2,39.7 241.2,20.9 251.9,20.9 251.9,22.6 243.3,22.6 243.3,29.3 251.1,29.3 251.1,31 
		243.3,31 243.3,37.9 252.1,37.9 	"/>
</g>
</svg>
